<svg width="92" height="92" viewBox="0 0 92 92" fill="none" xmlns="http://www.w3.org/2000/svg">
<path d="M80.2571 33.9341H61.1431C56.4565 33.9341 52.6572 37.7334 52.6572 42.4202C52.6572 47.1068 56.4565 50.906 61.1431 50.906H80.2571C84.9438 50.906 88.7431 47.1068 88.7431 42.4202C88.7432 37.7334 84.9439 33.9341 80.2571 33.9341ZM27.2917 58.3193H16.6089C11.9221 58.3193 8.1228 62.1186 8.1228 66.8054C8.1228 71.4921 11.9221 75.2914 16.6089 75.2914H27.2917C31.9785 75.2914 35.7778 71.4921 35.7778 66.8054C35.7778 62.1186 31.9785 58.3193 27.2917 58.3193ZM28.8738 13.4429H11.7432C7.05639 13.4429 3.25708 17.2422 3.25708 21.929C3.25708 26.6157 7.0564 30.4149 11.7432 30.4149H28.8738C33.5605 30.4149 37.3599 26.6157 37.3599 21.929C37.3599 17.2422 33.5605 13.4429 28.8738 13.4429Z" fill="#53FDCA"/>
<path d="M35.7109 44.958H28.4409V74.993H35.7109V44.958Z" fill="#53FDCA"/>
<path d="M35.7109 44.958H28.4409V59.341H35.7109V44.958Z" fill="white"/>
<path d="M47.4751 55.5H40.2051V74.993H47.4751V55.5Z" fill="#53FDCA"/>
<path d="M59.239 25.968H51.969V74.993H59.239V25.968Z" fill="#53FDCA"/>
<path d="M59.239 55.874H51.969V74.993H59.239V55.874Z" fill="white"/>
<path d="M71.0029 55.5H63.7329V74.993H71.0029V55.5Z" fill="#53FDCA"/>
<path d="M71.0029 55.5H63.7329V61.652H71.0029V55.5Z" fill="white"/>
<path d="M80.6807 74.9897C80.6807 74.8896 80.5916 74.4944 80.3853 74.2881L77.457 71.3564C77.0669 70.9648 76.4331 70.9658 76.043 71.3555C75.6519 71.7456 75.6519 72.3789 76.042 72.7695L77.2607 73.9897H71.5007C71.5007 71.1262 71.5007 60.3496 71.5007 55.4997C71.5007 55.2197 71.2808 54.9997 71.0007 54.9997H63.7307C63.4607 54.9997 63.2307 55.2197 63.2307 55.4997C63.2307 57.0938 63.2307 69.2858 63.2307 73.9897H59.7407C59.7407 63.8522 59.7407 41.4984 59.7407 25.9697C59.7407 25.6897 59.5107 25.4697 59.2407 25.4697H51.9707C51.6907 25.4697 51.4707 25.6897 51.4707 25.9697C51.4707 40.5015 51.4707 65.2234 51.4707 73.9897H47.9707V55.4997C47.9707 55.2197 47.7507 54.9997 47.4707 54.9997H40.2007C39.9307 54.9997 39.7007 55.2197 39.7007 55.4997V73.9897H36.2107C36.2107 63.7494 36.2107 55.1025 36.2107 44.9597C36.2107 44.6797 35.9907 44.4597 35.7107 44.4597H28.4407C28.1606 44.4597 27.9407 44.6797 27.9407 44.9597C27.9407 55.1025 27.9407 63.7575 27.9407 73.9897H20.7708V17.3396L21.9893 18.5581C22.3799 18.9487 23.0127 18.9487 23.4033 18.5581C23.794 18.1675 23.794 17.5347 23.4033 17.144L20.4751 14.2158C20.2686 14.0095 19.8713 13.9197 19.7708 13.9197C19.6689 13.9197 19.2719 14.0049 19.0615 14.2153L16.1299 17.1435C15.7388 17.5337 15.7388 18.167 16.1289 18.5576C16.519 18.9487 17.1528 18.9487 17.543 18.5586L18.7707 17.3321V74.9897C18.7707 75.5498 19.2107 75.9897 19.7707 75.9897H77.2685L76.0425 77.2158C75.6518 77.6064 75.6518 78.2392 76.0425 78.6299C76.4331 79.0205 77.0659 79.0205 77.4565 78.6299L80.3848 75.7016C80.5956 75.491 80.6807 75.1123 80.6807 74.9897ZM64.2307 55.9997H70.5007V61.1498H64.2307V55.9997ZM64.2307 62.1498H70.5007V73.9897V74.4897H64.2307V73.9897V62.1498ZM58.7407 26.4697V55.3697H52.4707V26.4697H58.7407ZM52.4707 56.3697H58.7407V73.9897V74.4897H52.4707V73.9897V56.3697ZM40.7007 55.9997H46.9707V73.9897V74.4897H40.7007V73.9897V55.9997ZM28.9407 45.4597H35.2107V58.8398H28.9407V45.4597V45.4597ZM28.9407 59.8398H35.2107V73.9897V74.4897H28.9407V73.9897V59.8398V59.8398Z" fill="#444444"/>
<path d="M61.886 13.4431C63.6357 13.4431 65.054 12.0247 65.054 10.2751C65.054 8.52542 63.6357 7.10706 61.886 7.10706C60.1364 7.10706 58.718 8.52542 58.718 10.2751C58.718 12.0247 60.1364 13.4431 61.886 13.4431Z" fill="#E2F6F0"/>
<path d="M84.3779 24.114C85.1031 24.114 85.6909 23.5262 85.6909 22.801C85.6909 22.0759 85.1031 21.488 84.3779 21.488C83.6528 21.488 83.0649 22.0759 83.0649 22.801C83.0649 23.5262 83.6528 24.114 84.3779 24.114Z" fill="#66C1A6"/>
<path d="M8.12306 46.614C8.84821 46.614 9.43606 46.0262 9.43606 45.301C9.43606 44.5759 8.84821 43.988 8.12306 43.988C7.39791 43.988 6.81006 44.5759 6.81006 45.301C6.81006 46.0262 7.39791 46.614 8.12306 46.614Z" fill="#D6FDF1"/>
<path d="M85.691 67.426C86.895 67.426 87.871 66.45 87.871 65.246C87.871 64.0421 86.895 63.066 85.691 63.066C84.487 63.066 83.511 64.0421 83.511 65.246C83.511 66.45 84.487 67.426 85.691 67.426Z" fill="#D6FDF1"/>
<path d="M22.6961 84.893C23.4908 84.893 24.1351 84.2488 24.1351 83.454C24.1351 82.6593 23.4908 82.015 22.6961 82.015C21.9013 82.015 21.2571 82.6593 21.2571 83.454C21.2571 84.2488 21.9013 84.893 22.6961 84.893Z" fill="#53FDCA"/>
</svg>
