<svg id="e62033bf-a539-44cb-a35a-241b4b36f1c8" data-name="Layer 1" xmlns="http://www.w3.org/2000/svg" xmlns:xlink="http://www.w3.org/1999/xlink" viewBox="0 0 452 799.68"><defs><linearGradient id="bdd62092-ceb3-480d-945b-77d53c3ccdc4" x1="329.04" y1="854.86" x2="581.63" y2="40.54" gradientTransform="matrix(-1, 0, 0, 1, 500.22, 0)" gradientUnits="userSpaceOnUse"><stop offset="0" stop-color="#53fdca"/><stop offset="1" stop-color="#53fdca" stop-opacity="0"/></linearGradient></defs><path d="M-59.4,37.36c4.73,0,9.59.14,10.8.18s5.25.26,9,.52,8.68.65,11.07.91,7,.78,10.29,1.17,9.16,1.26,13,1.91,9.5,1.66,12.68,2.3,7.24,1.52,9.11,2,5.26,1.25,7.51,1.82,6.68,1.73,9.77,2.6,8,2.35,10.85,3.26,8.16,2.69,11.72,3.95,8.86,3.35,11.81,4.52,7.12,2.95,9.2,3.91,7.17,3.29,11.2,5.29,9.25,4.64,11.5,5.9,6.65,3.78,9.73,5.6,8.25,5.08,11.51,7.26,7.77,5.33,10.07,7,6.6,5,9.46,7.24,6.55,5.34,8.16,6.77,5.38,4.87,8.38,7.65,7.55,7.29,10.12,10,6.42,7,8.54,9.47,5.39,6.29,7.22,8.64,5,6.46,7.06,9.29,5.3,7.51,7.3,10.5,5,7.77,6.68,10.59,4.26,7.3,5.69,9.9,4.08,7.68,5.86,11.34,4.44,9.24,5.87,12.37,3.42,8.06,4.6,10.93,2.9,7.51,3.94,10.47,2.83,8,3.92,11.32,2.6,8.77,3.38,12.07,2.08,9.16,2.91,13,2,9.86,2.64,13.42,1.61,9,2.09,12.07,1.21,8.2,1.61,11.36,1,8.31,1.35,11.47.82,8.68,1,12.24.57,11.59.66,17.85c.09,6.9,0,14.15-.18,18.53-.17,4-.52,9.82-.78,13s-.7,8.33-1,11.5-1.17,10.84-1.92,17.1-1.51,13.76-1.82,16.8c-.34,3.95-.48,8.34-.52,16.06,0,6.9.13,11.73.4,13.85.21,1.78.78,5.17,1.21,7.51s1.35,5.86,2,7.82,1.73,5.25,2.55,7.33,2.44,5.69,3.6,8,3.14,5.72,4.35,7.72,3.56,5.39,5.17,7.56,4.16,5.34,5.69,7.11,5.08,5.56,7.93,8.38,6.87,6.69,9,8.52,5.56,4.77,7.68,6.51,7.6,6.12,12.2,9.72,9.55,7.56,10.91,8.68,3.81,3.26,5.38,4.69a61.35,61.35,0,0,1,5.21,5.38,31.84,31.84,0,0,1,3.38,4.78,33,33,0,0,1,1.78,4.78c.39,1.55,1,4,1.22,5.42a52.64,52.64,0,0,1,.43,6.21,39.34,39.34,0,0,1-.48,6.08,28,28,0,0,1-1.3,4.65,33.71,33.71,0,0,1-2.21,4.24,34.65,34.65,0,0,1-3.18,4,40.33,40.33,0,0,1-4.08,3.61,52,52,0,0,1-5.46,3.3c-1.74.91-4.17,2-5.43,2.51s-3.64,1.34-5.42,1.95-5.56,1.66-8.38,2.39-6.47,1.74-8,2.21a11.5,11.5,0,0,0-3.94,1.92l-1.13,1,1,4.39c.57,2.38,1.65,6.77,2.44,9.68s2.25,7.72,3.25,10.64,2.56,7,3.51,9.11,2.53,5.3,3.52,7.08a44.74,44.74,0,0,1,2.43,5,10.53,10.53,0,0,1,.43,4.73,14.6,14.6,0,0,1-1,5.34,35.16,35.16,0,0,1-2,4.25,39.51,39.51,0,0,1-2.52,3.69,51,51,0,0,1-3.82,4,37.1,37.1,0,0,1-5,4,36.45,36.45,0,0,1-5.08,2.78,30.88,30.88,0,0,1-4.42,1.48c-1,.21-2,.39-2,.43a9.49,9.49,0,0,0,1.91,2c1.12,1,2.82,2.83,3.73,3.91s2.22,3,3,4.22a23.75,23.75,0,0,1,2.09,4.51,15,15,0,0,1,.74,4.42,18.84,18.84,0,0,1-.3,3.22,8,8,0,0,1-2,2.69c-1,.87-3.17,2.83-4.95,4.26s-4.34,3.81-5.73,5.25a43.72,43.72,0,0,0-3.74,4.39c-.64,1-1.48,2.38-1.86,3.07s-1,2.17-1.35,3.17a32.17,32.17,0,0,0-1.17,4.48c-.22,1.39-.61,7.2-.86,12.85s-.66,12.84-.91,15.92-.66,7.26-.88,9.29-.78,5.69-1.17,8.13-1.21,6.33-1.78,8.68-1.56,5.9-2.21,7.9-1.65,4.69-2.22,6-1.65,3.47-2.35,4.78a50.1,50.1,0,0,1-2.73,4.42,36.36,36.36,0,0,1-2.9,3.65,34.59,34.59,0,0,1-3.52,3.26,29.89,29.89,0,0,1-4.43,2.86,33.52,33.52,0,0,1-5,2.05c-2.3.69-3.3.78-7.9.91-2.87.08-8,0-11.33-.18s-9.21-.61-13-.91-8.86-.78-11.2-1l-10.59-1.16-11.94-1.48c-3.08-.43-8.72-1.21-12.54-1.78s-10.51-1.65-14.9-2.34-11.84-2.05-16.62-3-11.94-2.26-15.93-3.08S98.26,817.91,94.18,817s-9.93-2.22-13.11-3-10-2.44-15.19-3.74S53.55,807.14,50,806.18s-10.21-2.82-14.77-4.12S23,798.41,18,796.89,5.11,792.81.33,791.2s-11.68-4-15.33-5.25-10.06-3.65-14.23-5.21-11.2-4.3-15.64-6-10.37-4.21-13.32-5.43-8-3.34-11.21-4.77-9.06-4-12.93-5.83-13.15-6.2-20.57-9.84-13.46-6.78-13.46-6.86,2.3-1.75,5.08-3.69,9-6.51,13.89-10.17,11.2-8.5,14-10.76,7.85-6.34,11.14-9.08,8.6-7.24,11.77-10,8.34-7.42,11.41-10.2,10.3-9.86,16.07-15.63,12.63-12.86,15.24-15.76,6.17-7,7.9-9,5.2-6.25,7.77-9.41,6.6-8.38,9-11.64,6.22-8.38,8.34-11.42S21,607,23.12,603.66s5.2-8,6.73-10.5,4.16-6.86,5.78-9.59,3.9-6.82,5.12-9,3.33-6.12,4.72-8.68,3.65-7,5-9.77,3.91-8,5.6-11.63,4.16-9.07,5.43-12.07,3.26-7.64,4.34-10.34,3.09-7.77,4.43-11.32,3.47-9.38,4.72-13,3.35-10,4.69-14.42,3.14-10.38,4-13.32,2.21-8.17,3.12-11.64,2.26-9.29,3.08-12.93,2-9,2.52-11.86,1.57-8.34,2.21-12.1,1.57-9.61,2.09-13,1.22-9,1.6-12.5.92-8.6,1.18-11.38.65-7.86.91-11.33.6-11.54.78-17.93c.26-8.94.26-14.19,0-23-.18-6.29-.57-14.33-.82-17.88s-.75-9.68-1.13-13.6-1.08-9.54-1.48-12.63-1.3-8.86-1.95-12.85S94,265.32,93.27,261.76s-2.17-9.94-3.21-14.16-2.6-10.33-3.51-13.58-2.74-9.12-4-13.11-3.33-9.81-4.51-13-3-7.9-4.08-10.47-2.73-6.55-3.73-8.81-3-6.64-4.47-9.68S61.8,171,60.23,168s-4.12-7.63-5.77-10.45-4.12-7.08-5.6-9.43-4.34-6.81-6.42-9.9-5.08-7.42-6.69-9.59-4.26-5.77-5.9-7.9S25.2,115,23.2,112.55s-4.94-5.82-6.51-7.6-5.2-5.68-8.07-8.68-7.38-7.46-10.07-10-6.94-6.43-9.42-8.6-6-5.21-7.82-6.64-4.68-3.82-6.46-5.2-5.52-4.17-8.34-6.22-7.42-5.25-10.29-7.2-7.86-5.12-11-7.08-7.43-4.46-9.47-5.69S-68,37.5-68,37.45s3.87-.09,8.65-.09Z" transform="translate(117.36 -36.36)" fill="none" stroke-miterlimit="10" stroke-width="2" stroke="url(#bdd62092-ceb3-480d-945b-77d53c3ccdc4)"/><path d="M243.42,460.62" transform="translate(117.36 -36.36)" fill="#fff" stroke="#6bccbb" stroke-miterlimit="10" stroke-width="2"/></svg>