<svg id="ad4cd471-02c0-40c4-9007-5dda0ed84298" data-name="Layer 1" xmlns="http://www.w3.org/2000/svg" xmlns:xlink="http://www.w3.org/1999/xlink" viewBox="0 0 452 799.68"><defs><linearGradient id="a03a0155-f2a8-4216-995b-67891924865b" x1="187.57" y1="863.29" x2="440.16" y2="48.96" gradientUnits="userSpaceOnUse"><stop offset="0" stop-color="#53fdca"/><stop offset="1" stop-color="#53fdca" stop-opacity="0"/></linearGradient></defs><path d="M418.15,45.78c-4.73,0-9.59.14-10.8.18s-5.26.26-9,.52-8.68.65-11.07.91-7,.78-10.29,1.17-9.16,1.26-13,1.91-9.5,1.66-12.68,2.3-7.25,1.53-9.11,2S337,56,334.71,56.55,328,58.29,325,59.15s-8,2.35-10.85,3.26-8.16,2.69-11.73,4-8.85,3.35-11.8,4.52-7.12,3-9.2,3.91-7.17,3.29-11.2,5.29-9.25,4.64-11.5,5.9-6.65,3.78-9.73,5.6-8.26,5.08-11.51,7.26-7.77,5.33-10.07,7-6.6,5-9.46,7.24-6.55,5.34-8.17,6.77-5.37,4.87-8.38,7.65-7.54,7.29-10.11,10-6.42,7-8.54,9.47-5.39,6.29-7.22,8.64-5,6.46-7.06,9.29-5.31,7.51-7.31,10.5-5,7.77-6.68,10.59-4.25,7.3-5.69,9.9-4.07,7.68-5.85,11.34-4.44,9.24-5.87,12.37-3.42,8.06-4.6,10.93-2.9,7.51-3.95,10.47-2.82,8-3.91,11.32-2.6,8.77-3.38,12.07-2.09,9.16-2.91,13-2,9.86-2.64,13.42-1.61,9-2.09,12.07-1.21,8.2-1.61,11.37-1,8.3-1.35,11.46-.82,8.68-1,12.24-.57,11.59-.66,17.85c-.09,6.9,0,14.15.18,18.54.17,4,.52,9.81.78,13s.7,8.33,1,11.5,1.17,10.84,1.91,17.1,1.52,13.76,1.83,16.8c.34,4,.47,8.34.52,16.06,0,6.9-.13,11.73-.4,13.85-.21,1.78-.78,5.17-1.21,7.51s-1.35,5.86-2,7.82-1.73,5.25-2.55,7.33-2.44,5.69-3.61,8-3.13,5.72-4.34,7.72-3.56,5.4-5.17,7.56-4.17,5.34-5.69,7.11-5.08,5.56-7.93,8.38-6.87,6.69-9,8.52-5.56,4.78-7.68,6.51-7.6,6.12-12.21,9.72-9.54,7.56-10.9,8.68-3.81,3.26-5.38,4.69a62.77,62.77,0,0,0-5.21,5.38,31.84,31.84,0,0,0-3.38,4.78,34.16,34.16,0,0,0-1.79,4.78c-.39,1.55-.95,4-1.21,5.42a52.64,52.64,0,0,0-.43,6.21,39.34,39.34,0,0,0,.48,6.08,28,28,0,0,0,1.3,4.65,32.44,32.44,0,0,0,2.21,4.24,34.65,34.65,0,0,0,3.18,4,40.33,40.33,0,0,0,4.08,3.61,52,52,0,0,0,5.46,3.3c1.74.91,4.17,2,5.43,2.51s3.64,1.34,5.42,2,5.56,1.66,8.38,2.39,6.47,1.74,8,2.21a11.48,11.48,0,0,1,4,1.92l1.13.95-1,4.39c-.57,2.38-1.65,6.77-2.44,9.68s-2.25,7.73-3.25,10.64-2.56,7-3.51,9.11-2.53,5.3-3.52,7.08a43,43,0,0,0-2.43,5,10.53,10.53,0,0,0-.43,4.73,14.6,14.6,0,0,0,1,5.34,35.16,35.16,0,0,0,2,4.25,39.51,39.51,0,0,0,2.52,3.69,51,51,0,0,0,3.82,4,37.1,37.1,0,0,0,5,3.95A36.45,36.45,0,0,0,77,701.21a30.88,30.88,0,0,0,4.42,1.48c1,.21,2,.39,2,.43a9.49,9.49,0,0,1-1.91,2c-1.12,1-2.82,2.83-3.74,3.91s-2.21,3-3,4.22a23.7,23.7,0,0,0-2.08,4.51,15,15,0,0,0-.74,4.42,18.84,18.84,0,0,0,.3,3.22,7.86,7.86,0,0,0,2,2.69c1,.87,3.17,2.83,5,4.26s4.34,3.81,5.73,5.25A43.72,43.72,0,0,1,88.67,742c.64,1,1.47,2.39,1.86,3.07s1,2.17,1.35,3.17A30.89,30.89,0,0,1,93,752.7c.23,1.39.62,7.2.87,12.85s.66,12.84.91,15.92.66,7.26.88,9.29.78,5.69,1.17,8.13,1.21,6.33,1.78,8.68,1.56,5.9,2.21,7.9,1.65,4.69,2.22,6,1.64,3.47,2.34,4.78a50.15,50.15,0,0,0,2.74,4.42,36.36,36.36,0,0,0,2.9,3.65,33.56,33.56,0,0,0,3.52,3.26,29.38,29.38,0,0,0,4.43,2.86,33.52,33.52,0,0,0,5,2c2.3.69,3.3.78,7.9.91,2.86.08,8,0,11.33-.18s9.2-.61,13-.91,8.85-.78,11.2-1l10.59-1.17L190,838.65c3.07-.43,8.72-1.21,12.54-1.78s10.51-1.65,14.89-2.34,11.85-2,16.63-3S246,829.32,250,828.49s10.51-2.16,14.59-3.08,9.93-2.22,13.11-2.95,10-2.44,15.19-3.74,12.33-3.16,15.88-4.12,10.21-2.82,14.77-4.12,12.28-3.65,17.23-5.17,12.89-4.08,17.67-5.69,11.68-3.94,15.32-5.24,10.07-3.66,14.24-5.22,11.2-4.3,15.64-6l13.32-5.42c2.91-1.23,7.95-3.35,11.2-4.78s9.07-4,12.94-5.83,13.15-6.2,20.57-9.84,13.46-6.78,13.46-6.86-2.3-1.75-5.08-3.69-9-6.51-13.89-10.17-11.2-8.5-14-10.76-7.85-6.34-11.14-9.08-8.61-7.24-11.77-10-8.34-7.42-11.42-10.2-10.29-9.86-16.07-15.63S379.09,668,376.48,665.09s-6.17-7-7.9-9-5.2-6.25-7.77-9.41-6.6-8.38-9-11.64-6.21-8.38-8.33-11.42-5.69-8.21-7.82-11.51-5.21-8-6.73-10.5-4.17-6.86-5.78-9.59-3.9-6.82-5.12-9-3.33-6.12-4.72-8.68-3.65-7-5-9.77-3.91-8-5.6-11.63-4.17-9.07-5.43-12.07-3.26-7.64-4.34-10.34-3.09-7.77-4.43-11.32-3.47-9.38-4.72-13-3.35-10-4.69-14.42-3.14-10.38-4-13.32-2.21-8.17-3.12-11.64-2.26-9.29-3.08-12.93-2-9-2.52-11.86-1.57-8.34-2.22-12.1-1.56-9.61-2.09-13-1.21-9-1.6-12.5-.91-8.6-1.17-11.38-.65-7.86-.92-11.33-.6-11.54-.77-17.93c-.26-8.94-.26-14.19,0-23,.17-6.29.56-14.33.82-17.88s.74-9.68,1.13-13.6,1.08-9.54,1.48-12.63,1.3-8.86,1.95-12.85,1.77-10.11,2.52-13.67,2.17-9.94,3.21-14.16,2.6-10.33,3.51-13.58,2.74-9.12,4.05-13.11,3.33-9.81,4.51-13,3-7.9,4.08-10.47,2.73-6.54,3.73-8.81,3-6.64,4.47-9.68,3.91-8,5.48-10.94,4.12-7.63,5.77-10.45,4.12-7.08,5.6-9.43,4.34-6.81,6.42-9.9,5.08-7.42,6.69-9.59,4.26-5.77,5.9-7.9,4.65-5.77,6.65-8.2,4.94-5.83,6.51-7.61,5.2-5.68,8.07-8.68,7.38-7.46,10.07-10,6.94-6.43,9.42-8.6,6-5.21,7.81-6.64,4.69-3.81,6.47-5.2,5.51-4.17,8.34-6.22,7.42-5.25,10.29-7.2,7.85-5.12,11-7.08S421,49.31,423,48.08s3.78-2.16,3.78-2.21-3.87-.09-8.65-.09Z" transform="translate(-24.11 -44.78)" fill="none" stroke-miterlimit="10" stroke-width="2" stroke="url(#a03a0155-f2a8-4216-995b-67891924865b)"/><path d="M243.42,460.62" transform="translate(-24.11 -44.78)" fill="#fff" stroke="#6bccbb" stroke-miterlimit="10" stroke-width="2"/></svg>