<svg width="250" height="100" viewBox="0 0 250 100" fill="none" xmlns="http://www.w3.org/2000/svg">
<g clip-path="url(#clip0_1665_306368)">
<path d="M43.0738 37.2348C43.0012 37.0238 42.9195 36.8242 42.8242 36.6359C42.9513 36.8491 43.0329 37.051 43.0738 37.2348Z" fill="white"/>
<path d="M103.525 43.6932C102.861 41.1003 101.186 39.2038 97.897 39.2038C93.0606 39.2038 91.037 43.4709 91.037 47.8038C91.037 52.1367 93.0606 56.4037 97.897 56.4037C101.406 56.4037 103.335 53.7791 103.65 50.492H107.506C107.191 55.8979 103.364 59.6296 97.8948 59.6296C91.13 59.6296 87.083 54.2555 87.083 47.8061C87.083 41.3567 91.13 35.9825 97.8948 35.9825C102.985 36.0143 107.001 38.8273 107.475 43.6955H103.525V43.6932Z" fill="white"/>
<path d="M109.85 50.9002C109.85 45.905 112.853 42.3003 118.1 42.3003C123.348 42.3003 126.351 45.905 126.351 50.9002C126.351 55.9273 123.348 59.532 118.1 59.532C112.853 59.532 109.85 55.9273 109.85 50.9002ZM122.749 50.9002C122.749 48.0873 121.326 45.1473 118.1 45.1473C114.875 45.1473 113.452 48.0873 113.452 50.9002C113.452 53.745 114.875 56.685 118.1 56.685C121.326 56.6872 122.749 53.745 122.749 50.9002Z" fill="white"/>
<path d="M129.452 36.5156H133.057V39.9297H129.452V36.5156ZM129.452 42.745H133.057V59.0897H129.452V42.745Z" fill="white"/>
<path d="M136.977 42.745H140.391V45.1473L140.454 45.2109C141.53 43.4096 143.394 42.3026 145.545 42.3026C149.086 42.3026 151.33 44.1991 151.33 47.8673V59.0896H147.725V48.8155C147.662 46.2544 146.65 45.1473 144.531 45.1473C142.129 45.1473 140.579 47.0438 140.579 49.4462V59.0896H136.977V42.745Z" fill="white"/>
<path d="M175.326 59.0896H172.797L172.196 56.4332C170.077 58.8355 168.148 59.6273 165.399 59.6273C158.634 59.6273 154.587 54.2531 154.587 47.8037C154.587 41.3543 158.634 35.9802 165.399 35.9802C170.331 35.9802 174.473 38.6049 175.074 43.6932H171.218C170.839 40.7214 168.246 39.2038 165.401 39.2038C160.565 39.2038 158.541 43.4709 158.541 47.8037C158.541 52.1366 160.565 56.4037 165.401 56.4037C169.448 56.4672 171.66 54.0331 171.724 50.2061H165.717V47.2026H175.328V59.0896H175.326Z" fill="white"/>
<path d="M181.934 51.8485C181.934 54.4097 183.325 56.685 186.328 56.685C188.415 56.685 189.679 55.7685 190.312 53.965H193.726C192.937 57.5379 189.901 59.5297 186.328 59.5297C181.206 59.5297 178.33 55.9568 178.33 50.9297C178.33 46.2816 181.365 42.298 186.233 42.298C191.387 42.298 194.547 46.9462 193.946 51.8462H181.934V51.8485ZM190.344 49.4779C190.217 47.2026 188.667 45.1473 186.233 45.1473C183.735 45.1473 182.027 47.0438 181.934 49.4779H190.344Z" fill="white"/>
<path d="M207.732 48.2144C207.448 46.2226 205.992 45.1473 204.003 45.1473C202.138 45.1473 199.513 46.1273 199.513 51.0909C199.513 53.8108 200.715 56.6873 203.844 56.6873C205.931 56.6873 207.385 55.2967 207.732 52.9556H211.337C210.672 57.1932 208.05 59.532 203.844 59.532C198.721 59.532 195.908 55.8956 195.908 51.0909C195.908 46.1591 198.597 42.3026 203.971 42.3026C207.764 42.3026 210.99 44.1991 211.337 48.2144H207.732V48.2144Z" fill="white"/>
<path d="M214.372 36.5156H217.977V49.3509L224.489 42.7427H228.915L222.656 48.7497L229.516 59.0874H225.122L220.127 51.1521L217.977 53.2391V59.0874H214.372V36.5156Z" fill="white"/>
<path d="M230.496 50.9002C230.496 45.905 233.5 42.3003 238.749 42.3003C243.996 42.3003 247 45.905 247 50.9002C247 55.9273 243.996 59.532 238.749 59.532C233.5 59.532 230.496 55.9273 230.496 50.9002ZM243.395 50.9002C243.395 48.0873 241.973 45.1473 238.747 45.1473C235.521 45.1473 234.099 48.0873 234.099 50.9002C234.099 53.745 235.521 56.685 238.747 56.685C241.973 56.6872 243.395 53.745 243.395 50.9002Z" fill="white"/>
<path d="M34.4057 17.8888C16.4277 17.9705 1.92056 32.607 1.99996 50.5872C2.08162 68.5652 16.7226 83.0724 34.6984 82.993C52.6764 82.9114 67.1836 68.2726 67.1042 50.2969C67.0225 32.3166 52.3838 17.8094 34.4057 17.8888ZM30.2838 48.8428C27.0694 48.8428 24.4628 46.2385 24.4628 43.024C24.4628 39.8118 27.0694 37.2053 30.2838 37.2053C33.4961 37.2053 36.1026 39.8118 36.1026 43.024C36.1049 46.2385 33.4983 48.8428 30.2838 48.8428ZM34.9252 55.1356L34.9547 55.0993L34.9865 55.063C36.647 56.1338 38.5435 56.5126 40.4377 56.5671C42.3342 56.617 44.267 56.474 46.168 56.0907C48.0668 55.6959 49.9338 55.1129 51.7372 54.3689C52.749 53.9515 53.7562 53.4955 54.7158 52.9601C54.7226 52.9556 54.7271 52.9533 54.7339 52.9488C55.3306 52.5903 55.9136 52.2115 56.4875 51.8213C56.6123 51.7328 56.7325 51.6398 56.8505 51.5446L56.8641 51.5604L56.914 51.6194C55.4508 52.951 53.7086 53.9401 51.9346 54.8135C50.1425 55.6574 48.2732 56.3493 46.3427 56.8484C44.419 57.3452 42.4113 57.7217 40.3788 57.5357C38.3802 57.3565 36.2727 56.6555 34.9252 55.1356ZM49.8612 48.8428C49.8589 48.144 50.4215 47.5815 51.1157 47.5746C51.8144 47.5724 52.377 48.1327 52.3838 48.8291C52.386 49.5256 51.8234 50.095 51.1293 50.0972C50.4328 50.1018 49.8657 49.5392 49.8612 48.8428ZM39.891 80.0644C38.6343 71.2557 46.3268 62.6285 50.6642 58.214C51.6488 57.2136 53.1709 55.8343 54.5865 54.3689C60.217 49.1036 61.3376 42.813 49.8135 39.6689C47.6289 39.0359 45.365 38.1399 43.0715 37.2347C42.9989 37.0238 42.9172 36.8241 42.822 36.6359C42.5588 36.1821 42.0983 35.6604 41.4019 35.0683C39.9046 33.7684 37.0894 33.8025 34.6598 34.3787C31.9739 33.7458 29.3243 33.5212 26.7767 34.1314C15.6338 37.2007 13.8416 42.6361 13.4083 49.1853C12.8185 56.2631 12.4737 61.5374 9.79459 67.5626C6.45079 62.7397 4.47945 56.8892 4.45223 50.5759C4.37737 33.9522 17.7934 20.4159 34.4171 20.3411C51.0408 20.2662 64.577 33.68 64.6519 50.3037C64.72 65.1511 54.0194 77.5395 39.891 80.0644Z" fill="white"/>
<path d="M34.3763 43.0784C34.3763 45.3401 32.5433 47.1708 30.2839 47.1708C28.0222 47.1708 26.1892 45.3401 26.1892 43.0784C26.1892 40.8167 28.0222 38.986 30.2839 38.986C32.5433 38.9838 34.3763 40.8167 34.3763 43.0784Z" fill="white"/>
</g>
<defs>
<clipPath id="clip0_1665_306368">
<rect width="245" height="64.8796" fill="white" transform="translate(2 18)"/>
</clipPath>
</defs>
</svg>
