<svg xmlns="http://www.w3.org/2000/svg" enable-background="new 0 0 92 92" viewBox="0 0 92 92"><path fill="#53fdca" d="M81.87488 37.02534H50.85803c-4.68677 0-8.48608 3.79932-8.48608 8.48596 0 4.68671 3.79932 8.48602 8.48608 8.48602h31.01685c4.68677 0 8.48608-3.79932 8.48608-8.48602C90.36096 40.82466 86.56165 37.02534 81.87488 37.02534zM20.80774 61.41059H10.12488c-4.68652 0-8.48584 3.79932-8.48584 8.48603s3.79932 8.48596 8.48584 8.48596h10.68286c4.68677 0 8.48608-3.79926 8.48608-8.48596S25.49451 61.41059 20.80774 61.41059zM33.88611 16.53419H16.75525c-4.68652 0-8.48584 3.79926-8.48584 8.48596s3.79932 8.48602 8.48584 8.48602h17.13086c4.68652 0 8.48584-3.79931 8.48584-8.48602S38.57263 16.53419 33.88611 16.53419z" class="colordfebf8 svgShape"/><circle cx="56.591" cy="10.234" r="3.074" fill="#53fdca" class="color5dcae7 svgShape"/><circle cx="83.878" cy="22.215" r="1.852" fill="#5df3c6" class="colorf3765d svgShape"/><circle cx="45.361" cy="83.461" r="1.38" fill="#53fdca" class="color5dcae7 svgShape"/><circle cx="5.716" cy="47.458" r="1.204" fill="#84dec3" class="color84b0de svgShape"/><circle cx="83.878" cy="70.476" r="2.092" fill="#5cfdcd" class="colorfdbe5c svgShape"/><path fill="#fff" d="M73.20425,57.66603v13.02853c0,0.77134-0.62627,1.38992-1.38997,1.38992H53.85231v4.81123
			l-6.02542-4.81123H44.4285c-0.76369,0-1.38232-0.61858-1.38232-1.38992V57.66603c0-0.76369,0.61863-1.38992,1.38232-1.38992
			h27.38578C72.57798,56.27612,73.20425,56.90235,73.20425,57.66603z" class="colorffffff svgShape"/><path fill="#84dec3" d="M48.87764,69.08443h-1.91137c-0.5082,0-0.92017-0.41198-0.92017-0.92018V60.1965
				c0-0.5082,0.41198-0.92017,0.92017-0.92017h22.31761c0.5082,0,0.92018,0.41198,0.92018,0.92017v7.96775
				c0,0.5082-0.41198,0.92018-0.92018,0.92018H48.87764z" class="color84b0de svgShape"/><path fill="#84dec3" d="M59.11583,37.3045v19.76444c0,1.17012-0.95007,2.10852-2.1086,2.10852H29.75869v7.29869l-9.14064-7.29869
			h-5.15538c-1.15853,0-2.097-0.9384-2.097-2.10852V37.3045c0-1.15852,0.93847-2.10852,2.097-2.10852h41.54456
			C58.16576,35.19598,59.11583,36.14598,59.11583,37.3045z" class="color84b0de svgShape"/><path fill="#fff" d="M43.04618,23.79666v14.82421c0,0.87765,0.71259,1.58149,1.58154,1.58149h20.43762v5.47435l6.8559-5.47435
				H75.788c0.86895,0,1.57285-0.70384,1.57285-1.58149V23.79666c0-0.86895-0.7039-1.58149-1.57285-1.58149H44.62772
				C43.75878,22.21517,43.04618,22.92771,43.04618,23.79666z" class="colorffffff svgShape"/><path fill="#010101" d="M75.78821,21.71504H44.62756c-1.14746,0-2.0813,0.93359-2.0813,2.08154V34.196h-27.0835
				c-1.70776,0-3.09717,1.39453-3.09717,3.1084v19.76465c0,1.71387,1.3894,3.1084,3.09717,3.1084h4.80493l10.49097,8.37696v-8.37696
				h11.7876v10.51709c0,1.04199,0.84448,1.89014,1.88208,1.89014h3.22314l6.70068,5.3501v-5.3501h17.46191
				c1.04199,0,1.89014-0.84814,1.89014-1.89014V57.66621c0-1.04199-0.84814-1.89014-1.89014-1.89014H60.11584V40.70234h4.44971
				v6.01318l7.53076-6.01318h3.69189c1.14307,0,2.07275-0.93359,2.07275-2.08154V23.79658
				C77.86096,22.64863,76.93127,21.71504,75.78821,21.71504z M71.81409,56.77607c0.49072,0,0.89014,0.39941,0.89014,0.89014
				v13.02832c0,0.49072-0.39941,0.89014-0.89014,0.89014H53.35217v4.27197l-5.3501-4.27197h-3.57373
				c-0.48633,0-0.88232-0.39941-0.88232-0.89014V60.17744h13.46143c1.71387,0,3.1084-1.39453,3.1084-3.1084v-0.29297H71.81409z
				 M58.11584,57.06904c0,0.61133-0.49707,1.1084-1.1084,1.1084H28.75867v6.22071l-7.79028-6.22071h-5.50562
				c-0.60498,0-1.09717-0.49707-1.09717-1.1084V37.30439c0-0.61133,0.49219-1.1084,1.09717-1.1084h27.0835v2.4248
				c0,1.14795,0.93384,2.08154,2.0813,2.08154h13.48828V57.06904z M76.86096,38.6208c0,0.59619-0.48145,1.08154-1.07275,1.08154
				h-4.04248l-6.18018,4.93506v-4.93506H44.62756c-0.59619,0-1.08105-0.48535-1.08105-1.08154V23.79658
				c0-0.59619,0.48486-1.08154,1.08105-1.08154h31.16064c0.59131,0,1.07275,0.48535,1.07275,1.08154V38.6208z" class="color010101 svgShape"/><path fill="#84dec3" d="M69.59045 27.92793H50.89368c-.27637 0-.5-.22363-.5-.5s.22363-.5.5-.5h18.69678c.27637 0 .5.22363.5.5S69.86682 27.92793 69.59045 27.92793zM69.59045 31.81172H50.89368c-.27637 0-.5-.22363-.5-.5s.22363-.5.5-.5h18.69678c.27637 0 .5.22363.5.5S69.86682 31.81172 69.59045 31.81172zM62.28772 35.696H50.89368c-.27637 0-.5-.22363-.5-.5s.22363-.5.5-.5h11.39404c.27637 0 .5.22363.5.5S62.56409 35.696 62.28772 35.696z" class="color84b0de svgShape"/><circle cx="25.162" cy="47.038" r="3.763" fill="#fff" class="colorffffff svgShape"/><circle cx="36.241" cy="47.038" r="3.763" fill="#fff" class="colorffffff svgShape"/><circle cx="47.32" cy="47.038" r="3.763" fill="#fff" class="colorffffff svgShape"/></svg>