<svg xmlns="http://www.w3.org/2000/svg" viewBox="0 0 66 66"><path fill="none" stroke="#fff" stroke-linecap="round" stroke-linejoin="round" stroke-miterlimit="10" stroke-width="2" d="M4 24.3v23.9c0 2.4 1.9 4.3 4.3 4.3h22.1M48.3 32.2v-7.9M48.4 12.4v7.9H4v-7.9C4 10 5.9 8.1 8.3 8.1h5.1v3.5c0 1.8 1.4 3.2 3.2 3.2s3.2-1.4 3.2-3.2V8.2h12.8v3.5c0 1.8 1.4 3.2 3.2 3.2s3.2-1.4 3.2-3.2V8.2h5.1c2.3 0 4.3 1.9 4.3 4.2z" class="colorStroke000000 svgStroke"/><path fill="none" stroke="#fff" stroke-linecap="round" stroke-linejoin="round" stroke-miterlimit="10" stroke-width="2" d="M16.6 14.8h0c-1.8 0-3.2-1.4-3.2-3.2V5.2c0-1.8 1.4-3.2 3.2-3.2h0c1.8 0 3.2 1.4 3.2 3.2v6.4c0 1.8-1.5 3.2-3.2 3.2zm19.2 0h0c-1.8 0-3.2-1.4-3.2-3.2V5.2C32.6 3.4 34 2 35.8 2h0C37.6 2 39 3.4 39 5.2v6.4c0 1.8-1.4 3.2-3.2 3.2zM12 39.2h10.7v8.1H12zM12 25.5h10.7v8.1H12zM29.6 25.5h10.7v8.1H29.6zM30.4 47.3h-.8v-8.1h4.3M37.2 50.1h-3" class="colorStroke000000 svgStroke"/><circle cx="48.1" cy="50.1" r="13.9" fill="none" stroke="#fff" stroke-linecap="round" stroke-linejoin="round" stroke-miterlimit="10" stroke-width="2" class="colorStroke000000 svgStroke"/><path fill="none" stroke="#fff" stroke-linecap="round" stroke-linejoin="round" stroke-miterlimit="10" stroke-width="2" d="M48.1 36.2v3M48.1 61v3M62 50.1h-3M48.1 43v7h5" class="colorStroke000000 svgStroke"/></svg>