<svg width="250" height="100" viewBox="0 0 250 100" fill="none" xmlns="http://www.w3.org/2000/svg">
<path d="M38.238 54.2928C37.5001 54.7437 36.6392 54.8257 35.9833 54.4568C35.1635 53.9649 34.6716 52.858 34.6716 51.3413V46.7091C34.6716 44.4954 33.8107 42.8967 32.3349 42.4868C29.8344 41.7489 27.9487 44.8234 27.2518 45.9712L22.8245 53.063V44.3314C22.7835 42.3228 22.1276 41.134 20.8979 40.7651C20.078 40.5191 18.8482 40.6421 17.6594 42.4458L7.78004 58.2691C6.46825 55.7686 5.77137 52.981 5.77137 50.1525C5.77137 40.6011 13.4371 32.8534 22.8245 32.8534C32.212 32.8534 39.8777 40.6011 39.8777 50.1525V50.1935V50.2345C39.9597 52.0792 39.3858 53.5549 38.238 54.2928ZM43.6491 50.1525V50.1115V50.0705C43.6081 38.4694 34.2616 29 22.8245 29C11.3464 29 2 38.4694 2 50.1525C2 61.7946 11.3464 71.305 22.8245 71.305C28.1127 71.305 33.1138 69.2963 36.9672 65.6479C37.746 64.91 37.787 63.7212 37.0492 62.9424C36.3523 62.1635 35.1635 62.1225 34.3846 62.8194C34.3846 62.8194 34.3846 62.8194 34.3436 62.8604C31.2281 65.8119 27.0468 67.4926 22.7425 67.4926C17.7004 67.4926 13.1911 65.279 10.0757 61.7536L18.9712 47.4879V54.0878C18.9712 57.2443 20.201 58.2691 21.2258 58.5561C22.2506 58.843 23.8084 58.6381 25.4891 55.9735L30.3673 48.0618C30.5312 47.8159 30.6542 47.5699 30.8182 47.4059V51.4233C30.8182 54.3748 32.007 56.7524 34.0567 57.9002C35.9014 58.966 38.238 58.843 40.1646 57.6542C42.5422 56.0965 43.813 53.3909 43.6491 50.1525ZM72.6722 42.9377C73.1642 43.2246 73.6151 43.9215 73.6151 44.5364C73.6151 45.5203 72.7952 46.3401 71.8524 46.3401C71.6064 46.3401 71.4014 46.2581 71.1965 46.2171C70.0897 45.3973 68.6959 44.8644 67.2201 44.8644C63.7357 44.8644 61.3581 47.6929 61.3581 51.2183C61.3581 54.7437 63.7767 57.5313 67.2201 57.5313C68.9419 57.5313 70.4996 56.8344 71.6474 55.7276C71.9344 55.5226 72.3033 55.3996 72.6722 55.3996C73.6151 55.3996 74.3529 56.1375 74.3529 57.0803C74.3529 57.6952 73.984 58.2281 73.5331 58.5151C71.8524 59.9499 69.5977 60.8927 67.2611 60.8927C61.932 60.8927 57.5867 56.5064 57.5867 51.0953C57.5867 45.6842 61.932 41.298 67.2611 41.298C69.2288 41.257 71.1145 41.8719 72.6722 42.9377ZM82.4286 47.037C86.077 47.037 89.1105 50.1115 89.1105 53.9239C89.1105 57.6952 86.036 60.9337 82.4286 60.9337C78.6162 60.9337 75.4598 57.7362 75.4598 53.9239C75.4598 50.1115 78.6162 47.037 82.4286 47.037ZM82.3876 57.5313C83.9863 57.5313 85.3391 56.0145 85.3391 53.9648C85.3391 51.9152 83.9863 50.6034 82.3876 50.6034C80.6659 50.6034 79.2311 51.8742 79.2311 53.9648C79.2311 55.9735 80.6659 57.5313 82.3876 57.5313ZM91.4061 58.8021V49.1277C91.4061 48.0618 92.226 47.201 93.2918 47.201C94.3166 47.201 95.1775 48.0618 95.1775 49.1277V58.8021C95.1775 59.8679 94.3166 60.7287 93.2918 60.7287C92.267 60.7287 91.4061 59.8269 91.4061 58.8021ZM91.1192 43.5526C91.1192 42.2818 92.103 41.298 93.2918 41.298C94.5216 41.298 95.5054 42.3228 95.5054 43.5526C95.5054 44.7824 94.5216 45.7662 93.2918 45.7662C92.062 45.7252 91.1192 44.7414 91.1192 43.5526ZM102.392 53.5549V58.8021C102.392 59.8679 101.531 60.7287 100.507 60.7287C99.4818 60.7287 98.6209 59.8679 98.6209 58.8021V48.6767C98.6209 47.8569 99.2768 47.201 100.097 47.201C100.917 47.201 101.531 47.8979 101.531 48.6767C103.048 47.242 104.401 47.037 105.672 47.037C109.443 47.037 111.124 49.8655 111.124 53.104V58.8021C111.124 59.8679 110.263 60.7287 109.238 60.7287C108.213 60.7287 107.352 59.8679 107.352 58.8021V53.5549C107.352 51.9152 107.147 50.5214 104.77 50.5214C103.089 50.5214 102.392 51.9152 102.392 53.5549ZM123.34 55.5636C122.889 55.5636 122.602 55.3586 122.356 55.0717L117.97 50.3165V58.8021C117.97 59.8679 117.109 60.7287 116.084 60.7287C115.059 60.7287 114.198 59.8679 114.198 58.8021V41.9948C114.321 41.7079 114.608 41.5029 114.895 41.5029C115.223 41.5029 115.51 41.7899 115.715 41.9948L122.725 49.8655C122.93 50.1115 123.176 50.2345 123.34 50.2345C123.463 50.2345 123.75 50.1115 123.955 49.8655L130.965 41.9948C131.169 41.7899 131.415 41.5029 131.784 41.5029C132.112 41.5029 132.399 41.7079 132.481 41.9948V58.8021C132.481 59.8679 131.661 60.7287 130.596 60.7287C129.571 60.7287 128.71 59.8679 128.71 58.8021V50.3165L124.324 55.0717C123.996 55.3586 123.709 55.5636 123.34 55.5636ZM141.459 57.5313C143.139 57.5313 144.574 56.0145 144.574 53.9648C144.574 51.9152 143.098 50.5624 141.459 50.5624C139.819 50.5624 138.466 51.9562 138.466 53.9648C138.466 55.9325 139.778 57.5313 141.459 57.5313ZM145.476 59.253L145.394 58.8021C144.656 60.2368 142.32 60.8927 140.844 60.8927C137.318 60.8927 134.695 57.6952 134.695 53.8829C134.695 50.1115 137.359 46.996 141.049 46.996C141.664 46.996 143.795 47.16 145.435 49.0867L145.517 48.6357C145.517 47.8159 146.132 47.16 146.952 47.16C147.772 47.16 148.428 47.8569 148.428 48.6357V59.212C148.428 60.0318 147.772 60.6877 146.952 60.6877C146.091 60.7287 145.476 60.0319 145.476 59.253ZM158.799 50.5214H158.389C156.011 50.6444 155.56 51.9972 155.56 53.5549V58.8021C155.56 59.8679 154.7 60.7287 153.675 60.7287C152.65 60.7287 151.789 59.8679 151.789 58.8021V48.6767C151.789 47.8569 152.445 47.201 153.265 47.201C154.085 47.201 154.7 47.8979 154.7 48.6767C156.093 47.3649 157.241 47.078 158.389 47.037H158.758C159.66 47.037 160.48 47.8159 160.48 48.7997C160.521 49.7016 159.701 50.5214 158.799 50.5214ZM173.351 57.9002C173.515 58.1871 173.638 58.4741 173.638 58.8021C173.638 59.7859 172.737 60.6877 171.753 60.6877C171.097 60.6877 170.523 60.1958 170.072 59.6219L165.727 54.5797V58.7611C165.727 59.8269 164.866 60.6877 163.841 60.6877C162.816 60.6877 161.955 59.8269 161.955 58.7611V43.3886C161.955 42.3228 162.775 41.4619 163.841 41.4619C164.907 41.4619 165.727 42.3228 165.727 43.3886V52.981L170.072 48.1848C170.523 47.6929 171.056 47.16 171.712 47.16C172.655 47.16 173.515 48.0208 173.515 49.0047C173.515 49.2916 173.433 49.6196 173.269 49.8655L169.826 53.6369L173.351 57.9002ZM180.73 50.5624C179.705 50.5624 178.025 51.0953 178.025 52.6941H183.477C183.436 51.0953 181.714 50.5624 180.73 50.5624ZM185.649 55.1127H178.025C178.025 57.3673 180.197 57.7362 181.14 57.7362C181.837 57.7362 182.821 57.6132 183.6 57.2443C183.846 57.0803 184.215 56.9574 184.584 56.9574C185.403 56.9574 186.1 57.6542 186.1 58.5151C186.1 59.089 185.731 59.5809 185.28 59.8679C184.133 60.7287 182.616 60.9337 181.181 60.9337C177.369 60.9337 174.212 58.884 174.212 54.0878C174.212 50.3165 176.139 47.037 180.648 47.037C184.297 47.037 187.043 49.4146 187.125 53.6369C187.125 54.4158 186.469 55.1127 185.649 55.1127ZM196.144 60.8927H195.119C192.249 60.8927 190.569 59.6219 190.569 55.1537V50.5214H189.585C188.683 50.5214 187.904 49.7016 187.904 48.7997C187.904 47.8159 188.724 47.037 189.585 47.037H190.569V43.4706C190.569 42.4048 191.388 41.5439 192.454 41.5439C193.479 41.5439 194.34 42.4048 194.34 43.4706V47.037H195.898C196.8 47.037 197.578 47.8159 197.578 48.7997C197.578 49.7016 196.759 50.5214 195.898 50.5214H194.34V54.4158C194.34 56.9983 194.463 57.5313 195.611 57.5313H196.144C197.045 57.5313 197.824 58.2691 197.824 59.212C197.824 60.1138 197.045 60.8927 196.144 60.8927ZM214.386 42.9377C214.878 43.2246 215.328 43.9215 215.328 44.5364C215.328 45.5203 214.509 46.3401 213.566 46.3401C213.32 46.3401 213.115 46.2581 212.91 46.2171C211.803 45.3973 210.409 44.8644 208.934 44.8644C205.449 44.8644 203.071 47.6929 203.071 51.2183C203.071 54.7437 205.49 57.5313 208.934 57.5313C210.655 57.5313 212.213 56.8344 213.361 55.7276C213.648 55.5226 214.017 55.3996 214.386 55.3996C215.328 55.3996 216.066 56.1375 216.066 57.0803C216.066 57.6952 215.697 58.2281 215.246 58.5151C213.566 59.9499 211.311 60.8927 208.975 60.8927C203.645 60.8927 199.3 56.5064 199.3 51.0953C199.3 45.6842 203.645 41.298 208.975 41.298C210.942 41.257 212.869 41.8719 214.386 42.9377ZM223.937 57.5313C225.618 57.5313 227.053 56.0145 227.053 53.9648C227.053 51.9152 225.577 50.5624 223.937 50.5624C222.256 50.5624 220.945 51.9562 220.945 53.9648C220.945 55.9325 222.297 57.5313 223.937 57.5313ZM227.954 59.253L227.872 58.8021C227.135 60.2368 224.798 60.8927 223.322 60.8927C219.797 60.8927 217.173 57.6952 217.173 53.8829C217.173 50.1115 219.838 46.996 223.527 46.996C224.142 46.996 226.274 47.16 227.913 49.0867L227.995 48.6357C227.995 47.8159 228.61 47.16 229.43 47.16C230.25 47.16 230.906 47.8569 230.906 48.6357V59.212C230.906 60.0318 230.25 60.6877 229.43 60.6877C228.569 60.7287 227.954 60.0319 227.954 59.253ZM241.195 57.5313C242.876 57.5313 244.188 55.9325 244.188 53.9648C244.188 51.9152 242.835 50.5624 241.195 50.5624C239.514 50.5624 238.08 51.9152 238.08 53.9648C238.08 56.0145 239.514 57.5313 241.195 57.5313ZM238.08 59.7859V64.5821C238.08 65.6479 237.219 66.5088 236.194 66.5088C235.169 66.5088 234.308 65.6479 234.308 64.5821V48.6767C234.308 47.8569 234.964 47.201 235.784 47.201C236.604 47.201 237.219 47.8979 237.219 48.8407C238.613 47.4059 240.334 47.037 241.646 47.037C245.294 47.037 248 50.1115 248 53.9239C248 57.6952 245.417 60.9337 241.851 60.9337C240.744 60.8927 239.105 60.5648 238.08 59.7859Z" fill="white"/>
</svg>
