<svg width="250" height="100" viewBox="0 0 250 100" fill="none" xmlns="http://www.w3.org/2000/svg">
<path d="M51.4475 40.2184C42.5472 40.2184 35.5929 46.9748 35.5929 56.0196C35.5929 65.0645 42.3715 71.763 51.4475 71.763C60.5234 71.763 67.4199 64.9488 67.4199 55.9618C67.4199 47.0326 60.6413 40.2184 51.4475 40.2184ZM51.5075 65.2446C46.4391 65.2446 42.7251 61.3082 42.7251 56.0219C42.7251 50.6755 46.3791 46.7413 51.4475 46.7413C56.5759 46.7413 60.2877 50.7355 60.2877 56.0219C60.2877 61.3082 56.5759 65.2446 51.5075 65.2446ZM69.3637 47.0927H73.7849V71.1781H80.8571V40.8055H69.3637V47.0927ZM17.7945 46.7391C21.5086 46.7391 24.4553 49.0297 25.5739 52.4368H33.0598C31.7032 45.1534 25.6918 40.2184 17.8546 40.2184C8.95431 40.2184 2 46.9748 2 56.0219C2 65.0689 8.77862 71.7652 17.8546 71.7652C25.5161 71.7652 31.6453 66.8303 33.002 59.4868H25.5739C24.5131 62.8939 21.5664 65.2446 17.8524 65.2446C12.7239 65.2446 9.13001 61.3082 9.13001 56.0219C9.13223 50.6755 12.6683 46.7391 17.7945 46.7391ZM203.74 53.084L198.553 52.3212C196.078 51.9698 194.31 51.1469 194.31 49.2077C194.31 47.0927 196.61 46.0363 199.732 46.0363C203.15 46.0363 205.332 47.5041 205.803 49.9126H212.64C211.873 43.8034 207.158 40.2206 199.91 40.2206C192.424 40.2206 187.474 44.0392 187.474 49.4434C187.474 54.6119 190.716 57.6098 197.257 58.5483L202.443 59.3111C204.978 59.6625 206.393 60.6633 206.393 62.5425C206.393 64.951 203.918 65.9496 200.499 65.9496C196.314 65.9496 193.956 64.246 193.603 61.6618H186.648C187.298 67.5953 191.953 71.7652 200.439 71.7652C208.161 71.7652 213.287 68.2403 213.287 62.1889C213.287 56.7847 209.575 53.9647 203.74 53.084ZM77.321 28.2936C74.7278 28.2936 72.7819 30.1728 72.7819 32.757C72.7819 35.3413 74.7256 37.2205 77.321 37.2205C79.9141 37.2205 81.8601 35.3413 81.8601 32.757C81.8601 30.1728 79.9141 28.2936 77.321 28.2936ZM181.109 51.2048C181.109 44.6263 177.101 40.2206 168.614 40.2206C160.599 40.2206 156.12 44.2749 155.235 50.502H162.249C162.603 48.0934 164.489 46.0963 168.497 46.0963C172.093 46.0963 173.861 47.682 173.861 49.6213C173.861 52.1477 170.618 52.7927 166.611 53.2041C161.189 53.7912 154.47 55.6705 154.47 62.7204C154.47 68.1847 158.538 71.7074 165.021 71.7074C170.089 71.7074 173.271 69.5924 174.864 66.2432C175.099 69.2388 177.339 71.1781 180.464 71.1781H184.589V64.8932H181.111V51.2048H181.109ZM174.154 58.8418C174.154 62.8961 170.618 65.8918 166.315 65.8918C163.662 65.8918 161.422 64.7754 161.422 62.4269C161.422 59.4312 165.018 58.6083 168.319 58.2569C171.501 57.9634 173.269 57.2584 174.154 55.9062V58.8418ZM136.612 40.2184C132.662 40.2184 129.362 41.8641 127.004 44.6241V28H119.932V71.1781H126.886V67.1839C129.244 70.0617 132.604 71.7652 136.612 71.7652C145.098 71.7652 151.523 65.0689 151.523 56.0219C151.523 46.9748 144.98 40.2184 136.612 40.2184ZM135.551 65.2446C130.482 65.2446 126.768 61.3082 126.768 56.0219C126.768 50.7355 130.54 46.7413 135.609 46.7413C140.737 46.7413 144.331 50.6777 144.331 56.0219C144.331 61.3082 140.619 65.2446 135.551 65.2446ZM103.017 40.2184C98.4197 40.2184 95.4129 42.0977 93.6448 44.7419V40.8055H86.6305V71.1759H93.7026V54.6697C93.7026 50.0283 96.6494 46.7391 101.011 46.7391C105.078 46.7391 107.611 49.6169 107.611 53.789V71.1781H114.683V53.2619C114.686 45.6226 110.738 40.2184 103.017 40.2184ZM247 55.0233C247 46.3299 240.635 40.2206 232.088 40.2206C223.012 40.2206 216.352 47.0348 216.352 56.0219C216.352 65.4803 223.484 71.7652 232.206 71.7652C239.574 71.7652 245.35 67.4174 246.822 61.2504H239.454C238.393 63.9525 235.8 65.4803 232.322 65.4803C227.783 65.4803 224.365 62.6604 223.6 57.7254H246.998V55.0233H247ZM224.013 52.6726C225.134 48.4426 228.317 46.3877 231.971 46.3877C235.978 46.3877 239.043 48.6784 239.75 52.6726H224.013Z" fill="white"/>
</svg>
