<svg width="135" height="135" viewBox="0 0 135 135" fill="none" xmlns="http://www.w3.org/2000/svg">
<path d="M53.5576 102.89C53.5576 107.67 49.6678 111.545 44.8687 111.545C40.0618 111.545 36.1721 107.67 36.1721 102.89C36.1721 98.1095 40.0619 94.2349 44.8687 94.2349C49.6678 94.2349 53.5576 98.1095 53.5576 102.89Z" fill="#53FDCA"/>
<path d="M92.8544 32.2882C92.8544 36.7153 89.2521 40.3036 84.8076 40.3036C80.356 40.3036 76.7537 36.7153 76.7537 32.2882C76.7537 27.861 80.356 24.2727 84.8076 24.2727C89.252 24.2727 92.8544 27.861 92.8544 32.2882Z" fill="#53FDCA"/>
<path d="M128.932 40.7167C128.932 44.3292 125.993 47.2571 122.366 47.2571C118.734 47.2571 115.794 44.3292 115.794 40.7167C115.794 37.1043 118.734 34.1764 122.366 34.1764C125.993 34.1764 128.932 37.1043 128.932 40.7167Z" fill="#14FAB5"/>
<path d="M131.5 78.4718C131.5 82.8154 127.966 86.336 123.605 86.336C119.237 86.336 115.703 82.8154 115.703 78.4718C115.703 74.1282 119.237 70.6077 123.605 70.6077C127.966 70.6077 131.5 74.1282 131.5 78.4718Z" fill="#5AE5BB"/>
<path d="M20.8855 52.9434C20.8855 57.7238 16.9957 61.5984 12.1966 61.5984C7.38973 61.5984 3.5 57.7238 3.5 52.9434C3.5 48.163 7.38973 44.2883 12.1966 44.2883C16.9957 44.2883 20.8855 48.163 20.8855 52.9434Z" fill="#53FDCA"/>
<path d="M25.1257 105.899C25.1257 109.937 21.84 113.21 17.7861 113.21C13.7257 113.21 10.4399 109.937 10.4399 105.899C10.4399 101.861 13.7257 98.5881 17.7861 98.5881C21.84 98.5881 25.1257 101.861 25.1257 105.899Z" fill="#14FAB5"/>
<path d="M54.8099 43.1114C54.8099 50.453 48.8535 56.4095 41.5047 56.4095C34.1631 56.4095 28.2068 50.453 28.2068 43.1114C28.2068 35.7626 34.1631 29.8062 41.5047 29.8062C48.8535 29.8062 54.8099 35.7626 54.8099 43.1114Z" fill="#5AE5BB"/>
<path d="M50.4887 52.6963C48.182 54.9899 45.0144 56.4095 41.505 56.4095C37.9956 56.4095 34.828 54.9899 32.5278 52.6963C33.4611 50.2648 35.3472 48.3129 37.7262 47.3074C35.8926 46.0784 34.69 43.9952 34.69 41.6292C34.69 37.8504 37.7393 34.8077 41.505 34.8077C45.2772 34.8077 48.3266 37.8504 48.3266 41.6292C48.3266 43.982 47.1239 46.0784 45.2969 47.2943C47.676 48.3064 49.5621 50.2648 50.4887 52.6963Z" fill="white"/>
<path d="M114.057 60.0997C114.057 65.5602 109.627 69.9904 104.161 69.9904C98.7009 69.9904 94.2708 65.5602 94.2708 60.0997C94.2708 54.6339 98.7009 50.2036 104.161 50.2036C109.627 50.2036 114.057 54.6339 114.057 60.0997Z" fill="#53FDCA"/>
<path d="M110.844 67.2286C109.128 68.9345 106.772 69.9904 104.162 69.9904C101.552 69.9904 99.1957 68.9345 97.4849 67.2286C98.179 65.4201 99.5818 63.9684 101.351 63.2205C99.9875 62.3064 99.093 60.7569 99.093 58.9972C99.093 56.1867 101.361 53.9236 104.162 53.9236C106.968 53.9236 109.236 56.1867 109.236 58.9972C109.236 60.7472 108.341 62.3064 106.982 63.2107C108.752 63.9635 110.155 65.4201 110.844 67.2286Z" fill="white"/>
<path d="M37.8777 77.2839C37.8777 83.6624 32.7026 88.8375 26.3179 88.8375C19.9394 88.8375 14.7644 83.6625 14.7644 77.2839C14.7644 70.8992 19.9394 65.7241 26.3179 65.7241C32.7026 65.7241 37.8777 70.8992 37.8777 77.2839Z" fill="#A3F2DA"/>
<path d="M34.1236 85.6114C32.1194 87.6041 29.3673 88.8375 26.3183 88.8375C23.2693 88.8375 20.5172 87.6041 18.5188 85.6114C19.3296 83.4988 20.9683 81.803 23.0352 80.9294C21.4422 79.8616 20.3973 78.0517 20.3973 75.9961C20.3973 72.713 23.0466 70.0695 26.3183 70.0695C29.5957 70.0695 32.2451 72.713 32.2451 75.9961C32.2451 78.0402 31.2002 79.8616 29.6128 80.918C31.6798 81.7973 33.3185 83.4988 34.1236 85.6114Z" fill="white"/>
<path d="M114.188 101.37C114.188 108.711 108.231 114.668 100.882 114.668C93.5408 114.668 87.5845 108.711 87.5845 101.37C87.5845 94.0209 93.5408 88.0645 100.882 88.0645C108.231 88.0645 114.188 94.0209 114.188 101.37Z" fill="#53FDCA"/>
<path d="M109.866 110.954C107.56 113.248 104.392 114.668 100.883 114.668C97.3733 114.668 94.2057 113.248 91.9055 110.954C92.8388 108.523 94.7249 106.571 97.1039 105.566C95.2703 104.337 94.0677 102.253 94.0677 99.8874C94.0677 96.1086 97.117 93.0659 100.883 93.0659C104.655 93.0659 107.704 96.1086 107.704 99.8874C107.704 102.24 106.502 104.337 104.675 105.552C107.054 106.565 108.94 108.523 109.866 110.954Z" fill="white"/>
<path d="M13.5044 13.1074C12.9521 13.1074 12.5044 12.6597 12.5044 12.1074V9.54932C12.5044 8.99707 12.9521 8.54932 13.5044 8.54932C14.0566 8.54932 14.5044 8.99707 14.5044 9.54932V12.1074C14.5044 12.6597 14.0566 13.1074 13.5044 13.1074ZM13.5044 24.3975C12.9521 24.3975 12.5044 23.9497 12.5044 23.3975V20.8389C12.5044 20.2866 12.9521 19.8389 13.5044 19.8389C14.0566 19.8389 14.5044 20.2866 14.5044 20.8389V23.3975C14.5044 23.9497 14.0566 24.3975 13.5044 24.3975ZM20.4282 17.4731H17.8701C17.3179 17.4731 16.8701 17.0254 16.8701 16.4731C16.8701 15.9209 17.3179 15.4731 17.8701 15.4731H20.4282C20.9805 15.4731 21.4282 15.9209 21.4282 16.4731C21.4282 17.0254 20.9805 17.4731 20.4282 17.4731ZM9.13818 17.4731H6.58008C6.02783 17.4731 5.58008 17.0254 5.58008 16.4731C5.58008 15.9209 6.02783 15.4731 6.58008 15.4731H9.13818C9.69043 15.4731 10.1382 15.9209 10.1382 16.4731C10.1382 17.0254 9.69043 17.4731 9.13818 17.4731ZM16.5913 14.3862C16.3354 14.3862 16.0796 14.2886 15.8843 14.0933C15.4936 13.7026 15.4936 13.0698 15.8843 12.6792L17.6933 10.8701C18.084 10.4795 18.7168 10.4795 19.1074 10.8701C19.498 11.2607 19.498 11.8936 19.1074 12.2842L17.2983 14.0933C17.103 14.2886 16.8472 14.3862 16.5913 14.3862ZM8.60839 22.3691C8.35253 22.3691 8.09667 22.2715 7.90136 22.0762C7.51073 21.6855 7.51073 21.0527 7.90136 20.6621L9.70995 18.8535C10.1006 18.4629 10.7334 18.4629 11.124 18.8535C11.5146 19.2441 11.5146 19.877 11.124 20.2676L9.31542 22.0762C9.12011 22.2715 8.86425 22.3691 8.60839 22.3691ZM18.4004 22.3691C18.1445 22.3691 17.8887 22.2715 17.6934 22.0762L15.8843 20.2676C15.4936 19.8774 15.4936 19.2441 15.8843 18.8535C16.2749 18.4629 16.9077 18.4629 17.2983 18.8535L19.1074 20.6621C19.498 21.0522 19.498 21.6855 19.1074 22.0762C18.9121 22.2715 18.6562 22.3691 18.4004 22.3691ZM10.417 14.3862C10.1611 14.3862 9.90527 14.2886 9.70996 14.0933L7.90137 12.2842C7.51074 11.8935 7.51074 11.2602 7.90137 10.8701C8.29199 10.4795 8.92481 10.4795 9.31543 10.8701L11.124 12.6792C11.5146 13.0698 11.5146 13.7031 11.124 14.0933C10.9287 14.2886 10.6728 14.3862 10.417 14.3862Z" fill="#14FAB5"/>
<path d="M72.1607 115.393C71.6084 115.393 71.1607 114.945 71.1607 114.393V111.887C71.1607 111.335 71.6084 110.887 72.1607 110.887C72.7129 110.887 73.1607 111.335 73.1607 111.887V114.393C73.1607 114.945 72.7129 115.393 72.1607 115.393ZM72.1607 126.451C71.6084 126.451 71.1607 126.003 71.1607 125.451V122.945C71.1607 122.393 71.6084 121.945 72.1607 121.945C72.7129 121.945 73.1607 122.393 73.1607 122.945V125.451C73.1607 126.003 72.7129 126.451 72.1607 126.451ZM78.9424 119.669H76.437C75.8848 119.669 75.437 119.221 75.437 118.669C75.437 118.117 75.8848 117.669 76.437 117.669H78.9424C79.4946 117.669 79.9424 118.117 79.9424 118.669C79.9424 119.221 79.4946 119.669 78.9424 119.669ZM67.8848 119.669H65.3789C64.8267 119.669 64.3789 119.221 64.3789 118.669C64.3789 118.117 64.8267 117.669 65.3789 117.669H67.8848C68.437 117.669 68.8848 118.117 68.8848 118.669C68.8848 119.221 68.437 119.669 67.8848 119.669ZM75.1846 116.646C74.9287 116.646 74.6729 116.548 74.4775 116.353C74.0869 115.962 74.0869 115.329 74.4775 114.938L76.249 113.167C76.6397 112.776 77.2725 112.776 77.6631 113.167C78.0537 113.557 78.0537 114.19 77.6631 114.581L75.8916 116.353C75.6963 116.548 75.4404 116.646 75.1846 116.646ZM67.3652 124.464C67.1094 124.464 66.8535 124.367 66.6582 124.171C66.2676 123.781 66.2676 123.148 66.6582 122.757L68.4302 120.985C68.8208 120.595 69.4536 120.595 69.8442 120.985C70.2349 121.376 70.2349 122.009 69.8442 122.399L68.0723 124.171C67.877 124.367 67.6211 124.464 67.3652 124.464ZM76.9561 124.464C76.7002 124.464 76.4443 124.367 76.249 124.171L74.4775 122.399C74.0869 122.009 74.0869 121.375 74.4775 120.985C74.8682 120.595 75.501 120.595 75.8916 120.985L77.6631 122.757C78.0537 123.148 78.0537 123.781 77.6631 124.171C77.4678 124.367 77.2119 124.464 76.9561 124.464ZM69.1372 116.646C68.8813 116.646 68.6255 116.548 68.4302 116.353L66.6582 114.581C66.2676 114.19 66.2676 113.557 66.6582 113.167C67.0488 112.776 67.6817 112.776 68.0723 113.167L69.8442 114.938C70.2349 115.329 70.2349 115.962 69.8442 116.353C69.6489 116.548 69.3931 116.646 69.1372 116.646Z" fill="#49EDBC"/>
<path d="M117.603 19.7705C114.748 19.7705 112.426 17.4482 112.426 14.5933C112.426 11.7344 114.748 9.40869 117.603 9.40869C120.462 9.40869 122.788 11.7344 122.788 14.5933C122.788 17.4482 120.462 19.7705 117.603 19.7705ZM117.603 11.4087C115.851 11.4087 114.426 12.8374 114.426 14.5933C114.426 16.3452 115.851 17.7705 117.603 17.7705C119.359 17.7705 120.788 16.3452 120.788 14.5933C120.788 12.8374 119.359 11.4087 117.603 11.4087Z" fill="#5AE5BB"/>
<path d="M69.5453 90.9144H62.196C52.2399 90.9144 44.1677 82.8421 44.1677 72.9004C44.1677 67.9296 46.1822 63.4083 49.4429 60.1475C52.7036 56.8868 57.2252 54.8722 62.196 54.8722H69.5454C59.6038 54.8722 51.5316 62.9444 51.5316 72.9004C51.5316 82.8421 59.6037 90.9144 69.5453 90.9144Z" fill="#58CFAB"/>
<path d="M87.5737 72.9004C87.5737 82.8421 79.5016 90.9144 69.5455 90.9144C59.6039 90.9144 51.5317 82.8421 51.5317 72.9004C51.5317 62.9444 59.6039 54.8722 69.5455 54.8722C79.5016 54.8722 87.5737 62.9444 87.5737 72.9004Z" fill="#14FAB5"/>
<path d="M81.7202 85.8819C78.5955 88.9888 74.3046 90.9119 69.5508 90.9119C64.7969 90.9119 60.506 88.9888 57.3901 85.8819C58.6543 82.5881 61.2093 79.9441 64.4319 78.582C61.9481 76.9172 60.319 74.0952 60.319 70.8903C60.319 65.7715 64.4497 61.6498 69.5507 61.6498C74.6607 61.6498 78.7914 65.7715 78.7914 70.8903C78.7914 74.0774 77.1622 76.9172 74.6874 78.5642C77.91 79.9352 80.465 82.5881 81.7202 85.8819Z" fill="white"/>
<path d="M123.605 69.7862C119.36 69.7862 115.806 72.7721 114.92 76.7506L88.5212 73.9366C88.5399 73.5914 88.5737 73.2501 88.5737 72.9005C88.5737 70.6451 88.1588 68.4899 87.4354 66.4811L94.274 64.6368C95.999 68.38 99.7771 70.9904 104.162 70.9904C110.17 70.9904 115.058 66.1046 115.058 60.0997C115.058 57.5245 114.155 55.1588 112.656 53.2921L118.34 47.1779C119.508 47.9142 120.886 48.3473 122.366 48.3473C126.538 48.3473 129.932 44.9533 129.932 40.7814C129.932 36.6095 126.538 33.2155 122.366 33.2155C119.143 33.2155 116.392 35.2418 115.301 38.0831L93.7902 33.3575C93.8294 33.0162 93.8545 32.671 93.8545 32.3199C93.8545 27.3312 89.7959 23.2726 84.8076 23.2726C79.8154 23.2726 75.7539 27.3312 75.7539 32.3199C75.7539 35.6862 77.6074 38.6237 80.3447 40.1813L75.0921 54.7018C73.336 54.1657 71.4747 53.8722 69.5454 53.8722H62.1958C59.5053 53.8722 56.9077 54.4396 54.52 55.4913L51.9663 52.8307C54.3428 50.277 55.8096 46.8659 55.8096 43.1115C55.8096 35.2238 49.3921 28.8063 41.5044 28.8063C33.6206 28.8063 27.2066 35.2238 27.2066 43.1115C27.2066 48.5172 30.2227 53.2296 34.6593 55.6598L30.1389 65.3229C28.933 64.9366 27.6503 64.7242 26.3179 64.7242C24.3274 64.7242 22.4507 65.2028 20.7769 66.0309L17.6303 61.0719C20.196 59.3273 21.8853 56.3854 21.8853 53.0558C21.8853 47.7135 17.5386 43.3668 12.1963 43.3668C6.84961 43.3668 2.5 47.7135 2.5 53.0558C2.5 58.3981 6.84961 62.7448 12.1963 62.7448C13.4937 62.7448 14.7303 62.484 15.8624 62.0192L19.0582 67.0563C15.8607 69.3351 13.7647 73.0656 13.7647 77.2838C13.7647 82.4069 16.8531 86.816 21.2626 88.7657L18.6248 97.9225C18.3489 97.8947 18.0692 97.88 17.7861 97.88C13.1841 97.88 9.43995 101.621 9.43995 106.219C9.43995 110.818 13.1841 114.559 17.7861 114.559C22.3848 114.559 26.126 110.818 26.126 106.219C26.126 102.601 23.8052 99.5221 20.5771 98.3707L23.1562 89.4186C24.1684 89.6823 25.2241 89.8375 26.3179 89.8375C28.5577 89.8375 30.6578 89.2413 32.4807 88.2101L37.7975 96.59C36.1743 98.3229 35.1719 100.643 35.1719 103.198C35.1719 108.541 39.522 112.887 44.8687 112.887C50.2109 112.887 54.5576 108.541 54.5576 103.198C54.5576 100.583 53.5115 98.2106 51.8215 96.466L56.318 90.9757C58.1711 91.5788 60.1438 91.9147 62.1958 91.9147H69.5454C74.5743 91.9147 79.5646 89.8971 83.2644 86.0421L89.6516 92.5455C87.7372 94.9791 86.5845 98.0397 86.5845 101.37C86.5845 109.258 93.0044 115.659 100.87 115.668C100.874 115.668 100.878 115.668 100.882 115.668C100.882 115.668 100.882 115.668 100.883 115.668C100.883 115.668 100.883 115.668 100.883 115.668C108.748 115.668 115.187 109.269 115.187 101.37C115.187 93.4821 108.77 87.0646 100.882 87.0646C97.0466 87.0646 93.5664 88.5919 90.9959 91.0602L84.5734 84.5202C86.4822 82.0612 87.7937 79.1276 88.3094 75.9245L114.706 78.7384C114.737 83.6168 118.716 87.5763 123.605 87.5763C128.51 87.5763 132.5 83.5861 132.5 78.6813C132.5 73.7765 128.51 69.7862 123.605 69.7862ZM4.50001 53.0558C4.50001 48.816 7.95265 45.3668 12.1963 45.3668C16.436 45.3668 19.8853 48.816 19.8853 53.0558C19.8853 57.2955 16.436 60.7447 12.1963 60.7447C7.95265 60.7447 4.50001 57.2955 4.50001 53.0558ZM24.126 106.219C24.126 109.715 21.2817 112.559 17.7861 112.559C14.2866 112.559 11.44 109.715 11.44 106.219C11.44 102.724 14.2866 99.88 17.7861 99.88C21.2817 99.88 24.126 102.724 24.126 106.219ZM93.0991 110.707C93.9976 108.817 95.5698 107.3 97.4932 106.486C97.832 106.343 98.0645 106.026 98.0996 105.661C98.1343 105.295 97.9658 104.94 97.6607 104.735C96.0366 103.647 95.0674 101.835 95.0674 99.8878C95.0674 96.6778 97.6763 94.066 100.883 94.066C104.093 94.066 106.704 96.6778 106.704 99.8878C106.704 101.837 105.738 103.643 104.121 104.72C103.814 104.924 103.645 105.279 103.679 105.646C103.713 106.011 103.945 106.329 104.283 106.473C106.209 107.292 107.78 108.814 108.673 110.704C106.455 112.678 103.671 113.668 100.883 113.668C100.881 113.668 100.88 113.668 100.878 113.668C98.1207 113.668 95.3308 112.696 93.0991 110.707ZM100.882 89.0646C107.667 89.0646 113.187 94.5846 113.187 101.37C113.187 104.418 112.066 107.205 110.222 109.356C109.34 107.721 108.044 106.335 106.47 105.36C107.889 103.917 108.704 101.962 108.704 99.8878C108.704 95.5748 105.195 92.066 100.883 92.066C96.5733 92.066 93.0674 95.5748 93.0674 99.8878C93.0674 101.961 93.8848 103.92 95.3091 105.37C93.7346 106.34 92.437 107.725 91.5514 109.359C89.7067 107.207 88.5845 104.42 88.5845 101.37C88.5845 94.5846 94.1011 89.0646 100.882 89.0646ZM104.162 68.9903C99.2593 68.9903 95.271 65.0021 95.271 60.0997C95.271 55.1945 99.2593 51.2037 104.162 51.2037C109.067 51.2037 113.058 55.1944 113.058 60.0997C113.058 65.0021 109.067 68.9903 104.162 68.9903ZM111.844 52.3815H112.089V52.6471C112.006 52.5592 111.929 52.4664 111.844 52.3815ZM122.366 35.2154C125.435 35.2154 127.932 37.7125 127.932 40.7814C127.932 43.8502 125.435 46.3473 122.366 46.3473C119.294 46.3473 116.794 43.8502 116.794 40.7814C116.794 37.7125 119.294 35.2154 122.366 35.2154ZM77.7539 32.3199C77.7539 28.4342 80.918 25.2726 84.8076 25.2726C88.6934 25.2726 91.8545 28.4342 91.8545 32.3199C91.8545 36.2057 88.6934 39.3668 84.8076 39.3668C80.918 39.3668 77.7539 36.2057 77.7539 32.3199ZM82.184 40.9762C83.0151 41.2281 83.8953 41.3668 84.8076 41.3668C88.7485 41.3668 92.1 38.8292 93.3375 35.3058L114.833 40.0279C114.808 40.276 114.794 40.527 114.794 40.7814C114.794 42.754 115.56 44.547 116.802 45.8951L111.263 51.8531C109.354 50.2067 106.875 49.2037 104.162 49.2037C98.1567 49.2037 93.271 54.0914 93.271 60.0997C93.271 61.0133 93.3965 61.8961 93.6094 62.7448L86.6514 64.6207C84.6456 60.4943 81.21 57.1866 76.9727 55.3834L82.184 40.9762ZM41.5047 55.4098C41.5032 55.4098 41.5018 55.4098 41.5004 55.4098C38.698 55.4062 35.9287 54.4152 33.7217 52.4484C34.6196 50.5597 36.1919 49.0416 38.1152 48.2286C38.4536 48.086 38.6865 47.7687 38.7217 47.4029C38.7564 47.0372 38.5879 46.6818 38.2827 46.4772C36.6592 45.3888 35.69 43.5768 35.69 41.6295C35.69 38.4195 38.2984 35.8077 41.5049 35.8077C44.7149 35.8077 47.3267 38.4195 47.3267 41.6295C47.3267 43.5787 46.3609 45.3854 44.7427 46.462C44.437 46.6656 44.2671 47.0206 44.3013 47.3868C44.335 47.753 44.5674 48.0709 44.9053 48.215C46.8311 49.0338 48.4019 50.5558 49.2959 52.4464C47.0767 54.4198 44.2941 55.4098 41.5047 55.4098ZM29.2066 43.1114C29.2066 36.3263 34.7232 30.8063 41.5044 30.8063C48.2896 30.8063 53.8096 36.3263 53.8096 43.1114C53.8096 46.1593 52.688 48.9459 50.8441 51.0968C49.9618 49.4625 48.6661 48.0763 47.0923 47.1022C48.5122 45.6593 49.3267 43.7047 49.3267 41.6295C49.3267 37.3165 45.8179 33.8077 41.5049 33.8077C37.1958 33.8077 33.6899 37.3165 33.6899 41.6295C33.6899 43.7027 34.5073 45.6612 35.9312 47.1119C34.3563 48.0826 33.0588 49.4669 32.1736 51.1007C30.3289 48.9493 29.2066 46.1612 29.2066 43.1114ZM36.4828 56.4816C38.0822 57.0847 39.7411 57.4074 41.4924 57.4093C41.4965 57.4093 41.5004 57.4098 41.5044 57.4098C41.5045 57.4098 41.5046 57.4098 41.5046 57.4098C41.5047 57.4098 41.5048 57.4098 41.5049 57.4098C44.738 57.4098 47.9222 56.3104 50.5128 54.2047L52.6605 56.4425C46.6528 59.931 43.168 66.1637 43.168 72.9005C43.168 73.6227 43.2171 74.3331 43.296 75.0348L38.7421 75.5382C38.1632 71.4044 35.5729 67.9151 31.9873 66.0914L36.4828 56.4816ZM15.7647 77.2838C15.7647 71.461 20.499 66.7242 26.3179 66.7242C32.1406 66.7242 36.8779 71.461 36.8779 77.2838C36.8779 83.1031 32.1406 87.8375 26.3179 87.8375C20.499 87.8375 15.7647 83.1031 15.7647 77.2838ZM44.8687 110.887C40.6245 110.887 37.1719 107.438 37.1719 103.198C37.1719 98.9586 40.6245 95.5094 44.8687 95.5094C49.1084 95.5094 52.5576 98.9586 52.5576 103.198C52.5576 107.438 49.1084 110.887 44.8687 110.887ZM50.2937 95.1749C48.7446 94.1241 46.8772 93.5094 44.8687 93.5094C42.8065 93.5094 40.8965 94.1608 39.3232 95.2618L34.1384 87.09C36.9602 84.8375 38.7876 81.4 38.8651 77.5362L43.628 77.0094C44.9336 82.9025 48.9807 87.7662 54.3615 90.2086L50.2937 95.1749ZM45.168 72.9005C45.168 63.7533 52.2705 56.522 60.98 55.9147C60.8761 55.9674 60.7772 56.0284 60.6743 56.0831C54.3819 59.4209 50.5317 65.9479 50.5317 72.9005C50.5317 79.9966 54.5483 86.5985 60.9751 89.8712C52.1533 89.2442 45.168 81.8722 45.168 72.9005ZM58.5762 85.6334C59.8086 82.8863 62.0547 80.6725 64.8208 79.503C65.1592 79.36 65.3921 79.0431 65.4273 78.6774C65.4619 78.3116 65.2935 77.9562 64.9888 77.7516C62.6909 76.211 61.3189 73.6461 61.3189 70.8902C61.3189 66.3468 65.0117 62.65 69.5508 62.65C74.0947 62.65 77.7915 66.3468 77.7915 70.8902C77.7915 73.6495 76.4238 76.2071 74.1333 77.732C73.8272 77.9357 73.6577 78.2911 73.6919 78.6568C73.7256 79.0231 73.958 79.3409 74.2959 79.485C77.0654 80.6627 79.3086 82.8819 80.5352 85.6315C77.4133 88.4982 73.5033 89.9122 69.5508 89.9122C65.5456 89.9122 61.6488 88.4623 58.5762 85.6334ZM82.1264 84.3258C80.8954 81.8351 78.9406 79.7501 76.5405 78.3717C78.6001 76.4571 79.7915 73.7613 79.7915 70.8902C79.7915 65.2438 75.1978 60.65 69.5508 60.65C63.9087 60.65 59.3189 65.2438 59.3189 70.8902C59.3189 73.7584 60.5142 76.4601 62.5791 78.3854C60.1773 79.7584 58.2183 81.8419 56.9826 84.3336C54.2277 81.3092 52.5317 77.3043 52.5317 72.9005C52.5317 63.5108 60.1641 55.8722 69.5454 55.8722C78.9351 55.8722 86.5737 63.5108 86.5737 72.9005C86.5737 77.3004 84.8793 81.3024 82.1264 84.3258ZM123.605 85.5763C119.799 85.5763 116.703 82.483 116.703 78.6813C116.703 74.8795 119.799 71.7862 123.605 71.7862C127.407 71.7862 130.5 74.8795 130.5 78.6813C130.5 82.483 127.407 85.5763 123.605 85.5763Z" fill="#2DA380"/>
</svg>
