<svg xmlns="http://www.w3.org/2000/svg" viewBox="0 0 512 512"><path fill="#fff" fill-rule="evenodd" d="M256 168.5c-48.325 0-87.5 39.175-87.5 87.5s39.175 87.5 87.5 87.5 87.5-39.175 87.5-87.5-39.175-87.5-87.5-87.5zm0 29.531c17.062 0 30.894 13.832 30.894 30.894S273.062 259.819 256 259.819c-17.062 0-30.894-13.832-30.894-30.894s13.832-30.894 30.894-30.894zm0 65.47c-25.119 0-46.7 15.167-56.092 36.839-9.647-12.187-15.408-27.59-15.408-44.34 0-39.489 32.012-71.5 71.5-71.5s71.5 32.012 71.5 71.5c0 16.749-5.761 32.152-15.407 44.338-9.389-21.674-30.97-36.837-56.093-36.837zm99.763-95.951-21.143 21.143a104.085 104.085 0 0 0-11.313-11.313l21.143-21.143a70.504 70.504 0 0 0 11.313 11.313zm3.431 80.45h21.683a70.673 70.673 0 0 0-.458 8c0 2.706.159 5.374.458 8h-21.684a104.849 104.849 0 0 0 .001-16zm-24.574 75.308 21.142 21.143a70.463 70.463 0 0 0-11.313 11.313l-21.142-21.143a104.175 104.175 0 0 0 11.313-11.313zM264 359.195v21.683a70.673 70.673 0 0 0-8-.458c-2.706 0-5.374.159-8 .458v-21.683a104.842 104.842 0 0 0 16 0zm-75.308-24.574-21.142 21.142a70.463 70.463 0 0 0-11.313-11.313l21.142-21.142a104.175 104.175 0 0 0 11.313 11.313zM152.805 264h-21.683c.299-2.626.458-5.294.458-8 0-2.706-.159-5.374-.458-8h21.682a104.849 104.849 0 0 0 .001 16zm24.574-75.308-21.142-21.142a70.498 70.498 0 0 0 11.313-11.312l21.142 21.142a104.166 104.166 0 0 0-11.313 11.312zM248 152.805v-21.683c2.626.299 5.294.458 8 .458 2.706 0 5.374-.159 8-.458v21.683a104.888 104.888 0 0 0-16 0zm151.277-94.082c-29.823 0-54 24.176-54 54s24.177 54 54 54 54-24.176 54-54c0-29.823-24.177-54-54-54zM450.42 202c29.823 0 54 24.176 54 54s-24.177 54-54 54-54-24.176-54-54c0-29.823 24.177-54 54-54zm-51.143 143.277c-29.823 0-54 24.176-54 54s24.177 54 54 54 54-24.176 54-54c0-29.823-24.177-54-54-54zM256 396.42c29.823 0 54 24.176 54 54s-24.177 54-54 54-54-24.176-54-54c0-29.823 24.176-54 54-54zm-143.277-51.143c-29.823 0-54 24.176-54 54s24.177 54 54 54 54-24.176 54-54c0-29.823-24.177-54-54-54zM61.58 202c29.823 0 54 24.176 54 54s-24.177 54-54 54-54-24.176-54-54c0-29.823 24.177-54 54-54zm51.143-143.277c-29.823 0-54 24.176-54 54s24.177 54 54 54 54-24.176 54-54c0-29.823-24.177-54-54-54zM256 7.58c29.823 0 54 24.176 54 54s-24.177 54-54 54-54-24.176-54-54c0-29.823 24.176-54 54-54zm162.18 88.956a5.876 5.876 0 0 1-10.836 4.546c-1.096-2.61-3.174-4.116-5.455-4.694a10.357 10.357 0 0 0-4.555-.115c-1.392.28-2.664.839-3.645 1.636-1.102.896-1.801 2.18-1.724 3.765.066 1.358.798 2.305 1.818 2.971 1.703 1.111 4.138 1.743 6.476 2.127 3.771.619 7.902 1.661 11.404 3.775 4.186 2.528 7.346 6.339 8.058 12.209a17 17 0 0 1 .1 1.603c.129 5.431-2.338 9.469-6.046 12.283-2.5 1.896-5.545 3.152-8.622 3.834v1.23a5.878 5.878 0 0 1-11.755 0v-1.351c-2.411-.605-4.704-1.583-6.734-2.936-3.719-2.477-6.569-6.135-7.776-10.977a5.863 5.863 0 0 1 4.293-7.094 5.863 5.863 0 0 1 7.094 4.293c.435 1.745 1.486 3.08 2.863 3.997 1.822 1.213 4.185 1.792 6.598 1.734a16.53 16.53 0 0 0 1.502-.126c2.061-.25 4.084-.878 5.466-1.927.861-.653 1.435-1.544 1.408-2.686a10.088 10.088 0 0 0-.054-.501c-.198-1.636-1.166-2.751-2.456-3.53-1.976-1.193-4.676-1.841-7.225-2.26-3.667-.602-7.663-1.709-10.976-3.872-3.995-2.608-6.865-6.473-7.145-12.247-.277-5.698 2.174-10.265 6.04-13.408 2.041-1.66 4.484-2.886 7.103-3.628v-1.451a5.878 5.878 0 0 1 11.755 0v1.373c5.467 1.505 10.403 5.18 13.026 11.427zm51.143 143.277c-2.623-6.247-7.559-9.921-13.025-11.424v-1.373a5.878 5.878 0 0 0-11.755 0v1.451c-2.619.742-5.062 1.968-7.103 3.628-3.866 3.143-6.317 7.71-6.04 13.408.28 5.774 3.15 9.639 7.145 12.247 3.313 2.163 7.31 3.27 10.976 3.872 2.549.418 5.249 1.067 7.225 2.26 1.291.779 2.258 1.894 2.456 3.53.035.292.053.457.054.501.027 1.142-.547 2.033-1.408 2.686-1.382 1.048-3.405 1.676-5.466 1.927a16.53 16.53 0 0 1-1.502.126c-2.414.058-4.776-.521-6.598-1.734-1.377-.917-2.428-2.252-2.863-3.997a5.863 5.863 0 1 0-11.387 2.801c1.207 4.842 4.057 8.499 7.776 10.977 2.031 1.352 4.323 2.331 6.735 2.936v1.351a5.878 5.878 0 0 0 11.755 0v-1.23c3.077-.682 6.122-1.938 8.622-3.835 3.708-2.814 6.174-6.852 6.046-12.283a17 17 0 0 0-.1-1.603c-.712-5.871-3.872-9.681-8.058-12.209-3.502-2.114-7.633-3.156-11.404-3.775-2.339-.384-4.773-1.016-6.476-2.127-1.021-.666-1.753-1.613-1.818-2.971-.077-1.585.622-2.87 1.724-3.765.981-.797 2.252-1.356 3.645-1.636a10.356 10.356 0 0 1 4.555.115c2.281.578 4.359 2.084 5.455 4.694a5.875 5.875 0 1 0 10.834-4.548zM418.18 383.09a5.876 5.876 0 0 1-10.836 4.546c-1.096-2.61-3.174-4.116-5.455-4.694a10.357 10.357 0 0 0-4.555-.115c-1.392.28-2.664.839-3.645 1.636-1.102.895-1.801 2.18-1.724 3.765.066 1.358.798 2.305 1.818 2.971 1.703 1.112 4.138 1.743 6.476 2.127 3.771.619 7.902 1.661 11.404 3.775 4.186 2.528 7.346 6.339 8.058 12.209a17 17 0 0 1 .1 1.603c.129 5.431-2.338 9.469-6.046 12.283-2.5 1.896-5.545 3.152-8.622 3.834v1.231a5.878 5.878 0 0 1-11.755 0v-1.351c-2.411-.605-4.704-1.584-6.734-2.936-3.719-2.477-6.569-6.135-7.776-10.977a5.863 5.863 0 1 1 11.387-2.801c.435 1.746 1.486 3.08 2.863 3.997 1.822 1.213 4.185 1.792 6.598 1.734a16.53 16.53 0 0 0 1.502-.126c2.061-.25 4.084-.878 5.466-1.927.861-.653 1.435-1.544 1.408-2.686a10.088 10.088 0 0 0-.054-.501c-.198-1.637-1.166-2.751-2.456-3.53-1.976-1.193-4.676-1.841-7.225-2.26-3.667-.602-7.663-1.709-10.976-3.872-3.995-2.608-6.865-6.473-7.145-12.247-.277-5.698 2.174-10.265 6.04-13.408 2.041-1.66 4.484-2.886 7.103-3.628v-1.451a5.878 5.878 0 0 1 11.755 0v1.373c5.467 1.504 10.403 5.179 13.026 11.426zm-143.277 51.143c-2.623-6.247-7.559-9.922-13.025-11.424v-1.373a5.878 5.878 0 0 0-11.755 0v1.451c-2.619.742-5.062 1.968-7.103 3.628-3.866 3.143-6.317 7.71-6.04 13.408.28 5.774 3.15 9.639 7.145 12.247 3.313 2.163 7.31 3.27 10.976 3.872 2.55.418 5.249 1.067 7.225 2.26 1.291.779 2.258 1.894 2.456 3.53.035.292.053.457.054.501.027 1.142-.547 2.033-1.408 2.686-1.382 1.049-3.405 1.676-5.466 1.927a16.53 16.53 0 0 1-1.502.126c-2.414.058-4.776-.521-6.598-1.734-1.377-.917-2.428-2.252-2.863-3.997a5.862 5.862 0 0 0-7.094-4.293 5.862 5.862 0 0 0-4.293 7.094c1.207 4.842 4.057 8.499 7.776 10.977 2.031 1.352 4.323 2.331 6.735 2.935v1.351a5.878 5.878 0 0 0 11.755 0v-1.23c3.077-.682 6.122-1.938 8.622-3.834 3.708-2.814 6.174-6.852 6.046-12.283a17 17 0 0 0-.1-1.603c-.712-5.871-3.872-9.681-8.058-12.209-3.502-2.114-7.633-3.156-11.404-3.775-2.339-.384-4.774-1.016-6.476-2.127-1.021-.666-1.753-1.613-1.818-2.971-.077-1.585.622-2.869 1.724-3.765.981-.797 2.252-1.355 3.645-1.636a10.356 10.356 0 0 1 4.555.115c2.281.578 4.359 2.084 5.455 4.694a5.876 5.876 0 0 0 7.691 3.145 5.88 5.88 0 0 0 3.143-7.693zM131.626 383.09a5.876 5.876 0 0 1-10.836 4.546c-1.096-2.61-3.174-4.116-5.455-4.694a10.357 10.357 0 0 0-4.555-.115c-1.392.28-2.664.839-3.645 1.636-1.102.895-1.801 2.18-1.724 3.765.066 1.358.798 2.305 1.818 2.971 1.703 1.112 4.138 1.743 6.476 2.127 3.771.619 7.902 1.661 11.404 3.775 4.187 2.528 7.346 6.339 8.058 12.209a17 17 0 0 1 .1 1.603c.129 5.431-2.337 9.469-6.046 12.283-2.5 1.896-5.545 3.152-8.622 3.834v1.231a5.878 5.878 0 0 1-11.755 0v-1.351c-2.411-.605-4.704-1.584-6.735-2.936-3.719-2.477-6.569-6.135-7.776-10.977a5.863 5.863 0 0 1 11.387-2.801c.435 1.746 1.486 3.08 2.863 3.997 1.822 1.213 4.185 1.792 6.598 1.734a16.53 16.53 0 0 0 1.502-.126c2.061-.25 4.084-.878 5.466-1.927.861-.653 1.435-1.544 1.408-2.686a10.088 10.088 0 0 0-.054-.501c-.198-1.637-1.166-2.751-2.456-3.53-1.975-1.193-4.675-1.841-7.225-2.26-3.667-.602-7.663-1.709-10.976-3.872-3.995-2.608-6.865-6.473-7.145-12.247-.277-5.698 2.174-10.265 6.04-13.408 2.041-1.66 4.484-2.886 7.103-3.628v-1.451a5.878 5.878 0 0 1 11.755 0v1.373c5.468 1.504 10.404 5.179 13.027 11.426zM80.483 239.813c-2.623-6.247-7.559-9.921-13.025-11.424v-1.373a5.878 5.878 0 0 0-11.755 0v1.451c-2.619.742-5.062 1.968-7.103 3.628-3.866 3.143-6.317 7.71-6.04 13.408.28 5.774 3.15 9.639 7.145 12.247 3.313 2.163 7.31 3.27 10.976 3.872 2.549.418 5.249 1.067 7.225 2.26 1.291.779 2.258 1.894 2.456 3.53.035.292.053.457.054.501.027 1.142-.547 2.033-1.408 2.686-1.382 1.048-3.405 1.676-5.466 1.927a16.53 16.53 0 0 1-1.502.126c-2.414.058-4.776-.521-6.598-1.734-1.377-.917-2.428-2.252-2.863-3.997a5.863 5.863 0 1 0-11.387 2.801c1.207 4.842 4.057 8.499 7.776 10.977 2.03 1.352 4.323 2.331 6.735 2.936v1.351a5.878 5.878 0 0 0 11.755 0v-1.23c3.077-.682 6.123-1.938 8.622-3.835 3.708-2.814 6.174-6.852 6.046-12.283a17.344 17.344 0 0 0-.1-1.603c-.712-5.871-3.872-9.681-8.058-12.209-3.502-2.114-7.633-3.156-11.404-3.775-2.339-.384-4.774-1.016-6.476-2.127-1.021-.666-1.753-1.613-1.818-2.971-.077-1.585.622-2.87 1.724-3.765.981-.797 2.252-1.356 3.645-1.636a10.356 10.356 0 0 1 4.555.115c2.281.578 4.359 2.084 5.455 4.694a5.875 5.875 0 1 0 10.834-4.548zm51.143-143.277a5.876 5.876 0 0 1-10.836 4.546c-1.096-2.61-3.174-4.116-5.455-4.694a10.357 10.357 0 0 0-4.555-.115c-1.392.28-2.664.839-3.645 1.636-1.102.896-1.801 2.18-1.724 3.765.066 1.358.798 2.305 1.818 2.971 1.703 1.111 4.138 1.743 6.476 2.127 3.771.619 7.902 1.661 11.404 3.775 4.187 2.528 7.346 6.339 8.058 12.209a17 17 0 0 1 .1 1.603c.129 5.431-2.337 9.469-6.046 12.283-2.5 1.896-5.545 3.152-8.622 3.834v1.23a5.878 5.878 0 0 1-11.755 0v-1.351c-2.411-.605-4.704-1.583-6.735-2.936-3.719-2.477-6.569-6.135-7.776-10.977a5.863 5.863 0 0 1 11.387-2.801c.435 1.745 1.486 3.08 2.863 3.997 1.822 1.213 4.185 1.792 6.598 1.734a16.53 16.53 0 0 0 1.502-.126c2.061-.25 4.084-.878 5.466-1.927.861-.653 1.435-1.544 1.408-2.686a10.088 10.088 0 0 0-.054-.501c-.198-1.636-1.166-2.751-2.456-3.53-1.975-1.193-4.675-1.841-7.225-2.26-3.667-.602-7.663-1.709-10.976-3.872-3.995-2.608-6.865-6.473-7.145-12.247-.277-5.698 2.174-10.265 6.04-13.408 2.041-1.66 4.484-2.886 7.103-3.628v-1.451a5.878 5.878 0 0 1 11.755 0v1.373c5.468 1.505 10.404 5.18 13.027 11.427zm143.277-51.143c-2.623-6.247-7.559-9.922-13.025-11.424v-1.373a5.878 5.878 0 0 0-11.755 0v1.451c-2.619.742-5.062 1.968-7.103 3.628-3.866 3.143-6.317 7.71-6.04 13.408.28 5.774 3.15 9.639 7.145 12.247 3.313 2.163 7.31 3.27 10.976 3.872 2.55.418 5.249 1.067 7.225 2.26 1.291.779 2.258 1.894 2.456 3.53.035.292.053.457.054.501.027 1.142-.547 2.033-1.408 2.686-1.382 1.049-3.405 1.676-5.466 1.927a16.53 16.53 0 0 1-1.502.126c-2.414.058-4.776-.521-6.598-1.734-1.377-.917-2.428-2.251-2.863-3.997a5.862 5.862 0 0 0-7.094-4.293 5.862 5.862 0 0 0-4.293 7.094c1.207 4.842 4.057 8.499 7.776 10.977 2.031 1.352 4.323 2.331 6.735 2.936v1.351a5.878 5.878 0 0 0 11.755 0v-1.231c3.077-.682 6.122-1.938 8.622-3.834 3.708-2.814 6.174-6.852 6.046-12.283a17 17 0 0 0-.1-1.603c-.712-5.87-3.872-9.681-8.058-12.209-3.502-2.114-7.633-3.156-11.404-3.775-2.339-.384-4.774-1.016-6.476-2.127-1.021-.666-1.753-1.613-1.818-2.971-.077-1.585.622-2.869 1.724-3.765.981-.797 2.252-1.356 3.645-1.636a10.356 10.356 0 0 1 4.555.115c2.281.578 4.359 2.084 5.455 4.694a5.875 5.875 0 1 0 10.834-4.548z" class="color000000 svgShape" clip-rule="evenodd"/></svg>