<svg width="250" height="100" viewBox="0 0 250 100" fill="none" xmlns="http://www.w3.org/2000/svg">
<path d="M25.3758 26L5 37.76V61.28L25.3758 73.04L45.7517 61.28V37.76L25.3758 26Z" stroke="white" stroke-width="2"/>
<path d="M33.42 64.3525H33.7099L33.854 64.1009L41.1223 51.4017L41.3409 51.0198L40.9898 50.7544L35.6406 46.7119L35.3603 46.5001L35.066 46.692L30.3702 49.7545L30.1433 49.9025V50.1733V55.3902L29.8744 55.6469L29.8344 55.2297L29.3554 50.2406L31.0298 45.7756L31.2832 45.1H30.5617H20.19H19.4625L19.7232 45.7792L21.4361 50.2407L20.9177 55.2258L20.8816 55.5731L20.69 55.3902V50.1733V49.8992L20.4589 49.7518L15.7222 46.7301L15.4318 46.5449L15.1553 46.7502L9.76528 50.7519L9.40852 51.0167L9.62964 51.4022L16.9388 64.1422L17.0829 64.3933H17.3725H20.3125H20.509L20.6529 64.2596L24.1237 61.0338L24.2833 60.8854V60.6675V59.0342V58.8202L24.1286 58.6725L21.0957 55.7775H21.415H25.335H29.3367H29.7376L26.7048 58.6725L26.55 58.8202V59.0342V60.6675V60.8873L26.7119 61.0359L30.1828 64.2209L30.3262 64.3525H30.5208H33.42ZM17.3317 35.6675H16.9336L16.8444 36.0554L14.9661 44.2221L14.8253 44.8342H15.4533H35.2983H35.9295L35.7851 44.2198L33.8659 36.0531L33.7753 35.6675H33.3792H25.3554H17.3317ZM5.5 38.0487L25.3758 26.5773L45.2517 38.0487V60.9913L25.3758 72.4627L5.5 60.9913V38.0487Z" stroke="white"/>
<path d="M68.6183 60.4225C63.2283 60.4225 59.2675 56.2167 59.2675 51.0308C59.2675 45.845 63.2691 41.5167 68.6591 41.5167C72.0891 41.5167 74.2125 42.7825 75.8866 44.62L73.3141 47.3967C72.0483 46.0492 70.7008 45.1508 68.6183 45.1508C65.5966 45.1508 63.3916 47.7642 63.3916 50.9492C63.3916 54.2158 65.6375 56.8292 68.8225 56.8292C70.7825 56.8292 72.2116 55.89 73.5183 54.5833L76.0091 57.0742C74.2125 58.9933 72.13 60.4225 68.6183 60.4225Z" fill="white"/>
<path d="M83.89 60.4225H79.725V41.5575H83.89V45.9675C85.0333 43.2725 87.1158 41.3942 90.3008 41.5575V45.9675H90.0558C86.4216 45.9675 83.89 48.3358 83.89 53.1542V60.4225Z" fill="white"/>
<path d="M112.065 41.4758L102.877 65.4858H98.6716L100.672 60.4225L92.7916 41.4758H97.2425L102.592 55.4817L107.737 41.4758H112.065Z" fill="white"/>
<path d="M124.315 45.11C121.498 45.11 119.048 47.3967 119.048 50.9492C119.048 54.5017 121.538 56.7883 124.315 56.7883C127.173 56.7883 129.501 54.5425 129.501 50.9492C129.501 47.3558 127.133 45.11 124.315 45.11ZM125.254 60.3817C122.273 60.3817 120.395 58.8708 119.129 57.1967V65.4858H114.964V41.4758H119.129V44.865C120.477 42.9867 122.355 41.4758 125.254 41.4758C129.542 41.4758 133.707 44.865 133.707 50.9083C133.707 56.9517 129.583 60.3817 125.254 60.3817Z" fill="white"/>
<path d="M142.813 45.4367V54.3384C142.813 55.9309 143.629 56.5842 145.058 56.5842H146.692V60.3H143.833C140.812 60.3 138.648 58.9525 138.648 54.9917V45.4367H136.361V41.8842H138.648V36.9025H142.813V41.8842H146.692V45.4367H142.813Z" fill="white"/>
<path d="M159.799 45.11C156.451 45.11 154.328 47.7233 154.328 50.9083C154.328 54.1342 156.614 56.7883 159.84 56.7883C163.188 56.7883 165.312 54.175 165.312 50.99C165.393 47.7642 163.066 45.11 159.799 45.11ZM159.799 60.4225C154.287 60.4225 150.203 56.2167 150.203 51.0308C150.203 45.8042 154.328 41.5167 159.881 41.5167C165.434 41.5167 169.518 45.7225 169.518 50.9492C169.518 56.0942 165.434 60.4225 159.799 60.4225Z" fill="white"/>
<path d="M209.248 45.11C205.9 45.11 203.777 47.7233 203.777 50.9083C203.777 54.1342 206.063 56.7883 209.289 56.7883C212.637 56.7883 214.761 54.175 214.761 50.99C214.802 47.7642 212.515 45.11 209.248 45.11ZM209.248 60.4225C203.736 60.4225 199.652 56.2167 199.652 51.0308C199.652 45.8042 203.777 41.5167 209.33 41.5167C214.883 41.5167 218.967 45.7225 218.967 50.9492C218.967 56.0942 214.842 60.4225 209.248 60.4225Z" fill="white"/>
<path d="M243.63 41.4758C247.591 41.4758 250 43.9667 250 48.4175V60.3817H245.835V49.6833C245.835 46.7842 244.487 45.2733 242.16 45.2733C239.914 45.2733 238.281 46.8658 238.281 49.765V60.4225H234.116V49.6833C234.116 46.8658 232.727 45.2733 230.441 45.2733C228.154 45.2733 226.562 46.9883 226.562 49.8058V60.4225H222.397V41.5167H226.562V44.62C227.746 43.0275 229.297 41.5167 232.074 41.5167C234.687 41.5167 236.484 42.7825 237.464 44.7017C238.975 42.7417 240.894 41.4758 243.63 41.4758Z" fill="white"/>
<path d="M177.153 56.5842V58.7075L177.031 58.9117L175.193 59.9325H174.948L173.152 58.9117L173.029 58.7075V56.5842L173.152 56.38L174.948 55.3592H175.193L177.031 56.38L177.153 56.5842Z" fill="white"/>
<path d="M189.771 60.3817C184.381 60.2592 180.502 55.9717 180.583 50.7858C180.665 45.6 184.748 41.3534 190.179 41.4759C193.609 41.5575 195.732 42.8642 197.366 44.7425L194.752 47.4783C193.527 46.1308 192.18 45.1508 190.097 45.11C187.076 45.0692 184.83 47.6009 184.789 50.8267C184.707 54.0934 186.912 56.7475 190.097 56.7884C192.057 56.8292 193.527 55.9308 194.834 54.6242L197.284 57.1559C195.447 59.075 193.323 60.4634 189.771 60.3817Z" fill="white"/>
</svg>
