<svg width="100" height="100" viewBox="0 0 100 100" fill="none" xmlns="http://www.w3.org/2000/svg">
<g clip-path="url(#clip0_1649_306568)">
<path d="M80 0H20C8.9543 0 0 8.9543 0 20V80C0 91.0457 8.9543 100 20 100H80C91.0457 100 100 91.0457 100 80V20C100 8.9543 91.0457 0 80 0Z" fill="url(#paint0_linear_1649_306568)"/>
<path d="M44.2215 28.0007C43.9655 28.0026 43.7025 28.006 43.6368 28.0085C43.5712 28.0112 43.3527 28.0243 43.1515 28.0378C42.9502 28.0515 42.6818 28.0731 42.5548 28.086C42.428 28.0987 42.1774 28.1277 41.9979 28.15C41.8184 28.1724 41.5036 28.2185 41.2978 28.2526C41.0922 28.2865 40.7842 28.3428 40.6136 28.3775C40.4431 28.4122 40.2211 28.4594 40.1204 28.4825C40.0198 28.5057 39.8372 28.5496 39.7146 28.5802C39.5921 28.6108 39.3552 28.6744 39.1883 28.7215C39.0214 28.7687 38.7571 28.8475 38.6012 28.8967C38.4453 28.9457 38.1614 29.0426 37.9705 29.1116C37.7794 29.1808 37.4924 29.2906 37.3324 29.3557C37.1724 29.4206 36.9485 29.5148 36.8347 29.5648C36.721 29.6147 36.4489 29.7438 36.2301 29.8515C36.0113 29.9592 35.7321 30.1024 35.6096 30.1697C35.4871 30.2372 35.2506 30.3731 35.084 30.4717C34.9176 30.5705 34.6383 30.747 34.4635 30.8639C34.2888 30.9809 34.0435 31.1513 33.9185 31.2424C33.7935 31.3338 33.5643 31.5099 33.4094 31.6338C33.2542 31.7579 33.0558 31.922 32.9683 31.9985C32.8808 32.0751 32.6773 32.2604 32.5161 32.4105C32.3549 32.5605 32.1087 32.8048 31.9691 32.9531C31.8294 33.1013 31.6216 33.3304 31.5074 33.4622C31.393 33.5939 31.2178 33.804 31.1182 33.929C31.0184 34.0541 30.8471 34.2796 30.7371 34.4303C30.6273 34.5809 30.4498 34.8365 30.3427 34.9985C30.2356 35.1603 30.073 35.418 29.9812 35.5712C29.8894 35.7243 29.7514 35.9643 29.6746 36.1043C29.5977 36.2443 29.455 36.5199 29.3575 36.7169C29.26 36.9137 29.1185 37.2146 29.0431 37.3853C28.9677 37.556 28.856 37.8209 28.7949 37.974C28.7338 38.1271 28.6372 38.3812 28.5804 38.5387C28.5236 38.6962 28.4291 38.9717 28.3703 39.1512C28.3118 39.3305 28.2291 39.6241 28.1866 39.8036C28.1442 39.9829 28.0736 40.2979 28.0297 40.5037C27.9858 40.7094 27.921 41.0351 27.8859 41.2276C27.8507 41.4202 27.8004 41.7137 27.7742 41.88C27.7479 42.0463 27.7084 42.3218 27.6866 42.4926C27.6647 42.6631 27.6322 42.9423 27.6146 43.1131C27.5971 43.2837 27.5715 43.5809 27.5579 43.7734C27.5444 43.9659 27.5291 44.399 27.524 44.736C27.5183 45.1091 27.5218 45.501 27.533 45.7384C27.543 45.9528 27.5621 46.2678 27.5753 46.4385C27.5883 46.6091 27.6136 46.8883 27.6315 47.059C27.6493 47.2296 27.6954 47.6449 27.7339 47.9819C27.7726 48.3187 27.8167 48.7269 27.8319 48.8888C27.8518 49.1022 27.8597 49.3407 27.8603 49.756C27.8606 50.1286 27.8537 50.3899 27.8402 50.5038C27.8289 50.6001 27.7989 50.783 27.7734 50.9103C27.7479 51.0376 27.7012 51.2273 27.6697 51.3319C27.638 51.4365 27.5756 51.6152 27.5309 51.7289C27.4862 51.8427 27.3987 52.036 27.3363 52.1585C27.2738 52.281 27.1678 52.4693 27.1008 52.5768C27.0337 52.6844 26.9083 52.8674 26.8219 52.9832C26.7355 53.0992 26.5979 53.2725 26.5159 53.3684C26.434 53.4644 26.2413 53.6683 26.0876 53.8217C25.9341 53.9752 25.7153 54.1821 25.6015 54.2815C25.4877 54.3808 25.3016 54.5383 25.1878 54.6316C25.074 54.7246 24.777 54.9612 24.5275 55.1571C24.2781 55.353 24.0132 55.5638 23.9388 55.6257C23.8643 55.6874 23.734 55.801 23.649 55.8779C23.564 55.9549 23.4377 56.086 23.3682 56.1692C23.2988 56.2524 23.2167 56.3686 23.186 56.4273C23.1553 56.486 23.1118 56.602 23.0894 56.6852C23.067 56.7683 23.0377 56.9 23.0243 56.9776C23.011 57.0555 23 57.2068 23 57.314C23 57.4248 23.0108 57.5665 23.0251 57.6421C23.0388 57.7153 23.0711 57.8276 23.0967 57.8916C23.1222 57.9557 23.1761 58.0591 23.2166 58.1215C23.2568 58.1839 23.3338 58.2811 23.3876 58.3376C23.4414 58.3941 23.5402 58.4811 23.6072 58.5312C23.6742 58.5812 23.8065 58.6619 23.9015 58.7104C23.9964 58.7589 24.1283 58.8202 24.1945 58.8464C24.2606 58.8727 24.3932 58.9196 24.4888 58.9505C24.5844 58.9813 24.7881 59.0394 24.9412 59.0795C25.0944 59.1196 25.289 59.1742 25.3736 59.2009C25.4783 59.234 25.547 59.2663 25.5883 59.302L25.6489 59.3543L25.5964 59.5911C25.5674 59.7212 25.5089 59.9567 25.4659 60.1144C25.4231 60.2722 25.344 60.53 25.2902 60.6872C25.2365 60.8445 25.151 61.0664 25.1004 61.1801C25.0498 61.2939 24.9642 61.4657 24.9103 61.562C24.8562 61.6582 24.7973 61.78 24.7793 61.8325C24.7523 61.9119 24.748 61.9547 24.7543 62.087C24.7604 62.2121 24.7723 62.274 24.81 62.3758C24.8366 62.4471 24.8848 62.551 24.9174 62.6065C24.9499 62.6621 25.011 62.7509 25.053 62.8037C25.0952 62.8565 25.1876 62.9553 25.2587 63.0233C25.3297 63.091 25.4501 63.1871 25.5262 63.2368C25.6021 63.2863 25.7262 63.3536 25.8016 63.386C25.8772 63.4186 25.9847 63.4543 26.0408 63.4654C26.0966 63.4764 26.1453 63.4875 26.1488 63.4899C26.1522 63.4926 26.1049 63.5408 26.0438 63.5975C25.9825 63.6541 25.8926 63.7491 25.8441 63.8086C25.7954 63.8681 25.7225 63.9704 25.682 64.0361C25.6416 64.1017 25.5906 64.2113 25.5692 64.2796C25.5424 64.3639 25.5299 64.4405 25.53 64.5183C25.53 64.5813 25.5373 64.6587 25.5461 64.6906C25.5564 64.7275 25.5951 64.7802 25.6533 64.8363C25.7036 64.8845 25.8234 64.9883 25.9197 65.0666C26.0159 65.145 26.1558 65.2728 26.2306 65.3506C26.3053 65.4284 26.3957 65.535 26.4312 65.5875C26.4668 65.64 26.512 65.7146 26.5318 65.7534C26.5515 65.7923 26.5847 65.8696 26.6058 65.9253C26.6267 65.9808 26.6543 66.0887 26.6672 66.1649C26.6799 66.2411 26.7015 66.5541 26.7152 66.8604C26.7287 67.1667 26.7505 67.5533 26.7636 67.7196C26.7766 67.8858 26.7981 68.1113 26.8113 68.2208C26.8245 68.3301 26.8532 68.5271 26.875 68.6584C26.8969 68.7896 26.9399 69.0008 26.9704 69.1278C27.0011 69.2546 27.0551 69.4463 27.0902 69.5539C27.1256 69.6613 27.1795 69.8082 27.2102 69.8801C27.2409 69.952 27.2974 70.0681 27.3356 70.1382C27.3738 70.2082 27.4403 70.3156 27.4836 70.3768C27.5267 70.4381 27.597 70.527 27.6398 70.5746C27.6826 70.6222 27.7681 70.7011 27.8295 70.7501C27.891 70.7989 27.9988 70.8689 28.0689 70.9054C28.1391 70.942 28.2607 70.991 28.3389 71.0144C28.463 71.0516 28.5176 71.0581 28.7649 71.065C28.9208 71.0694 29.1964 71.0647 29.3774 71.0543C29.5583 71.0441 29.8748 71.0217 30.0804 71.0047C30.286 70.9875 30.5582 70.9625 30.685 70.9493C30.812 70.9359 31.0696 70.9071 31.2578 70.8852C31.446 70.8632 31.736 70.8272 31.9022 70.8053C32.0685 70.7833 32.3728 70.7404 32.5784 70.7097C32.7841 70.6789 33.1456 70.6218 33.3819 70.5827C33.6182 70.5434 34.0228 70.4723 34.2808 70.4247C34.5391 70.3769 34.9257 70.3023 35.14 70.2587C35.3545 70.2153 35.7089 70.1402 35.9277 70.092C36.1464 70.0438 36.4651 69.9715 36.6357 69.9313C36.8064 69.8912 37.1751 69.801 37.4551 69.7308C37.7352 69.6608 38.1218 69.5602 38.3143 69.5077C38.5069 69.4551 38.8649 69.3545 39.1099 69.2842C39.3549 69.2138 39.7737 69.0886 40.0407 69.006C40.3077 68.9233 40.7373 68.785 40.9953 68.699C41.2534 68.6129 41.6259 68.4853 41.8227 68.4153C42.0197 68.3454 42.3652 68.2191 42.5906 68.1346C42.8161 68.0501 43.1955 67.9032 43.4339 67.8082C43.6723 67.7134 43.9962 67.5818 44.1537 67.5161C44.3112 67.4504 44.5833 67.3341 44.7583 67.2577C44.9334 67.1813 45.2484 67.0405 45.4584 66.9448C45.6685 66.849 46.1679 66.6087 46.5682 66.4108C46.9686 66.213 47.2959 66.0471 47.2955 66.0422C47.2952 66.037 47.1719 65.9472 47.0217 65.8422C46.8715 65.7371 46.5334 65.49 46.2704 65.2932C46.0074 65.0963 45.6669 64.8355 45.5138 64.7136C45.3609 64.5917 45.0902 64.371 44.9121 64.2231C44.7342 64.0753 44.4478 63.8309 44.2756 63.6802C44.1036 63.5293 43.8268 63.2816 43.6605 63.1297C43.4943 62.9776 43.1036 62.5986 42.7926 62.2872C42.4815 61.976 42.1117 61.5923 41.9707 61.4348C41.8298 61.2773 41.6377 61.0588 41.544 60.9495C41.4503 60.8401 41.2614 60.6109 41.1241 60.4404C40.9869 60.2698 40.767 59.9869 40.6356 59.8119C40.504 59.6368 40.3017 59.3592 40.1858 59.1948C40.07 59.0306 39.8803 58.7514 39.7642 58.5743C39.6482 58.3973 39.4847 58.1417 39.4006 58.0059C39.3168 57.8702 39.1771 57.6376 39.0902 57.4888C39.0033 57.3401 38.8784 57.1216 38.8125 57.0036C38.7467 56.8854 38.6318 56.6742 38.5572 56.5342C38.4825 56.3942 38.3605 56.1574 38.2859 56.0082C38.2113 55.8589 38.0751 55.576 37.9834 55.3796C37.8917 55.1833 37.7595 54.8901 37.6897 54.7282C37.6198 54.5663 37.5145 54.3157 37.4555 54.1713C37.3964 54.0269 37.2889 53.7513 37.2162 53.5588C37.1436 53.3663 37.0294 53.0512 36.9624 52.8587C36.8952 52.6662 36.7808 52.3154 36.7078 52.0791C36.6349 51.8428 36.5388 51.5196 36.4943 51.3611C36.4499 51.2025 36.3746 50.9196 36.3272 50.7326C36.2798 50.5455 36.2049 50.2313 36.1608 50.0345C36.1167 49.8375 36.0551 49.5487 36.0241 49.3926C35.9929 49.2363 35.939 48.9428 35.9041 48.7402C35.8695 48.5375 35.8193 48.2214 35.7931 48.0376C35.7668 47.8538 35.7277 47.5494 35.706 47.3614C35.6844 47.1732 35.6556 46.8976 35.6421 46.7488C35.6285 46.6001 35.6066 46.3243 35.5935 46.1363C35.5803 45.948 35.5611 45.5126 35.5507 45.1684C35.5362 44.6856 35.5362 44.4018 35.5507 43.9273C35.5611 43.5889 35.5807 43.1545 35.5942 42.962C35.6077 42.7694 35.6362 42.4401 35.6573 42.2301C35.6785 42.02 35.7142 41.7121 35.7364 41.5459C35.7586 41.3796 35.8058 41.0681 35.8413 40.8537C35.8769 40.6392 35.938 40.3064 35.9773 40.1139C36.0166 39.9214 36.0943 39.5777 36.1498 39.3502C36.2055 39.1226 36.2916 38.7933 36.3414 38.6182C36.391 38.4432 36.4892 38.1245 36.5595 37.9102C36.6297 37.6957 36.7395 37.3801 36.8033 37.2087C36.8669 37.0372 36.9657 36.783 37.0225 36.6438C37.0793 36.5046 37.17 36.2904 37.2243 36.1679C37.2785 36.0454 37.3872 35.8097 37.4658 35.6445C37.5444 35.479 37.6771 35.2141 37.7605 35.0557C37.844 34.8973 37.9842 34.6424 38.072 34.4893C38.1598 34.3361 38.2962 34.1069 38.3751 33.9801C38.454 33.8531 38.6098 33.6134 38.7214 33.4471C38.8329 33.2808 38.9955 33.0471 39.0825 32.9277C39.1697 32.8084 39.3134 32.6175 39.4019 32.5034C39.4903 32.3894 39.6514 32.1899 39.7597 32.0601C39.8681 31.9302 40.0265 31.7453 40.112 31.6491C40.1973 31.5528 40.3933 31.3423 40.5473 31.1813C40.7015 31.0201 40.9462 30.7767 41.0911 30.6403C41.2362 30.5038 41.4655 30.2954 41.6008 30.177C41.736 30.0586 41.9254 29.8971 42.0217 29.818C42.1179 29.739 42.2754 29.6128 42.3717 29.5377C42.468 29.4626 42.6697 29.3117 42.8201 29.2023C42.9703 29.093 43.2209 28.9178 43.377 28.8129C43.5329 28.7082 43.8002 28.5366 43.9708 28.4316C44.1415 28.3265 44.3723 28.1888 44.4839 28.1251C44.5954 28.0616 44.6867 28.0069 44.6867 28.0035C44.6867 28.0001 44.4775 27.9992 44.2215 28.0007ZM55.9041 28.0057C55.466 28.0012 55.1824 28.0058 54.9679 28.0213C54.7988 28.0335 54.4981 28.0583 54.2997 28.0766C54.1014 28.0949 53.7602 28.1315 53.5414 28.1581C53.3226 28.1845 52.9789 28.2313 52.7776 28.262C52.5764 28.2926 52.2378 28.3497 52.025 28.3887C51.8125 28.4276 51.4903 28.4919 51.309 28.5314C51.128 28.571 50.8078 28.6464 50.5978 28.6989C50.3878 28.7514 50.0584 28.8402 49.8659 28.8962C49.6734 28.9522 49.3124 29.0633 49.0636 29.1432C48.8151 29.2232 48.5394 29.3158 48.4511 29.349C48.3629 29.3825 48.0724 29.5005 47.8054 29.6114C47.5386 29.7223 47.22 29.8611 47.0975 29.9196C46.9752 29.9783 46.7031 30.1149 46.4929 30.2232C46.2829 30.3316 46.0124 30.4768 45.8918 30.5459C45.7713 30.6151 45.5244 30.7651 45.3429 30.8795C45.1615 30.9938 44.9093 31.1594 44.7823 31.2474C44.6555 31.3355 44.4514 31.4829 44.3289 31.5748C44.2064 31.667 44.0345 31.7997 43.947 31.87C43.8595 31.9402 43.7163 32.0581 43.6288 32.1319C43.5413 32.2057 43.3694 32.3575 43.2469 32.4694C43.1244 32.5811 42.866 32.8325 42.6729 33.028C42.4795 33.2236 42.1961 33.5302 42.0432 33.7096C41.8903 33.889 41.7083 34.1074 41.6389 34.1949C41.5694 34.2824 41.3823 34.5373 41.2229 34.7614C41.0636 34.9856 40.897 35.2271 40.8529 35.2982C40.8089 35.3693 40.6844 35.5798 40.5766 35.766C40.4685 35.952 40.3085 36.2403 40.2205 36.4066C40.1327 36.5729 39.9855 36.8664 39.8937 37.059C39.8017 37.2515 39.6962 37.4878 39.6592 37.584C39.6221 37.6803 39.5284 37.9213 39.4509 38.1198C39.3734 38.3182 39.2483 38.6797 39.1732 38.9233C39.098 39.1669 39.0124 39.452 38.9828 39.557C38.9532 39.662 38.8859 39.9341 38.833 40.1616C38.7804 40.3892 38.7159 40.6827 38.6902 40.814C38.6642 40.9453 38.6176 41.2137 38.5864 41.4107C38.5552 41.6075 38.5156 41.8796 38.4984 42.0153C38.4811 42.1509 38.4559 42.3728 38.4424 42.5085C38.4289 42.6441 38.4072 42.9019 38.3941 43.0813C38.381 43.2607 38.3625 43.6635 38.3532 43.9765C38.3409 44.3808 38.3409 44.6919 38.353 45.0505C38.3622 45.3283 38.3809 45.7309 38.3942 45.9454C38.4074 46.1597 38.4437 46.5607 38.4746 46.8364C38.5054 47.112 38.5481 47.4613 38.5694 47.6124C38.5906 47.7634 38.6509 48.1254 38.7034 48.4167C38.7559 48.708 38.8238 49.0614 38.8544 49.2021C38.8849 49.3426 38.9419 49.5898 38.981 49.7513C39.0202 49.913 39.1212 50.2917 39.2057 50.5929C39.29 50.8939 39.4238 51.3337 39.5029 51.57C39.5818 51.8063 39.693 52.1285 39.7498 52.286C39.8068 52.4435 39.9234 52.7477 40.0093 52.9622C40.0951 53.1765 40.2114 53.4594 40.2679 53.5907C40.3244 53.722 40.4232 53.9439 40.4875 54.0839C40.5519 54.224 40.695 54.521 40.8055 54.7443C40.9161 54.9674 41.0588 55.2466 41.1228 55.3648C41.1868 55.4829 41.3285 55.7371 41.438 55.9297C41.5475 56.1222 41.7193 56.4121 41.82 56.5741C41.9207 56.7359 42.1048 57.0223 42.2289 57.2105C42.353 57.3986 42.5748 57.7173 42.7219 57.9185C42.8687 58.1198 43.0417 58.3532 43.106 58.4374C43.1704 58.5214 43.3741 58.772 43.5586 58.9943C43.7432 59.2164 44.0251 59.5415 44.1852 59.7165C44.3453 59.8915 44.6438 60.1994 44.8485 60.4007C45.0533 60.6019 45.346 60.8817 45.4988 61.0223C45.6518 61.1628 45.8985 61.3848 46.0475 61.5156C46.1962 61.6462 46.429 61.8467 46.5646 61.9609C46.7001 62.0752 46.9256 62.2613 47.0656 62.3746C47.2056 62.4879 47.3989 62.6419 47.4952 62.7169C47.5914 62.792 47.7848 62.9393 47.9248 63.0443C48.0648 63.1493 48.2939 63.3175 48.4339 63.418C48.5739 63.5186 48.7924 63.6729 48.9192 63.7608C49.0462 63.8487 49.3146 64.0298 49.5159 64.163C49.7172 64.2963 50.0574 64.5146 50.2717 64.648C50.4862 64.7815 50.777 64.9594 50.9183 65.0434C51.0596 65.1274 51.3317 65.2851 51.5229 65.3939C51.7142 65.5028 51.9781 65.6507 52.1094 65.7226C52.2407 65.7947 52.5665 65.9674 52.8334 66.1061C53.1004 66.245 53.5406 66.4652 53.8119 66.5957C54.0832 66.7262 54.4627 66.9044 54.6552 66.9919C54.8477 67.0792 55.1377 67.2084 55.2996 67.2786C55.4616 67.3489 55.705 67.453 55.8406 67.5099C55.9763 67.5669 56.2842 67.6921 56.5248 67.7882C56.7655 67.8842 57.1378 68.0288 57.3521 68.1095C57.5666 68.1901 57.8817 68.3061 58.0522 68.3672C58.2229 68.4285 58.5844 68.5532 58.8557 68.6447C59.127 68.7361 59.5279 68.8675 59.7467 68.9364C59.9655 69.0054 60.2519 69.0942 60.3832 69.1338C60.5145 69.1733 60.7974 69.2557 61.0117 69.3168C61.2262 69.3779 61.5734 69.4747 61.7834 69.5315C61.9934 69.5884 62.3514 69.6815 62.5789 69.7385C62.8064 69.7956 63.1323 69.8752 63.3029 69.9154C63.4736 69.9557 63.7707 70.0236 63.9632 70.0664C64.1557 70.1092 64.4851 70.1802 64.6951 70.2239C64.9052 70.2678 65.2918 70.3439 65.5543 70.3931C65.8169 70.4422 66.2608 70.5208 66.5408 70.5678C66.8209 70.6147 67.2469 70.6822 67.4876 70.7175C67.7283 70.753 68.1221 70.8069 68.3627 70.8375C68.6034 70.868 68.9328 70.9075 69.0946 70.9251C69.2565 70.9428 69.5464 70.9714 69.739 70.9888C69.9315 71.0061 70.2072 71.0292 70.3515 71.04C70.496 71.051 70.8182 71.0601 71.0675 71.0602L71.521 71.061L71.661 71.0172C71.7378 70.9933 71.8452 70.9512 71.8996 70.9238C71.9539 70.8965 72.0413 70.8454 72.0938 70.8102C72.1463 70.775 72.2478 70.6868 72.3194 70.614C72.391 70.5413 72.4936 70.4153 72.5476 70.3342C72.6013 70.2529 72.6839 70.1068 72.7308 70.0096C72.7778 69.9124 72.8491 69.7373 72.889 69.6205C72.9291 69.5038 72.9899 69.2934 73.0244 69.1529C73.0588 69.0124 73.1014 68.8116 73.1191 68.7066C73.1368 68.6016 73.1652 68.4046 73.1826 68.269C73.1997 68.1333 73.2249 67.8827 73.2381 67.7121C73.2514 67.5414 73.2736 67.1547 73.2873 66.8529C73.3009 66.5509 73.3191 66.2574 73.3277 66.2006C73.3364 66.1436 73.3582 66.0473 73.3764 65.9864C73.3945 65.9253 73.4313 65.8322 73.4578 65.7796C73.4844 65.7267 73.5351 65.6405 73.5705 65.588C73.6056 65.5355 73.696 65.429 73.7711 65.3514C73.8462 65.2736 73.9864 65.146 74.0826 65.0675C74.1789 64.9891 74.2987 64.8852 74.349 64.8365C74.4069 64.7805 74.4462 64.727 74.4564 64.6908C74.4651 64.6591 74.4723 64.5818 74.4723 64.5188C74.4725 64.441 74.4599 64.3644 74.4332 64.2801C74.4117 64.2118 74.3608 64.1022 74.3204 64.0366C74.2798 63.9709 74.2069 63.8686 74.1582 63.8091C74.1097 63.7496 74.0208 63.6556 73.9609 63.6002C73.9009 63.5447 73.8519 63.4949 73.8519 63.4895C73.8519 63.4842 73.867 63.4798 73.8855 63.4798C73.9038 63.4798 73.963 63.4685 74.0168 63.4548C74.0705 63.4409 74.1789 63.3989 74.2577 63.3614C74.3364 63.324 74.4642 63.2479 74.5415 63.1924C74.6188 63.1369 74.7477 63.0222 74.8279 62.9374C74.9081 62.8525 75.0122 62.7216 75.0591 62.6462C75.106 62.5708 75.167 62.4465 75.1944 62.37C75.2386 62.2462 75.244 62.2113 75.2442 62.0557C75.2442 61.9232 75.237 61.8621 75.2146 61.8042C75.1983 61.762 75.1417 61.6511 75.0885 61.5575C75.0354 61.464 74.9512 61.2944 74.9013 61.1806C74.8514 61.0668 74.7811 60.8913 74.7452 60.7908C74.7092 60.6901 74.6481 60.5039 74.6096 60.3771C74.5713 60.2503 74.5071 60.0138 74.4672 59.852C74.4274 59.6901 74.3861 59.5115 74.3752 59.4552L74.3558 59.3529L74.4128 59.3036C74.4443 59.2764 74.5153 59.2385 74.5706 59.2192C74.626 59.2 74.7824 59.1551 74.918 59.1193C75.0537 59.0837 75.2542 59.0291 75.3635 58.9979C75.473 58.9667 75.6411 58.9109 75.7376 58.8737C75.8338 58.8366 75.9805 58.772 76.0634 58.7303C76.1463 58.6888 76.2666 58.6192 76.3306 58.5761C76.3945 58.533 76.4975 58.4499 76.5594 58.3915C76.6211 58.3333 76.7032 58.2413 76.7419 58.1872C76.7805 58.1331 76.8397 58.0291 76.8736 57.9561C76.9073 57.883 76.9473 57.7767 76.9623 57.7199C76.9782 57.6596 76.993 57.526 76.9979 57.3988C77.003 57.2701 76.9986 57.1272 76.9878 57.0488C76.9775 56.9761 76.951 56.8412 76.9287 56.7493C76.9064 56.6574 76.8644 56.5322 76.8351 56.4709C76.806 56.4097 76.7444 56.3094 76.6984 56.2482C76.6524 56.1869 76.5427 56.0652 76.4545 55.9777C76.3664 55.8902 76.2084 55.7468 76.1033 55.6591C75.9983 55.5716 75.7119 55.3428 75.4669 55.1511C75.2219 54.9592 74.8782 54.6826 74.7032 54.5368C74.5281 54.3907 74.2812 54.175 74.1542 54.0574C74.0274 53.9396 73.8395 53.7538 73.7369 53.6445C73.6341 53.535 73.4849 53.3673 73.405 53.2717C73.3251 53.1761 73.193 53.0047 73.1118 52.8909C73.0303 52.7772 72.9162 52.6053 72.8583 52.5091C72.8004 52.4128 72.7148 52.2588 72.6678 52.167C72.6209 52.075 72.5538 51.9318 72.5186 51.8488C72.4834 51.7655 72.4285 51.6223 72.3966 51.5305C72.3646 51.4386 72.3143 51.2704 72.2847 51.1566C72.2551 51.0428 72.2201 50.8888 72.2069 50.8145C72.1937 50.7401 72.1736 50.604 72.1622 50.5122C72.1486 50.4031 72.1415 50.1464 72.1415 49.7724C72.1415 49.4285 72.1499 49.1073 72.1623 48.9689C72.1738 48.8419 72.1969 48.6128 72.2137 48.4597C72.2305 48.3065 72.2728 47.9307 72.3076 47.6244C72.3425 47.3181 72.3854 46.91 72.4029 46.7175C72.4204 46.5249 72.4438 46.2314 72.4548 46.0651C72.4664 45.891 72.475 45.4387 72.4752 44.9991C72.4753 44.5368 72.4674 44.116 72.4548 43.933C72.4435 43.7667 72.4199 43.4732 72.4026 43.2807C72.3853 43.0881 72.3499 42.7659 72.3243 42.5647C72.2987 42.3634 72.2592 42.0805 72.2368 41.9362C72.2144 41.7918 72.1636 41.4946 72.124 41.2758C72.0844 41.057 72.0163 40.711 71.9727 40.5067C71.9292 40.3025 71.8584 39.9875 71.8156 39.8066C71.7728 39.6258 71.6899 39.331 71.6315 39.1517C71.5732 38.9722 71.4826 38.7073 71.4306 38.563C71.3786 38.4186 71.2832 38.168 71.219 38.0061C71.1547 37.8441 71.0505 37.5935 70.9875 37.4492C70.9244 37.3049 70.7956 37.0276 70.7011 36.833C70.6066 36.6384 70.47 36.3698 70.3978 36.2363C70.3256 36.1026 70.2129 35.9002 70.1475 35.7865C70.0821 35.6727 69.9499 35.4543 69.8538 35.3012C69.7577 35.148 69.6178 34.9332 69.543 34.8239C69.4681 34.7144 69.3139 34.4996 69.2005 34.3465C69.0869 34.1933 68.9101 33.9642 68.8074 33.8374C68.7048 33.7104 68.5584 33.5351 68.4822 33.4476C68.406 33.3601 68.2181 33.1543 68.0649 32.9905C67.9115 32.8266 67.6526 32.5677 67.4895 32.4155C67.3264 32.263 67.1071 32.0643 67.002 31.9736C66.897 31.8829 66.7073 31.7259 66.5804 31.6247C66.4536 31.5235 66.2925 31.3975 66.2225 31.3448C66.1525 31.292 65.9735 31.1636 65.8247 31.0595C65.676 30.9553 65.4289 30.7905 65.2758 30.6932C65.1226 30.5959 64.8929 30.4552 64.7652 30.3806C64.6376 30.306 64.3834 30.1655 64.2004 30.0684C64.0174 29.9714 63.7225 29.8239 63.5453 29.7405C63.3681 29.6573 63.099 29.5362 62.9477 29.4718C62.7962 29.4072 62.5653 29.3131 62.4347 29.2627C62.3039 29.2123 62.0681 29.1251 61.9106 29.0689C61.7531 29.0127 61.4769 28.9211 61.2968 28.8652C61.1165 28.8094 60.8266 28.7246 60.6524 28.677C60.478 28.6293 60.1814 28.5542 59.9934 28.5101C59.8053 28.466 59.5046 28.4008 59.3251 28.3651C59.1458 28.3296 58.8441 28.2756 58.6549 28.2448C58.4657 28.2141 58.1701 28.171 57.9978 28.1492C57.8255 28.1272 57.5327 28.0953 57.3473 28.0781C57.1618 28.0611 56.9026 28.0393 56.7714 28.0297C56.6401 28.0203 56.25 28.0097 55.9042 28.0062L55.9041 28.0057Z" fill="#53FDCA"/>
</g>
<defs>
<linearGradient id="paint0_linear_1649_306568" x1="50" y1="0" x2="50" y2="100" gradientUnits="userSpaceOnUse">
<stop stop-color="#37474F"/>
<stop offset="1" stop-color="#121212"/>
</linearGradient>
<clipPath id="clip0_1649_306568">
<rect width="100" height="100" fill="white"/>
</clipPath>
</defs>
</svg>
