<svg xmlns="http://www.w3.org/2000/svg" enable-background="new 0 0 92 92" viewBox="0 0 92 92"><path fill="#53fdca" d="M82.51416 38.21952H58.49707c-4.68652 0-8.48584 3.79932-8.48584 8.48602s3.79932 8.48602 8.48584 8.48602h24.01709c4.68652 0 8.48584-3.79932 8.48584-8.48602S87.20068 38.21952 82.51416 38.21952zM25.03467 61.60484H14.35181c-4.68677 0-8.48584 3.79932-8.48584 8.48597v.00006c0 4.68665 3.79907 8.48596 8.48584 8.48596h10.68286c4.68677 0 8.48608-3.79932 8.48608-8.48596v-.00006C33.52075 65.40416 29.72144 61.60484 25.03467 61.60484zM21.93896 32.70036c4.68652 0 8.48584-3.79925 8.48584-8.48596s-3.79932-8.48602-8.48584-8.48602H9.48608C4.79932 15.72838 1 19.52769 1 24.2144s3.79932 8.48596 8.48608 8.48596H21.93896z" class="colorfdddd6 svgShape"/><circle cx="38.934" cy="12.711" r="3.017" fill="#95cfbe" class="colorcf95c2 svgShape"/><circle cx="82.222" cy="29.006" r="1.298" fill="#66c1a6" class="color66c190 svgShape"/><circle cx="5.866" cy="46.275" r="2.161" fill="#53fdca" class="color5dcae7 svgShape"/><path fill="#fff" d="M43.85017,69.30489h9.17434c1.4949,0,2.70675-1.21185,2.70675-2.70674v-0.00001
				c0-1.49489-1.21185-2.70674-2.70675-2.70674H42.25547l-5.24862-4.30659H25.98641v14.00951h3.77254l13.48723,7.42825
				c0.5887,0.32423,1.29071,0.37128,1.9174,0.1285L76.2596,69.1048c1.0027-0.38844,1.66358-1.35319,1.66358-2.4285v-0.00001
				c0-1.60155-1.43187-2.82364-3.01354-2.57201l-19.35578,3.45969" class="colorffffff svgShape"/><rect width="10.504" height="18.876" x="15.482" y="56.91" fill="#5df3c6" class="colorf3765d svgShape"/><polygon fill="#5df3c6" points="74.976 35.579 56.95 60.263 38.934 35.579 47.151 25.747 66.759 25.747" class="colorf3765d svgShape"/><polygon fill="#fff" points="38.934 35.579 47.151 25.747 66.759 25.747 74.976 35.579" class="colorffffff svgShape"/><path fill="#010101" d="M74.73364,63.11985l-18.01147,3.21973c-0.13306-1.92383-1.74072-3.44825-3.69775-3.44825H42.61304
					l-4.97192-4.07959c-0.17871-0.14697-0.40283-0.22705-0.63428-0.22705H26.98633v-1.6748c0-0.55225-0.44775-1-1-1H15.48218
					c-0.55225,0-1,0.44775-1,1v18.87598c0,0.55225,0.44775,1,1,1h10.50415c0.55225,0,1-0.44775,1-1v-1.19141h2.51563
					l13.26172,7.3042c0.49048,0.27002,1.03271,0.40674,1.57788,0.40674c0.39941,0,0.80054-0.07373,1.18335-0.22168l31.0957-12.04639
					c1.3772-0.5332,2.30249-1.88379,2.30249-3.36084C78.9231,64.45904,76.94241,62.76373,74.73364,63.11985z M24.98633,74.78587
					h-8.50415V57.90989h8.50415C24.98633,62.79314,24.98633,55.12318,24.98633,74.78587z M75.89819,68.1721l-31.0957,12.04639
					c-0.35205,0.13525-0.74341,0.10938-1.07397-0.07178l-13.48706-7.42822c-0.14771-0.08154-0.31372-0.12402-0.48242-0.12402
					h-2.77271V60.5847h9.66284c5.12604,4.10735,4.96078,4.30664,5.6062,4.30664h10.76904c0.94116,0,1.70679,0.76563,1.70679,1.70703
					c0,0.94092-0.76563,1.70654-1.70679,1.70654H43.8501c-0.55225,0-1,0.44775-1,1c0,0.55225,0.44775,1,1,1h9.17432
					c1.36597,0,2.56201-0.74268,3.20483-1.8457l18.8374-3.36719c0.97672-0.15382,1.85645,0.5997,1.85645,1.58447
					C76.9231,67.33372,76.51123,67.9348,75.89819,68.1721z" class="color010101 svgShape"/><path fill="#010101" d="M38.47998 35.78294c.00098.00232 0 .005.00122.00732.00366.00775.01245.01111.01636.01862.00684.01263.01611.02319.02368.03516.00562.00897.00269.02051.00903.02924l18.01538 24.68506c.07289.09832.23949.19859.39453.20288.00317.00006.0061.0022.00928.0022.00049 0 .00098-.00037.00171-.00037s.00146.00037.00146.00037c.148 0 .31445-.0892.39966-.20428l.00098-.00079.00073-.00098c.00708-.0097.01465-.01862.021-.02887l17.94971-24.57971c.10327-.09155.17139-.22137.17139-.37042 0-.1665-.08154-.31445-.20703-.40527-8.26012-9.63589-7.99278-9.92627-8.53003-9.92627H47.15137c-.49009 0-.30169.23964-8.60083 10.01074-.00806.0097-.00732.02319-.01465.03339-.03979.05505-.06641.1167-.0813.18549-.00439.02142-.01074.0401-.01245.06189-.00024.00226-.00122.00421-.00122.00653-.00049.00818-.00464.01495-.00488.02313 0 .00366-.00195.00671-.00195.01038C38.43408 35.65178 38.45166 35.7202 38.47998 35.78294zM62.70361 36.07835l-5.75024 22.19141-5.74731-22.19141H62.70361zM51.48169 35.07835l5.47339-8.41461 5.4729 8.41461H51.48169zM63.73682 36.07835h10.25513L58.09668 57.84452 63.73682 36.07835zM64.05225 35.07835l2.88965-8.33331 6.96436 8.33331H64.05225zM63.21191 34.44944l-5.33521-8.20263h8.17944L63.21191 34.44944zM50.69775 34.44944l-2.84399-8.20263h8.17969L50.69775 34.44944zM49.85767 35.07835h-9.85376l6.9646-8.33307L49.85767 35.07835zM50.17285 36.07835l5.64111 21.78082-15.896-21.78082H50.17285zM56.95508 17.7932c-.27612 0-.5.22363-.5.5v2.63525c0 .27637.22388.5.5.5s.5-.22363.5-.5V18.2932C57.45508 18.01683 57.2312 17.7932 56.95508 17.7932zM48.97266 19.61253c-.09424-.25977-.38062-.39209-.64087-.29883-.25928.09424-.39307.38135-.29858.64063l.90137 2.47607c.09375.25806.37939.39355.64087.29883.25928-.09424.39307-.38135.29858-.64063L48.97266 19.61253zM41.45337 23.75316c-.17749-.21191-.49292-.23828-.70435-.06152-.21167.17725-.23926.49268-.06177.7041l1.69409 2.01904c.177.21155.49268.23938.70435.06152.21167-.17725.23926-.49268.06177-.7041L41.45337 23.75316zM73.16089 23.69163c-.21094-.17725-.52661-.15088-.70435.06152L70.7627 25.7722c-.17749.21143-.1499.52686.06177.7041.21118.17761.5271.15033.70435-.06152l1.69385-2.01904C73.40015 24.18431 73.37256 23.86888 73.16089 23.69163zM65.57788 19.3137c-.25928-.09326-.54614.03906-.64087.29883l-.90112 2.47607c-.09424.25928.03955.54639.29907.64063.26001.09454.54663-.03986.64087-.29883l.90112-2.47607C65.97119 19.69505 65.8374 19.40794 65.57788 19.3137z" class="color010101 svgShape"/><g class="color000000 svgShape"><circle cx="85.681" cy="77.355" r="2.161" fill="#d8fef3" class="colorfef2d8 svgShape"/></g></svg>