<svg width="250" height="100" viewBox="0 0 250 100" fill="none" xmlns="http://www.w3.org/2000/svg">
<g clip-path="url(#clip0_1665_306368)">
<path d="M157.565 54.1353L153.45 41.335H150.148L156.154 58.8008H158.738L163.116 46.2637L167.423 58.7051H170.007L176.012 41.2393H172.782L168.667 54.0395L164.36 41.1436H161.776L157.565 54.1353ZM187.114 41.1436H184.338L176.73 58.6094H179.864L181.659 54.3984H189.793L191.588 58.6094H194.818L187.114 41.1436ZM188.645 51.7187H182.64L185.583 44.8281L188.645 51.7187ZM204.125 44.1104H209.58V41.2393H195.536V44.0146H200.991V58.5137H204.029V44.1104H204.125ZM228.194 55.834L226.232 53.8721C225.515 54.5898 224.701 55.1162 223.983 55.4751C223.266 55.9297 222.285 56.0972 221.304 56.0972C220.49 56.0972 219.701 55.9297 218.983 55.6426C218.265 55.2837 217.643 54.8291 217.188 54.3027C216.662 53.7764 216.303 53.0586 216.016 52.3408C215.753 51.623 215.562 50.8096 215.562 49.9243C215.562 49.0391 215.729 48.2256 216.016 47.5078C216.279 46.79 216.734 46.0723 217.188 45.5459C217.715 45.0195 218.265 44.5649 218.983 44.2061C219.701 43.8472 220.418 43.7515 221.304 43.7515C222.285 43.7515 223.194 43.9189 223.983 44.3735C224.797 44.7324 225.515 45.2588 226.232 45.9048L228.194 43.6558C227.74 43.2969 227.381 42.938 226.854 42.5791C226.4 42.2202 225.874 41.957 225.323 41.6938C224.797 41.4307 224.151 41.2393 223.529 41.1675C222.811 41.0718 222.093 41 221.28 41C219.94 41 218.768 41.2632 217.691 41.7178C216.614 42.1724 215.633 42.7944 214.916 43.6797C214.102 44.4932 213.48 45.4741 213.025 46.5508C212.571 47.6274 212.403 48.7998 212.403 50.0439C212.403 51.2881 212.571 52.4604 213.025 53.5371C213.48 54.6138 214.102 55.5947 214.916 56.4082C215.729 57.2217 216.614 57.8437 217.691 58.2983C218.768 58.7529 219.94 59.0161 221.184 59.0161C221.998 59.0161 222.715 58.9204 223.433 58.8486C224.055 58.6812 224.677 58.4897 225.323 58.2266C225.85 57.9634 226.4 57.6045 226.926 57.2456C227.309 56.7192 227.764 56.2646 228.194 55.834ZM243.961 51.2642V58.5137H247V41.2393H243.961V48.3931H235.731V41.2393H232.692V58.5137H235.731V51.2642H243.961Z" fill="white"/>
<path d="M135.386 53.2261L126.055 41.2393H123.28V58.5137H126.223V46.2397L135.793 58.5854H138.305V41.2393H135.362V53.2261H135.386ZM87.8457 55.834L85.8838 53.8721C85.166 54.5898 84.3525 55.1162 83.6348 55.4751C82.917 55.9297 81.936 56.0972 80.9551 56.0972C80.1416 56.0972 79.352 55.9297 78.6343 55.6426C77.9165 55.2837 77.2944 54.8291 76.8398 54.3027C76.3135 53.7764 75.9546 53.0586 75.6675 52.3408C75.4043 51.623 75.2129 50.8096 75.2129 49.9243C75.2129 49.0391 75.3804 48.2256 75.6675 47.5078C75.9307 46.79 76.3853 46.0723 76.8398 45.5459C77.3662 45.0195 77.9165 44.5649 78.6343 44.2061C79.352 43.8472 80.0698 43.7515 80.9551 43.7515C81.936 43.7515 82.8452 43.9189 83.6348 44.3735C84.4482 44.7324 85.166 45.2588 85.8838 45.9048L87.7739 43.6558C87.3193 43.2969 86.9604 42.938 86.4341 42.5791C85.9795 42.2202 85.4531 41.957 84.9028 41.6938C84.3765 41.4307 83.7305 41.2393 83.1084 41.1675C82.4863 41.0718 81.7686 41 80.9551 41C79.6152 41 78.4429 41.2632 77.3662 41.7178C76.2896 42.1724 75.3086 42.7944 74.4951 43.6079C73.6816 44.4214 73.0596 45.4023 72.605 46.479C72.1504 47.5557 71.9829 48.728 71.9829 49.9722C71.9829 51.2163 72.1504 52.3887 72.605 53.4653C73.0596 54.542 73.6816 55.5229 74.4951 56.3364C75.3086 57.1499 76.1938 57.772 77.2705 58.2266C78.3472 58.6812 79.5195 58.9443 80.7637 58.9443C81.5772 58.9443 82.2949 58.8486 83.0127 58.7769C83.6348 58.6094 84.2568 58.418 84.9028 58.1548C85.4292 57.8916 85.9795 57.5327 86.5059 57.1738C86.9605 56.7192 87.3911 56.2646 87.8457 55.834ZM114.332 41.2393V58.5137H117.37V41.2393H114.332Z" fill="white"/>
<path d="M2 58.6094H14.1782V55.834H5.03857V41.2393H2V58.6094ZM18.748 41.2393V58.5137H21.7866V41.2393H18.748ZM34.8501 54.5659L29.5625 41.2393H26.165L33.3188 58.7051H35.9985L43.1523 41.2393H39.8506L34.8501 54.5659ZM60.355 41.2393H47.5547V58.5137H60.5225V55.834H50.5933V51.1685H59.2783V48.4888H50.5933V44.0146H60.355V41.2393V41.2393Z" fill="white"/>
<path fill-rule="evenodd" clip-rule="evenodd" d="M106.651 43.6558C105.838 42.8423 104.953 42.2202 103.876 41.7656C102.799 41.311 101.555 41.0479 100.287 41.0479C98.9473 41.0479 97.7749 41.311 96.6982 41.7656C95.6216 42.2202 94.6406 42.8423 93.8271 43.6558C93.0137 44.4692 92.3916 45.4502 91.937 46.5269C91.4824 47.6035 91.3149 48.7759 91.3149 49.9243C91.3149 51.0728 91.4824 52.2451 91.937 53.3218C92.3916 54.3984 92.918 55.2837 93.7314 56.0015L96.2676 51.4316L98.7798 53.9438L101.531 47.3164L100.359 46.79L101.962 45.6177L103.565 44.4453L103.828 46.4072L104.091 48.3691L102.919 47.8428L99.3301 56.3364L96.6504 53.7524L94.9517 56.9824C95.478 57.437 96.124 57.7002 96.7461 57.9634C97.8228 58.418 99.0669 58.6812 100.335 58.6812C101.675 58.6812 102.847 58.418 103.924 57.9634C106.077 57.0781 107.776 55.3794 108.589 53.2261C109.044 52.1494 109.211 50.9771 109.211 49.8286C109.211 48.6802 109.044 47.5078 108.589 46.4312C107.991 45.3545 107.369 44.4692 106.651 43.6558Z" fill="white"/>
</g>
<defs>
<clipPath id="clip0_1665_306368">
<rect width="245" height="17.8965" fill="white" transform="translate(2 41)"/>
</clipPath>
</defs>
</svg>
