<?xml version="1.0" encoding="UTF-8" standalone="no"?>
<svg
   xmlns:dc="http://purl.org/dc/elements/1.1/"
   xmlns:cc="http://creativecommons.org/ns#"
   xmlns:rdf="http://www.w3.org/1999/02/22-rdf-syntax-ns#"
   xmlns:svg="http://www.w3.org/2000/svg"
   xmlns="http://www.w3.org/2000/svg"
   id="svg11"
   xml:space="preserve"
   enable-background="new 0 0 200 200"
   viewBox="0 0 200 200"
   y="0px"
   x="0px"
   version="1.1"><metadata
     id="metadata15"><rdf:RDF><cc:Work
         rdf:about=""><dc:format>image/svg+xml</dc:format><dc:type
           rdf:resource="http://purl.org/dc/dcmitype/StillImage" /></cc:Work></rdf:RDF></metadata><defs
     id="defs6819" /><linearGradient
     spreadMethod="pad"
     y2="30%"
     x2="-10%"
     y1="120%"
     x1="30%"
     id="3d_gradient2-logo-c457f613-c14d-49e0-98db-b9b13c087592"><stop
       id="stop6796"
       stop-opacity="1"
       stop-color="#ffffff"
       offset="0%" /><stop
       id="stop6798"
       stop-opacity="1"
       stop-color="#000000"
       offset="100%" /></linearGradient><linearGradient
     gradientTransform="rotate(-30)"
     spreadMethod="pad"
     y2="30%"
     x2="-10%"
     y1="120%"
     x1="30%"
     id="3d_gradient3-logo-c457f613-c14d-49e0-98db-b9b13c087592"><stop
       id="stop6801"
       stop-opacity="1"
       stop-color="#ffffff"
       offset="0%" /><stop
       id="stop6803"
       stop-opacity="1"
       stop-color="#cccccc"
       offset="50%" /><stop
       id="stop6805"
       stop-opacity="1"
       stop-color="#000000"
       offset="100%" /></linearGradient><path
     style="fill:#6bccbb;stroke-width:0.63593572"
     d="m 87.158816,52.14986 c -0.568908,0.0039 -1.153397,0.01167 -1.299408,0.01732 -0.145674,0.0057 -0.631141,0.035 -1.07842,0.06506 -0.447279,0.03041 -1.043761,0.07849 -1.325926,0.107136 -0.281802,0.02829 -0.838672,0.09264 -1.23753,0.142138 -0.39884,0.04986 -1.098579,0.152396 -1.555754,0.228059 -0.456824,0.07531 -1.141377,0.200479 -1.520395,0.277561 -0.379036,0.07708 -0.872313,0.182094 -1.096098,0.233363 -0.223462,0.05163 -0.629373,0.149209 -0.90163,0.217096 -0.272257,0.06789 -0.798735,0.209318 -1.169613,0.31398 -0.370903,0.105012 -0.958228,0.280034 -1.304686,0.389295 -0.346508,0.108904 -0.977306,0.324231 -1.401602,0.477689 -0.424653,0.153807 -1.062521,0.397778 -1.417882,0.54239 -0.355705,0.144262 -0.853172,0.35358 -1.10602,0.464602 -0.25281,0.111021 -0.857432,0.397777 -1.343605,0.637143 -0.486173,0.239373 -1.106719,0.557595 -1.378963,0.707161 -0.272256,0.149915 -0.797654,0.451877 -1.167896,0.671103 -0.369847,0.219576 -0.990406,0.611694 -1.378963,0.87155 -0.388232,0.259881 -0.933426,0.638543 -1.211012,0.841152 -0.277917,0.202953 -0.787098,0.594371 -1.131457,0.869833 -0.344741,0.275792 -0.785635,0.640324 -0.980104,0.810436 -0.194469,0.170075 -0.646683,0.581996 -1.004906,0.91543 -0.358178,0.333427 -0.90519,0.876192 -1.215591,1.205734 -0.310444,0.329535 -0.772216,0.838672 -1.026082,1.131457 -0.254222,0.292765 -0.643503,0.759498 -0.864872,1.037402 -0.221694,0.277916 -0.602499,0.778957 -0.846812,1.113777 -0.243971,0.33484 -0.638544,0.902711 -0.876511,1.262651 -0.23796,0.35959 -0.599318,0.932409 -0.803314,1.272889 -0.204014,0.340143 -0.510567,0.87333 -0.681341,1.184494 -0.170781,0.31115 -0.487941,0.923569 -0.704681,1.361284 -0.216745,0.437377 -0.531076,1.106019 -0.698702,1.485418 -0.167595,0.379393 -0.415813,0.968085 -0.551585,1.308247 -0.135773,0.340143 -0.350401,0.904809 -0.476628,1.254828 -0.126227,0.350045 -0.336257,0.962426 -0.466726,1.361284 -0.130118,0.398484 -0.31398,1.050821 -0.408385,1.449679 -0.09406,0.398484 -0.251042,1.098579 -0.348633,1.555754 -0.09759,0.45718 -0.241496,1.180932 -0.319634,1.60879 -0.07814,0.427832 -0.189871,1.0802 -0.248212,1.449679 -0.05834,0.369491 -0.14603,0.981885 -0.194469,1.361284 -0.0488,0.379037 -0.120923,0.999564 -0.160173,1.378963 -0.03889,0.379037 -0.09582,1.0395 -0.125877,1.467358 -0.03005,0.427832 -0.064,1.390282 -0.07531,2.13916 -0.01273,0.829133 -0.005,1.699984 0.0198,2.227556 0.02228,0.476271 0.06471,1.176354 0.09406,1.555753 0.02899,0.379037 0.08521,0.999564 0.124815,1.378963 0.0396,0.379037 0.142138,1.301888 0.227703,2.050766 0.08592,0.74856 0.183862,1.655467 0.217808,2.015407 0.0442,0.474154 0.06152,1.004143 0.06294,1.927016 6.99e-4,0.82811 -0.0145,1.40866 -0.04455,1.66182 -0.02511,0.21392 -0.09193,0.62054 -0.148504,0.90341 -0.05657,0.28287 -0.160522,0.70437 -0.230533,0.93699 -0.07036,0.2323 -0.208968,0.62937 -0.30832,0.88217 -0.09936,0.25281 -0.293828,0.68242 -0.43243,0.95467 -0.138959,0.27225 -0.374439,0.69056 -0.523299,0.92954 -0.14921,0.23903 -0.427832,0.64567 -0.619827,0.90303 -0.191996,0.25776 -0.497843,0.64281 -0.679943,0.85604 -0.182094,0.21321 -0.610282,0.66652 -0.951868,1.00732 -0.341205,0.3412 -0.827353,0.80083 -1.080201,1.02182 -0.25281,0.22063 -0.666524,0.57068 -0.919309,0.77788 -0.252809,0.20684 -0.912949,0.73259 -1.467358,1.16789 -0.554059,0.43526 -1.142776,0.90373 -1.308247,1.04128 -0.165476,0.13719 -0.455056,0.38965 -0.643884,0.56043 -0.18881,0.17113 -0.469556,0.46248 -0.62407,0.64738 -0.154163,0.18492 -0.336607,0.44304 -0.404849,0.57351 -0.06824,0.13047 -0.164771,0.38823 -0.214622,0.57315 -0.04986,0.18457 -0.114914,0.47734 -0.144612,0.64987 -0.0297,0.17289 -0.0541,0.50915 -0.0541,0.74747 0,0.2461 0.02404,0.56113 0.05586,0.7291 0.03041,0.16265 0.102182,0.41228 0.159111,0.55442 0.05657,0.14249 0.176434,0.37232 0.266248,0.51092 0.08946,0.13861 0.260587,0.35465 0.380098,0.48017 0.119512,0.12552 0.339081,0.31892 0.487941,0.4303 0.14886,0.11103 0.443037,0.29029 0.654124,0.39814 0.210736,0.10784 0.503851,0.24397 0.650943,0.30231 0.147092,0.0583 0.44162,0.16264 0.654124,0.23124 0.212504,0.0686 0.665061,0.19765 1.005223,0.28675 0.340499,0.0891 0.772917,0.21038 0.961026,0.26979 0.232657,0.0735 0.385403,0.14531 0.476978,0.22452 l 0.134716,0.11632 -0.116681,0.52613 c -0.06435,0.28923 -0.194469,0.81254 -0.289936,1.16294 -0.09511,0.35075 -0.270845,0.92357 -0.39035,1.27289 -0.119512,0.34969 -0.309383,0.84261 -0.421823,1.0954 -0.112439,0.25281 -0.302667,0.63467 -0.422528,0.84859 -0.120217,0.21392 -0.251042,0.4844 -0.290998,0.60109 -0.06011,0.17643 -0.06965,0.27155 -0.05551,0.56572 0.01344,0.27792 0.03996,0.41546 0.123753,0.64173 0.05905,0.1584 0.166183,0.38929 0.238667,0.51269 0.07213,0.1234 0.207907,0.32069 0.301249,0.43808 0.0937,0.1174 0.299132,0.33697 0.457181,0.48794 0.157699,0.15063 0.425358,0.36419 0.594371,0.47451 0.168656,0.10996 0.444449,0.25953 0.61205,0.33166 0.16795,0.0725 0.406973,0.15169 0.531432,0.17644 0.124109,0.0244 0.232301,0.0491 0.240078,0.0544 0.0074,0.006 -0.09759,0.11315 -0.233362,0.23902 -0.136129,0.12588 -0.335902,0.33697 -0.443744,0.4692 -0.108198,0.13224 -0.270132,0.35959 -0.360295,0.50562 -0.08981,0.14568 -0.202953,0.3893 -0.250686,0.54098 -0.0594,0.1874 -0.08733,0.35747 -0.08698,0.53037 0,0.14002 0.01627,0.31222 0.03571,0.38293 0.02298,0.082 0.108904,0.19907 0.23831,0.32388 0.111734,0.10713 0.377975,0.33767 0.591891,0.51163 0.213916,0.17431 0.52471,0.45824 0.69088,0.63114 0.166183,0.1729 0.367018,0.4098 0.445868,0.52648 0.0792,0.11668 0.17962,0.28251 0.223461,0.36879 0.04384,0.0863 0.117744,0.25811 0.164415,0.38186 0.04667,0.1234 0.107842,0.36313 0.136485,0.53249 0.02829,0.16937 0.07637,0.86487 0.106779,1.54552 0.03005,0.68064 0.07849,1.53985 0.107486,1.90933 0.02899,0.36949 0.07673,0.87053 0.106074,1.11378 0.02935,0.24291 0.09299,0.68064 0.141433,0.97234 0.04879,0.29171 0.144262,0.7609 0.212148,1.04307 0.06824,0.2818 0.188103,0.70786 0.266247,0.9469 0.07849,0.23867 0.198361,0.56503 0.266597,0.72484 0.06824,0.15982 0.193763,0.41793 0.278622,0.57351 0.08486,0.15557 0.232657,0.39424 0.32883,0.53037 0.09582,0.13613 0.252104,0.33378 0.347215,0.4395 0.09511,0.10572 0.284988,0.2811 0.421466,0.39 0.136834,0.10855 0.376207,0.26412 0.532138,0.34509 0.155932,0.0813 0.426064,0.19023 0.600025,0.2422 0.275792,0.0828 0.397072,0.0972 0.946526,0.11244 0.346509,0.01 0.958928,-6.3e-4 1.361284,-0.0237 0.40202,-0.0226 1.10532,-0.0725 1.562113,-0.11031 0.456824,-0.0382 1.061822,-0.0937 1.343605,-0.12305 0.282158,-0.0297 0.854634,-0.0937 1.272889,-0.14249 0.418286,-0.0488 1.062521,-0.1287 1.432,-0.1775 0.369491,-0.0488 1.04586,-0.14426 1.502716,-0.2125 0.45718,-0.0683 1.260488,-0.19518 1.78558,-0.28216 0.525067,-0.0873 1.424242,-0.24538 1.997729,-0.3511 0.573862,-0.10608 1.433081,-0.27191 1.909333,-0.36879 0.476627,-0.0965 1.264049,-0.26342 1.750222,-0.37055 0.486173,-0.10714 1.194415,-0.26766 1.573432,-0.35712 0.379393,-0.0891 1.198612,-0.28958 1.820939,-0.44551 0.622301,-0.15557 1.481475,-0.37904 1.909333,-0.49572 0.427832,-0.11703 1.223413,-0.3405 1.767901,-0.49678 0.544514,-0.15628 1.475117,-0.43455 2.068445,-0.61806 0.593309,-0.18386 1.547994,-0.49112 2.121481,-0.68242 0.573506,-0.19129 1.401221,-0.47486 1.838618,-0.63043 0.437733,-0.15522 1.205352,-0.43597 1.706406,-0.62372 0.501022,-0.18775 1.344304,-0.51411 1.873975,-0.72522 0.529665,-0.21073 1.24955,-0.50314 1.599569,-0.64916 0.350045,-0.14603 0.954667,-0.4045 1.343605,-0.57422 0.388939,-0.16972 1.08904,-0.48264 1.555753,-0.69546 0.466726,-0.21285 1.576612,-0.74678 2.466223,-1.18659 0.88961,-0.4395 1.61693,-0.80828 1.61623,-0.81921 -0.0011,-0.0113 -0.27473,-0.21109 -0.608514,-0.44445 -0.333777,-0.23337 -1.085161,-0.78246 -1.669585,-1.21985 -0.58447,-0.43774 -1.341125,-1.01725 -1.681287,-1.28809 -0.339793,-0.27084 -0.941567,-0.76128 -1.337246,-1.09012 -0.395304,-0.32848 -1.031742,-0.87155 -1.414321,-1.20644 -0.382223,-0.33519 -0.997465,-0.88573 -1.366944,-1.22341 -0.369491,-0.33802 -1.237531,-1.18023 -1.928793,-1.87219 -0.691262,-0.69158 -1.512954,-1.54406 -1.826216,-1.89414 -0.313275,-0.35004 -0.740039,-0.83549 -0.948308,-1.07842 -0.208256,-0.24326 -0.627961,-0.75244 -0.933108,-1.13146 -0.304785,-0.37903 -0.793457,-1.0077 -1.085479,-1.39664 -0.292409,-0.38894 -0.742137,-1.00592 -0.999564,-1.3712 -0.257407,-0.3649 -0.678861,-0.98545 -0.936987,-1.37897 -0.257758,-0.39318 -0.621239,-0.9614 -0.807957,-1.26296 -0.186335,-0.30161 -0.49678,-0.81852 -0.689863,-1.14914 -0.193057,-0.3306 -0.470617,-0.81603 -0.616997,-1.07842 -0.14638,-0.26271 -0.40167,-0.7319 -0.567496,-1.04306 -0.165827,-0.31115 -0.437028,-0.83727 -0.602855,-1.16891 -0.165826,-0.33166 -0.468494,-0.96033 -0.672184,-1.39665 -0.203665,-0.43631 -0.497486,-1.08796 -0.652724,-1.44758 -0.155219,-0.35994 -0.389295,-0.91683 -0.520469,-1.23753 -0.131181,-0.32105 -0.370197,-0.93342 -0.531782,-1.36128 -0.161235,-0.42783 -0.415101,-1.1279 -0.563961,-1.55575 -0.149209,-0.42784 -0.403437,-1.20746 -0.565728,-1.73255 -0.161941,-0.52506 -0.375501,-1.24319 -0.474504,-1.59537 -0.09865,-0.35252 -0.265891,-0.98119 -0.371259,-1.39664 -0.105368,-0.41582 -0.271901,-1.11416 -0.369847,-1.55149 -0.09794,-0.43774 -0.234775,-1.07951 -0.303723,-1.426344 -0.0693,-0.347221 -0.189166,-0.999563 -0.266597,-1.449679 -0.07708,-0.450458 -0.18846,-1.153015 -0.246801,-1.561413 -0.05834,-0.408385 -0.145324,-1.084779 -0.193407,-1.502716 -0.04809,-0.418287 -0.112083,-1.030661 -0.142138,-1.361284 -0.03005,-0.330597 -0.07885,-0.943347 -0.107842,-1.361284 -0.02935,-0.418286 -0.07213,-1.386022 -0.09511,-2.150798 -0.03218,-1.07276 -0.03218,-1.703545 0,-2.757926 0.02298,-0.752057 0.06647,-1.717344 0.09653,-2.145202 0.03005,-0.427832 0.09334,-1.159756 0.14037,-1.626469 0.04703,-0.466726 0.126226,-1.150916 0.175728,-1.520395 0.04914,-0.369491 0.154163,-1.061822 0.233007,-1.538074 0.0792,-0.476628 0.214978,-1.216291 0.302311,-1.644148 0.08733,-0.427833 0.259881,-1.191553 0.383278,-1.697186 0.123753,-0.505619 0.315043,-1.237531 0.425708,-1.626469 0.110316,-0.388938 0.328474,-1.09718 0.484761,-1.573432 0.155932,-0.476627 0.399902,-1.178134 0.541684,-1.558933 0.141432,-0.381161 0.361008,-0.945827 0.487235,-1.25521 0.126227,-0.309382 0.327767,-0.785317 0.448341,-1.057561 0.120573,-0.272257 0.362064,-0.795937 0.536736,-1.163253 0.174666,-0.367724 0.469556,-0.956448 0.654823,-1.308247 0.18563,-0.352169 0.497136,-0.918609 0.69228,-1.258771 0.195175,-0.340499 0.498192,-0.849674 0.673583,-1.131457 0.175378,-0.282159 0.521531,-0.815015 0.769418,-1.184494 0.247863,-0.369491 0.60922,-0.888911 0.802615,-1.154096 0.193763,-0.265185 0.513047,-0.689482 0.70964,-0.943029 0.196594,-0.253166 0.554416,-0.696541 0.795174,-0.985065 0.240791,-0.288524 0.592953,-0.699402 0.782837,-0.913267 0.189522,-0.213916 0.625131,-0.681723 0.967386,-1.0395 0.342616,-0.358179 0.88643,-0.89915 1.208532,-1.202173 0.322464,-0.303373 0.831995,-0.766557 1.132538,-1.029644 0.300543,-0.263061 0.721278,-0.621945 0.935207,-0.797654 0.213916,-0.175728 0.56396,-0.456119 0.777876,-0.623007 0.213916,-0.166889 0.662264,-0.502084 0.996385,-0.745317 0.333777,-0.242908 0.890691,-0.632203 1.23753,-0.86519 0.346509,-0.232657 0.940549,-0.614168 1.319567,-0.847512 0.379393,-0.233363 0.892409,-0.539566 1.140296,-0.681023 0.247863,-0.141076 0.450815,-0.262712 0.450815,-0.270133 0,-0.0074 -0.465314,-0.01025 -1.034222,-0.0064 z m 25.961444,0.01096 c -0.97375,-0.0099 -1.60383,3.54e-4 -2.08047,0.03465 -0.37586,0.02722 -1.04414,0.08239 -1.48504,0.123047 -0.44056,0.04066 -1.19899,0.121985 -1.68516,0.181032 -0.48617,0.0587 -1.24993,0.162647 -1.69719,0.230889 -0.44728,0.06789 -1.19969,0.194825 -1.67244,0.281452 -0.47239,0.08663 -1.18838,0.229471 -1.59112,0.31716 -0.40237,0.08804 -1.11377,0.25564 -1.58049,0.372322 -0.46672,0.116681 -1.19861,0.31398 -1.626466,0.438439 -0.427832,0.124459 -1.23009,0.37126 -1.782782,0.548756 -0.552291,0.177852 -1.165034,0.383634 -1.361284,0.45753 -0.195881,0.07425 -0.841534,0.336607 -1.434798,0.583051 -0.592953,0.246444 -1.300806,0.554765 -1.573051,0.684903 -0.2719,0.130468 -0.87651,0.433842 -1.343604,0.674601 -0.466726,0.24079 -1.0678,0.563604 -1.335847,0.717081 -0.267659,0.153807 -0.816414,0.487234 -1.219852,0.741437 -0.403081,0.253872 -0.963506,0.621945 -1.245671,0.817495 -0.281802,0.195881 -0.735459,0.523299 -1.007704,0.727638 -0.272256,0.20472 -0.654123,0.49961 -0.848592,0.655904 -0.194469,0.155932 -0.512691,0.417931 -0.707161,0.581996 -0.194469,0.164058 -0.576335,0.501378 -0.848592,0.749959 -0.272257,0.248212 -0.846494,0.806875 -1.275687,1.24141 -0.4296,0.434547 -1.059342,1.115876 -1.399122,1.514735 -0.339794,0.398484 -0.7443,0.883951 -0.89845,1.07842 -0.154514,0.194469 -0.570327,0.760897 -0.924587,1.258771 -0.353937,0.498192 -0.72414,1.034922 -0.822074,1.192952 -0.09794,0.158049 -0.374439,0.625837 -0.614168,1.0395 -0.240078,0.413333 -0.595783,1.054 -0.791295,1.423542 -0.195175,0.369492 -0.522237,1.021822 -0.726238,1.44968 -0.204371,0.427832 -0.438796,0.952886 -0.521175,1.166814 -0.08239,0.213916 -0.290642,0.749578 -0.462834,1.190536 -0.172193,0.440913 -0.450109,1.244271 -0.616998,1.78558 -0.167244,0.541334 -0.357472,1.174955 -0.423234,1.40828 -0.06577,0.233362 -0.215328,0.837972 -0.332722,1.343604 -0.117037,0.50562 -0.260237,1.157976 -0.317516,1.44968 -0.05763,0.291703 -0.161235,0.888211 -0.230533,1.325925 -0.0693,0.437378 -0.157343,1.041981 -0.195531,1.343605 -0.03854,0.30125 -0.0944,0.794475 -0.124459,1.096099 -0.03005,0.301249 -0.07814,0.87403 -0.107486,1.272889 -0.02899,0.398484 -0.07001,1.293748 -0.09087,1.989271 -0.02722,0.89845 -0.02722,1.589712 -3.53e-4,2.386666 0.02051,0.617354 0.06188,1.511938 0.09157,1.988508 0.02935,0.476271 0.109966,1.367325 0.178558,1.980049 0.06859,0.6124 0.163353,1.388502 0.210737,1.724403 0.04703,0.335546 0.181032,1.139915 0.297713,1.787361 0.116682,0.647383 0.267659,1.4327 0.335545,1.745262 0.06789,0.312219 0.194469,0.861686 0.281453,1.220546 0.08698,0.35924 0.311506,1.20078 0.499254,1.8701 0.187397,0.669 0.484761,1.64624 0.660482,2.17134 0.175379,0.52506 0.422529,1.24109 0.548756,1.59111 0.126583,0.35004 0.385758,1.02608 0.576692,1.50271 0.190577,0.47628 0.449047,1.10494 0.574568,1.39665 0.125521,0.2917 0.345096,0.78493 0.48794,1.09609 0.1432,0.31116 0.461066,0.97127 0.706779,1.46736 0.245739,0.49572 0.562899,1.11626 0.705062,1.37897 0.142138,0.26235 0.457181,0.82735 0.70042,1.25521 0.243264,0.42783 0.625131,1.07206 0.848974,1.432 0.223818,0.35959 0.632909,0.996 0.908689,1.41432 0.275792,0.41793 0.768655,1.12618 1.095399,1.57343 0.326356,0.44728 0.710722,0.96599 0.853553,1.15301 0.1432,0.18669 0.595782,0.7436 1.005923,1.23753 0.410153,0.4936 1.036702,1.21598 1.392381,1.60492 0.355704,0.38893 1.019023,1.07314 1.474099,1.52039 0.455057,0.44728 1.10532,1.06888 1.4451,1.38144 0.339793,0.31222 0.888212,0.80548 1.219153,1.0961 0.330597,0.29029 0.847893,0.73578 1.149135,0.98965 0.30125,0.25386 0.802297,0.66754 1.113397,0.9193 0.31115,0.25175 0.740738,0.59402 0.954666,0.76058 0.213916,0.16689 0.643504,0.49431 0.954667,0.72764 0.311151,0.23336 0.820294,0.6071 1.131457,0.83053 0.311151,0.22347 0.796637,0.56644 1.07842,0.7616 0.282158,0.19553 0.878672,0.5979 1.325926,0.89387 0.447279,0.2963 1.203248,0.78144 1.679498,1.07772 0.47663,0.29666 1.123,0.69196 1.43696,0.87867 0.31398,0.1867 0.91861,0.5371 1.34361,0.77896 0.425,0.24185 1.01158,0.57068 1.30328,0.7305 0.29171,0.16017 1.01585,0.54381 1.60879,0.85215 0.59331,0.30868 1.57165,0.79804 2.17452,1.08796 0.60286,0.28994 1.44612,0.68592 1.87398,0.88039 0.42783,0.19412 1.07206,0.48123 1.432,0.63715 0.35994,0.15628 0.90093,0.38752 1.20217,0.51411 0.3016,0.12657 0.98576,0.40485 1.52039,0.61841 0.53497,0.21321 1.36237,0.53461 1.83862,0.7139 0.47663,0.17927 1.17674,0.43702 1.55575,0.5728 0.3794,0.13613 1.18272,0.41334 1.78559,0.61664 0.60285,0.20296 1.49387,0.49502 1.98004,0.64815 0.48618,0.15345 1.12262,0.35075 1.41433,0.43879 0.2917,0.0877 0.92039,0.27084 1.39664,0.40662 0.47662,0.13578 1.24815,0.35075 1.71486,0.47698 0.46673,0.12658 1.26227,0.33342 1.7679,0.46 0.50562,0.12694 1.22978,0.30373 1.60879,0.39318 0.3794,0.0895 1.0395,0.24044 1.46736,0.33556 0.42783,0.0951 1.15976,0.25281 1.62648,0.35004 0.46673,0.0976 1.32593,0.2666 1.90933,0.37586 0.58341,0.10925 1.56987,0.28392 2.1922,0.38822 0.6223,0.10431 1.56917,0.25423 2.1038,0.33273 0.53497,0.0788 1.41006,0.19871 1.9447,0.26659 0.53496,0.0679 1.26691,0.15558 1.62646,0.19483 0.35995,0.0392 1.00415,0.10289 1.432,0.14143 0.42784,0.0385 1.04059,0.0898 1.36129,0.11385 0.32105,0.0244 1.03708,0.0446 1.59111,0.0449 l 1.0077,0.001 0.31115,-0.0972 c 0.17078,-0.053 0.40945,-0.14674 0.53037,-0.20755 0.12058,-0.0608 0.31469,-0.17432 0.43137,-0.25246 0.11668,-0.0781 0.34227,-0.27438 0.50138,-0.43596 0.15911,-0.16159 0.38717,-0.44163 0.50703,-0.62196 0.11951,-0.18067 0.30302,-0.50526 0.40733,-0.72127 0.1043,-0.21604 0.26271,-0.60498 0.35146,-0.86449 0.0891,-0.25953 0.22416,-0.72694 0.30089,-1.03919 0.0764,-0.31221 0.17114,-0.75841 0.21038,-0.9918 0.0392,-0.23337 0.10254,-0.67111 0.14108,-0.97235 0.0382,-0.3016 0.094,-0.85851 0.1234,-1.23753 0.0297,-0.37939 0.0788,-1.23861 0.10926,-1.90933 0.0304,-0.67111 0.0707,-1.32345 0.0898,-1.44968 0.0195,-0.12658 0.0679,-0.3405 0.1082,-0.47592 0.0403,-0.13578 0.12198,-0.34262 0.18103,-0.45966 0.059,-0.11739 0.17183,-0.30902 0.25033,-0.42571 0.0781,-0.11668 0.27897,-0.35322 0.44586,-0.52577 0.16689,-0.1729 0.4784,-0.45647 0.69228,-0.63079 0.21392,-0.17431 0.48017,-0.4052 0.59189,-0.5134 0.12871,-0.12446 0.21604,-0.24326 0.23867,-0.32387 0.0195,-0.0704 0.0354,-0.2422 0.0354,-0.38223 3.6e-4,-0.17289 -0.0276,-0.34297 -0.087,-0.53037 -0.0478,-0.15168 -0.16088,-0.3953 -0.25069,-0.54097 -0.0902,-0.14603 -0.2521,-0.37339 -0.3603,-0.50562 -0.10784,-0.13224 -0.30549,-0.34121 -0.43844,-0.46426 -0.13329,-0.12339 -0.2422,-0.23406 -0.2422,-0.24608 0,-0.0117 0.0336,-0.0216 0.0746,-0.0216 0.0406,0 0.17219,-0.0251 0.2917,-0.0555 0.11951,-0.0308 0.3603,-0.12411 0.53532,-0.20755 0.17502,-0.0831 0.45895,-0.2521 0.63079,-0.37551 0.17184,-0.12339 0.45824,-0.37833 0.63644,-0.56678 0.17821,-0.18846 0.40945,-0.47946 0.51375,-0.64706 0.10431,-0.16761 0.23973,-0.44375 0.30055,-0.61382 0.0983,-0.27509 0.11031,-0.35252 0.11067,-0.69832 0,-0.29454 -0.0159,-0.43031 -0.0658,-0.55902 -0.0361,-0.0937 -0.16193,-0.34014 -0.28003,-0.54805 -0.1181,-0.2079 -0.30514,-0.58482 -0.41617,-0.83765 -0.11067,-0.25281 -0.26695,-0.6428 -0.34686,-0.86627 -0.0799,-0.22382 -0.21568,-0.63753 -0.30125,-0.91931 -0.0852,-0.2818 -0.2277,-0.80726 -0.31645,-1.16682 -0.0884,-0.35994 -0.18033,-0.75663 -0.20437,-0.88185 l -0.0431,-0.22735 0.12657,-0.10961 c 0.07,-0.0605 0.2277,-0.14462 0.35076,-0.1874 0.12305,-0.0428 0.47061,-0.14249 0.77189,-0.22205 0.30162,-0.0792 0.7471,-0.20048 0.99003,-0.26978 0.24326,-0.0693 0.61699,-0.19341 0.83129,-0.27614 0.21392,-0.0824 0.53992,-0.22595 0.72414,-0.31858 0.18422,-0.0923 0.45153,-0.2468 0.59367,-0.34262 0.14213,-0.0958 0.3709,-0.28039 0.50845,-0.41015 0.13718,-0.12941 0.31963,-0.33379 0.40556,-0.454 0.0859,-0.12022 0.21745,-0.35146 0.29276,-0.51376 0.075,-0.16229 0.1637,-0.39848 0.19695,-0.52471 0.0354,-0.134 0.0682,-0.43101 0.0792,-0.71352 0.0113,-0.28604 0.002,-0.60356 -0.0223,-0.77787 -0.023,-0.16159 -0.082,-0.46143 -0.13153,-0.66545 -0.0495,-0.20437 -0.14284,-0.48263 -0.20791,-0.61876 -0.0647,-0.13613 -0.20154,-0.35889 -0.30372,-0.49501 -0.10218,-0.13613 -0.34615,-0.40662 -0.54203,-0.60109 -0.19588,-0.19447 -0.54699,-0.51305 -0.78036,-0.70786 -0.23336,-0.19447 -0.86984,-0.7029 -1.41432,-1.12898 -0.54452,-0.42642 -1.30825,-1.04096 -1.69719,-1.36516 -0.38893,-0.32458 -0.93769,-0.80401 -1.21985,-1.06532 -0.28181,-0.26165 -0.69941,-0.6746 -0.92745,-0.91753 -0.2284,-0.24326 -0.56006,-0.61594 -0.73756,-0.82843 -0.1775,-0.21251 -0.47096,-0.59331 -0.65163,-0.84611 -0.18104,-0.25281 -0.43456,-0.63468 -0.56327,-0.8486 -0.1287,-0.21391 -0.31892,-0.55618 -0.42322,-0.76019 -0.10431,-0.20437 -0.25353,-0.5226 -0.33166,-0.70716 -0.0781,-0.18493 -0.20013,-0.50315 -0.2712,-0.70716 -0.0711,-0.20438 -0.1828,-0.57811 -0.24857,-0.83092 -0.0658,-0.25281 -0.14355,-0.59508 -0.17289,-0.7602 -0.0294,-0.16547 -0.0739,-0.46778 -0.0994,-0.6718 -0.0301,-0.24256 -0.046,-0.81285 -0.046,-1.64415 0,-0.764069 0.0188,-1.477971 0.0463,-1.785573 0.0254,-0.282158 0.0767,-0.791295 0.1142,-1.131457 0.0371,-0.340499 0.13118,-1.175654 0.20861,-1.856296 0.0774,-0.680642 0.1729,-1.58755 0.2118,-2.015408 0.0389,-0.427832 0.0909,-1.0802 0.11526,-1.449679 0.0258,-0.386814 0.0449,-1.392063 0.0453,-2.368987 3.6e-4,-1.027164 -0.0173,-1.962371 -0.0453,-2.368988 -0.0251,-0.369491 -0.0774,-1.021822 -0.11597,-1.449679 -0.0385,-0.427832 -0.11704,-1.143858 -0.17396,-1.591111 -0.0569,-0.447279 -0.14462,-1.07594 -0.19447,-1.396642 -0.0499,-0.320696 -0.16265,-0.981185 -0.25069,-1.467358 -0.088,-0.486173 -0.23937,-1.25521 -0.33626,-1.709205 -0.0965,-0.453644 -0.25386,-1.153714 -0.34898,-1.555753 -0.0951,-0.40167 -0.27933,-1.056861 -0.40909,-1.455339 -0.12976,-0.398839 -0.33095,-0.987544 -0.44657,-1.308247 -0.11562,-0.320696 -0.32741,-0.877591 -0.47027,-1.237531 -0.14284,-0.359945 -0.37443,-0.916828 -0.51445,-1.23753 -0.14002,-0.320696 -0.42642,-0.936988 -0.63645,-1.369424 -0.21002,-0.43243 -0.5134,-1.029262 -0.6739,-1.325926 -0.16053,-0.297008 -0.41087,-0.74678 -0.55618,-0.999564 -0.14533,-0.25281 -0.43915,-0.738258 -0.65273,-1.07842 -0.21356,-0.340499 -0.52436,-0.817813 -0.69056,-1.060741 -0.16653,-0.243264 -0.50916,-0.720578 -0.76128,-1.06074 -0.25246,-0.340499 -0.64528,-0.849674 -0.87333,-1.131457 -0.22806,-0.282159 -0.55335,-0.671803 -0.72274,-0.866272 -0.16936,-0.194469 -0.58694,-0.651643 -0.92745,-1.015844 -0.34085,-0.364187 -0.91613,-0.939467 -1.27855,-1.277849 -0.36242,-0.338731 -0.84967,-0.780356 -1.08338,-0.981884 -0.23336,-0.201541 -0.65482,-0.550524 -0.93699,-0.775397 -0.2818,-0.224879 -0.63962,-0.504914 -0.79517,-0.621945 -0.15558,-0.117387 -0.55335,-0.402725 -0.88395,-0.633971 -0.3306,-0.231595 -0.8797,-0.597906 -1.21985,-0.813934 -0.3405,-0.21639 -0.85107,-0.528958 -1.13464,-0.69476 -0.28357,-0.165826 -0.84859,-0.478039 -1.25521,-0.693742 -0.40662,-0.215684 -1.06183,-0.543451 -1.45573,-0.728719 -0.39388,-0.184923 -0.9918,-0.453994 -1.32802,-0.597194 -0.33661,-0.143556 -0.84968,-0.352518 -1.13997,-0.464602 -0.29064,-0.112084 -0.81464,-0.305847 -1.16472,-0.430662 -0.35005,-0.124815 -0.9639,-0.328474 -1.36409,-0.452583 -0.40061,-0.124109 -1.04483,-0.312562 -1.432,-0.418286 -0.38751,-0.106075 -1.04662,-0.272963 -1.46456,-0.370904 -0.41793,-0.09794 -1.08618,-0.242908 -1.48504,-0.322114 -0.39848,-0.07885 -1.06888,-0.199067 -1.48929,-0.267309 -0.42042,-0.06824 -1.07734,-0.164059 -1.4603,-0.212504 -0.38293,-0.0488 -1.03353,-0.119861 -1.44542,-0.158049 -0.41228,-0.03783 -0.98824,-0.08627 -1.27995,-0.107486 -0.2917,-0.02086 -1.15867,-0.04455 -1.92701,-0.05233 z"
     id="icon" /></svg>