<svg width="250" height="100" viewBox="0 0 250 100" fill="none" xmlns="http://www.w3.org/2000/svg">
<path d="M87.1327 62.6979H81.1398V36.3126H87.1254V40.1789C89.2913 37.3245 92.5622 35.7687 96.3378 35.7687C102.372 35.7687 105.918 39.8187 105.918 46.0787V62.6831H99.937V47.2107C99.937 43.2048 97.8201 41.0854 94.5468 41.0854C90.0827 41.0854 87.1303 45.0914 87.1303 51.1309L87.1327 62.6979Z" fill="white"/>
<path d="M109.84 49.5236C109.84 41.2838 115.137 35.7613 123.015 35.7613C130.892 35.7613 136.189 41.2961 136.189 49.5236C136.189 57.7167 130.892 63.2442 123.015 63.2442C115.137 63.2442 109.84 57.7118 109.84 49.5236ZM130.061 49.5236C130.061 44.4616 127.16 41.0511 123.012 41.0511C118.864 41.0511 115.963 44.4592 115.963 49.5187C115.963 54.5414 118.871 57.9568 123.012 57.9568C127.153 57.9568 130.071 54.5463 130.071 49.5309L130.061 49.5236Z" fill="white"/>
<path d="M146.313 62.6978H140.33V36.3126H146.313V40.1789C148.202 37.2804 150.968 35.7687 154.153 35.7687C157.654 35.7687 160.739 37.6112 162.167 40.9727C164.333 37.5671 167.788 35.7687 171.38 35.7687C176.447 35.7687 179.992 39.3605 179.992 45.4809V62.7076H173.999V46.9118C173.999 43.0896 172.34 41.0658 169.302 41.0658C165.294 41.0658 163.037 44.7018 163.037 51.148V62.7003H157.052V46.9118C157.052 42.9475 155.3 41.0658 152.492 41.0658C148.623 41.0658 146.32 44.7826 146.32 51.148L146.313 62.6978Z" fill="white"/>
<path d="M185.514 36.3126H191.5V62.6978H185.514V36.3126Z" fill="white"/>
<path d="M195.648 49.477C195.648 41.2839 201.085 35.7564 208.776 35.7564C214.671 35.7564 218.944 38.8877 220.752 44.0868L215.18 46.3899C214.426 42.9426 212.221 41.0511 208.913 41.0511C204.584 41.0511 201.773 44.3636 201.773 49.477C201.773 54.6223 204.584 57.9446 208.964 57.9446C212.235 57.9446 214.445 56.058 215.183 52.6058L220.71 54.9089C218.775 60.3408 214.629 63.2393 208.874 63.2393C201.085 63.2393 195.648 57.7119 195.648 49.477Z" fill="white"/>
<path d="M223.981 55.7371L229.418 53.26C229.788 56.1585 232.782 58.2313 236.237 58.2313C238.907 58.2313 240.98 56.9915 240.98 55.3328C240.98 50.8711 225.089 52.7553 225.089 43.734C225.089 38.7627 229.465 35.9108 235.453 35.9108C241.348 35.9108 245.726 38.7186 246.784 42.4452L241.073 44.9223C240.887 42.7662 238.594 40.9163 235.313 40.9163C232.917 40.9163 231.074 41.9282 231.074 43.3665C231.074 47.6468 247 45.6696 247 55.1025C247 59.89 242.761 63.2491 236.087 63.2491C229.504 63.2393 224.991 60.2943 223.981 55.7371Z" fill="white"/>
<path d="M30.7588 65.4889C31.0949 68.1816 32.3363 70.696 34.2998 72.6066C36.5821 74.8273 39.6531 76.0504 42.8371 76.0068C46.0212 75.9633 49.0576 74.6567 51.2783 72.3744C53.4989 70.0922 54.7221 67.0212 54.6785 63.8371V35.1708C54.6821 32.7933 53.9797 30.4682 52.6603 28.4904C51.3409 26.5125 49.4639 24.971 47.2673 24.0611C45.0708 23.1513 42.6535 22.9141 40.322 23.3797C37.9905 23.8452 35.8497 24.9926 34.1711 26.6763L30.7588 65.4889ZM30.7588 65.4889L31.3748 64.8722L30.6674 64.1654L29.6675 64.1791C29.6718 64.494 29.6875 64.8076 29.7144 65.1193L22.5086 72.3317C20.8299 74.0154 18.6891 75.1627 16.3576 75.6283C14.0261 76.0939 11.6089 75.8567 9.4123 74.9468C7.21574 74.037 5.33879 72.4954 4.01939 70.5176C2.69999 68.5397 1.99755 66.2147 2.00112 63.8371L30.7588 65.4889ZM25.0123 34.8562L25.0447 37.2257L26.7196 35.5493L34.8785 27.3831L34.8792 27.3823C36.4181 25.8389 38.3805 24.7871 40.5178 24.3603C42.6552 23.9335 44.8711 24.1509 46.8847 24.985C48.8983 25.8191 50.6189 27.2322 51.8284 29.0453C53.0379 30.8584 53.6818 32.9898 53.6785 35.1693V35.1708V63.8371H53.6784L53.6786 63.8508C53.7185 66.7697 52.5973 69.5849 50.5615 71.677C48.5258 73.7692 45.7423 74.967 42.8235 75.0069C39.9046 75.0468 37.0894 73.9256 34.9972 71.8899C32.905 69.8541 31.7072 67.0706 31.6673 64.1518L31.6349 61.7822L29.96 63.4587L21.8011 71.6249L21.8004 71.6256C20.2616 73.1691 18.2991 74.2209 16.1618 74.6477C14.0245 75.0744 11.8086 74.857 9.79498 74.023C7.78139 73.1889 6.06078 71.7757 4.85128 69.9626C3.64177 68.1495 2.99785 66.0181 3.00112 63.8386V63.8371V35.1708H3.00122L3.00103 35.1572C2.96112 32.2383 4.08236 29.4231 6.1181 27.3309C8.15383 25.2387 10.9373 24.0409 13.8562 24.001C16.7751 23.9611 19.5902 25.0824 21.6824 27.1181C23.7746 29.1538 24.9724 31.9373 25.0123 34.8562Z" stroke="white" stroke-width="2"/>
<path d="M37 50.0041C37 54.9773 32.9702 59.0082 28 59.0082C23.0298 59.0082 19 54.9773 19 50.0041C19 45.0309 23.0298 41 28 41C32.9702 41 37 45.0309 37 50.0041Z" stroke="white" stroke-width="2"/>
</svg>
