<svg xmlns="http://www.w3.org/2000/svg" viewBox="0 0 256 256"><path fill="#53fdca" d="M145.025 24.737a20.172 20.172 0 0 0-22.645 8.371l-2.441 3.766a22.817 22.817 0 0 1-10.731 8.822c-10.342 4.137-15.372 15.875-11.235 26.217 3.473 8.681 12.298 13.621 21.163 12.535v127.473c0 11.139 9.03 20.169 20.169 20.169s20.169-9.03 20.169-20.169V44.079a20.168 20.168 0 0 0-14.449-19.342z" class="colorfc657e svgShape"/><path fill="#53fdca" d="M139.306 214.422a2.5 2.5 0 0 1-2.5-2.5V52.255c-4.972 6.461-11.538 11.434-19.177 14.49a2.5 2.5 0 1 1-1.857-4.643 40.4 40.4 0 0 0 18.995-15.617l2.441-3.766a2.499 2.499 0 0 1 4.598 1.359v167.844a2.5 2.5 0 0 1-2.5 2.5z" class="color000000 svgShape"/><path fill="#53fdca" d="M139.306 234.591c-12.5 0-22.669-10.169-22.669-22.669V87.099a22.69 22.69 0 0 1-20.984-14.256 22.521 22.521 0 0 1 .211-17.349 22.522 22.522 0 0 1 12.417-12.118 20.333 20.333 0 0 0 9.561-7.86l2.442-3.767c5.421-8.364 15.888-12.235 25.451-9.409h.001c9.562 2.828 16.24 11.767 16.24 21.739v167.843c-.001 12.5-10.17 22.669-22.67 22.669zM119.137 81.949a2.5 2.5 0 0 1 2.5 2.5v127.473c0 9.743 7.926 17.669 17.669 17.669s17.669-7.926 17.669-17.669V44.079c0-7.772-5.205-14.739-12.657-16.944-7.453-2.2-15.613.814-19.839 7.334l-2.441 3.767a25.297 25.297 0 0 1-11.9 9.783c-4.382 1.752-7.819 5.107-9.678 9.445s-1.917 9.14-.164 13.522c2.976 7.438 10.594 11.951 18.538 10.982.1-.012.202-.019.303-.019z" class="color000000 svgShape"/><path fill="#fff" d="M129.013 249.525c-3.1-.6-5.6-3-6.2-6.1 0-.1-.3-.1-.3 0-.6 3.1-3.1 5.5-6.2 6.1-.1 0-.1.2 0 .3 3.1.6 5.6 3 6.2 6.1 0 .1.3.1.3 0 .6-3.1 3.1-5.5 6.2-6.1.1-.1.1-.3 0-.3z" class="colorf5c84c svgShape"/><path fill="#53fdca" d="M59.205 101.5h2.3v2.3c0 1.8 1.4 3.2 3.2 3.2 1.7 0 3.2-1.4 3.2-3.1v-2.4h2.3c1.8 0 3.2-1.4 3.2-3.2 0-1.7-1.4-3.2-3.1-3.2h-2.4v-2.3c0-1.8-1.4-3.2-3.2-3.2-1.7 0-3.2 1.4-3.2 3.1v2.4h-2.3c-1.8 0-3.2 1.4-3.2 3.2-.1 1.7 1.3 3.2 3.2 3.2-.1 0-.1 0 0 0z" class="color70d6f9 svgShape"/><circle cx="178.413" cy="3.4" r="3.4" fill="#53fdca" class="colorfc657e svgShape"/><circle cx="68.413" cy="163.4" r="3.4" fill="#47d1a8" class="color87d147 svgShape"/><path fill="#fff" d="M207.65 43.85c4.5-.8 8-4.3 8.9-8.7 0-.2.4-.2.4 0 .9 4.4 4.4 7.9 8.9 8.7.2 0 .2.3 0 .4-4.5.8-8 4.3-8.9 8.7 0 .2-.4.2-.4 0-.9-4.4-4.4-7.9-8.9-8.7-.2-.1-.2-.4 0-.4z" class="colorf5c84c svgShape"/></svg>