<svg width="92" height="92" viewBox="0 0 92 92" fill="none" xmlns="http://www.w3.org/2000/svg">
<path d="M83.3257 26.2307H67.631C63.4098 26.2307 59.7124 29.4827 59.6037 33.7024C59.4921 38.0334 62.9698 41.5793 67.2754 41.5793H82.9701C87.1913 41.5793 90.8887 38.3274 90.9974 34.1076C91.109 29.7767 87.6313 26.2307 83.3257 26.2307ZM22.3293 64.0118H14.0299C9.80876 64.0118 6.11133 67.2638 6.0026 71.4836C5.891 75.8145 9.36868 79.3605 13.6743 79.3605L21.9738 79.3605C26.1949 79.3605 29.8923 76.1086 30.001 71.8888C30.1127 67.5578 26.6352 64.0118 22.3293 64.0118ZM30.8382 23.4299C30.7295 19.2101 27.0321 15.9581 22.8109 15.9581H9.02992C4.80874 15.9581 1.11133 19.2101 1.00261 23.4299C0.891032 27.7608 4.3687 31.3068 8.67431 31.3068H23.1665C27.4721 31.3068 30.9498 27.7608 30.8382 23.4299Z" fill="#53FDCA"/>
<path d="M71.2605 37.2974V49.9058C74.727 49.8766 77.5586 47.0561 77.5491 43.5848C77.5398 40.1133 74.7272 37.308 71.2605 37.2974Z" fill="white"/>
<path d="M71.2604 23.5955V63.6193C71.2604 64.4691 70.3439 64.9867 69.6093 64.5593C58.3877 58.0315 45.1955 53.4405 34.1875 49.7965V37.6058C45.1727 33.9149 58.413 29.2445 69.6045 22.6583C70.3391 22.2259 71.2604 22.7431 71.2604 23.5955Z" fill="#8CFFDC"/>
<path d="M33.1671 51.3349H19.5297C18.9465 51.3349 18.4736 50.8621 18.4736 50.2788V36.9242C18.4736 36.341 18.9465 35.8682 19.5297 35.8682H33.1671C33.7504 35.8682 34.2232 36.341 34.2232 36.9242V50.2788C34.2232 50.8621 33.7504 51.3349 33.1671 51.3349Z" fill="white"/>
<path d="M15.4955 49.0526L18.5077 49.0444V38.1504L15.4661 38.1586C14.9582 38.1599 14.5475 38.5728 14.5488 39.0808L14.5732 48.1352C14.5745 48.6432 14.9875 49.054 15.4955 49.0526Z" fill="#8CFFDC"/>
<path d="M31.9369 51.3349L31.9828 70.8247C31.9883 73.1453 30.1115 75.031 27.7909 75.0365H27.7909C25.4701 75.042 23.5843 73.1648 23.5792 70.844L23.5494 57.4974L21.3383 55.1452L21.3281 51.3348H31.9369V51.3349Z" fill="white"/>
<path d="M78.2991 43.5828C78.2898 40.0544 75.6592 37.1266 72.2605 36.6295V23.5955C72.2605 22.4412 71.3218 21.5022 70.168 21.5022C69.7944 21.5022 69.4243 21.6042 69.0977 21.7966C58.4387 28.0691 46.0545 32.5403 35.0977 36.2407C34.8145 35.4436 34.0603 34.8679 33.1673 34.8679H19.5298C18.3963 34.8679 17.4739 35.7903 17.4739 36.9241V37.4033L15.4639 37.4084C14.5432 37.4109 13.7962 38.1624 13.7988 39.0828L13.8232 48.137C13.8254 49.0554 14.5745 49.8025 15.4929 49.8025H15.4976L17.4739 49.7971V50.2786C17.4739 51.4124 18.3962 52.3347 19.5298 52.3347H20.3311L20.3394 55.5427L22.5505 57.8943L22.5794 70.8465C22.5857 73.7083 24.9192 76.0364 27.781 76.0364H27.7932C30.6675 76.0293 32.99 73.6982 32.9829 70.8225L32.9392 52.3347H33.1673C33.9951 52.3347 34.7061 51.8402 35.0315 51.1334C45.9873 54.7779 58.3872 59.1881 69.1067 65.4236C69.4312 65.6126 69.7979 65.7122 70.1675 65.7122C71.3215 65.7122 72.2605 64.7732 72.2605 63.6194V50.5693C75.6773 50.0579 78.3086 47.114 78.2991 43.5828ZM15.4937 48.3025C15.3935 48.3025 15.3928 48.3025 15.4929 48.3025C15.3997 48.3025 15.3235 48.2263 15.3233 48.1331L15.2988 39.0789C15.2986 38.9851 15.3745 38.9089 15.468 38.9084L17.4739 38.9033V48.2969L15.4937 48.3025ZM30.9829 70.8274C30.987 72.5937 29.5614 74.0323 27.7888 74.0364C27.6887 74.0364 27.6809 74.0364 27.781 74.0364C26.0196 74.0364 24.5833 72.6033 24.5794 70.8416L24.5486 57.1003L22.3374 54.7478L22.3311 52.3347H30.9395L30.9829 70.8274ZM19.4739 50.2786L19.5298 36.8679L33.1878 36.924V50.3142C33.179 50.32 33.1787 50.3347 33.1672 50.3347L19.4739 50.2786ZM70.2605 63.6194C70.2605 63.7112 70.1685 63.7122 70.1675 63.7122L70.1123 63.6951C59.0903 57.2833 46.3772 52.7897 35.2234 49.0864V38.3123C46.397 34.5471 59.1282 29.9842 70.168 23.5022C70.1687 23.5022 70.2605 23.5037 70.2605 23.5955V63.6194ZM72.2605 49.0388V38.1589C74.8291 38.642 76.7918 40.8857 76.7991 43.5867C76.8064 46.2885 74.8433 48.5431 72.2605 49.0388Z" fill="#444444"/>
<path d="M48.95 72.4031C50.5792 72.4031 51.9 71.0823 51.9 69.4531C51.9 67.8238 50.5792 66.5031 48.95 66.5031C47.3208 66.5031 46 67.8238 46 69.4531C46 71.0823 47.3208 72.4031 48.95 72.4031Z" fill="#77FFD6"/>
<path d="M76.2919 79.994C77.3832 79.994 78.2679 79.1093 78.2679 78.018C78.2679 76.9267 77.3832 76.042 76.2919 76.042C75.2006 76.042 74.3159 76.9267 74.3159 78.018C74.3159 79.1093 75.2006 79.994 76.2919 79.994Z" fill="#53FDCA"/>
<path d="M52.724 15.958C53.8154 15.958 54.7 15.0733 54.7 13.982C54.7 12.8907 53.8154 12.006 52.724 12.006C51.6327 12.006 50.748 12.8907 50.748 13.982C50.748 15.0733 51.6327 15.958 52.724 15.958Z" fill="#D7FFF3"/>
</svg>
