<svg width="256" height="256" viewBox="0 0 256 256" fill="none" xmlns="http://www.w3.org/2000/svg">
<g clip-path="url(#clip0_1643_306554)">
<path d="M186.192 200.513C197.416 182.665 198.313 160.505 188.592 141.233C186.191 136.461 183.192 132.014 179.666 128C183.191 123.987 186.191 119.54 188.591 114.768C198.313 95.4962 197.416 73.3352 186.193 55.4872C173.758 35.7142 152.295 23.9102 128.778 23.9102C116.857 23.9125 105.073 26.4494 94.2074 31.3526C83.3415 36.2558 73.6424 43.4132 65.7532 52.3502C58.3832 60.7022 59.1792 73.4482 67.5312 80.8182C75.8842 88.1882 88.6292 87.3902 95.9992 79.0392C100.102 74.3912 105.147 70.6688 110.798 68.1187C116.449 65.5687 122.577 64.2493 128.777 64.2482C142.066 64.2482 149.059 72.2132 152.045 76.9612C155.673 82.7292 155.871 90.0712 152.576 96.6022C149.354 102.989 143.525 107.149 136.914 107.832H122.837C111.698 107.832 102.668 116.862 102.668 128.001C102.668 139.14 111.698 148.17 122.837 148.17H137.014C143.586 148.884 149.371 153.045 152.576 159.401C155.87 165.932 155.672 173.273 152.045 179.041C149.059 183.789 142.066 191.754 128.777 191.754C122.577 191.753 116.449 190.433 110.798 187.883C105.146 185.333 100.102 181.61 95.9992 176.962C88.6282 168.61 75.8832 167.813 67.5312 175.183C59.1792 182.553 58.3832 195.299 65.7532 203.651C73.6424 212.588 83.3415 219.746 94.2073 224.649C105.073 229.552 116.857 232.09 128.778 232.092C152.294 232.091 173.758 220.286 186.192 200.513Z" fill="#53FDCA"/>
<path d="M137.903 130.5C137.254 130.503 136.629 130.253 136.161 129.804C135.693 129.355 135.417 128.741 135.393 128.092C135.37 127.444 135.599 126.811 136.033 126.328C136.467 125.846 137.072 125.551 137.719 125.506C150.778 124.524 162.229 116.693 168.351 104.557C174.46 92.4461 173.955 78.6121 167.001 67.5541C158.617 54.2231 144.685 46.5781 128.775 46.5781C120.069 46.5794 111.464 48.4319 103.529 52.0128C95.5935 55.5937 88.5107 60.8211 82.75 67.3481C82.31 67.84 81.6933 68.1379 81.0345 68.177C80.3757 68.216 79.7282 67.9929 79.2332 67.5564C78.7382 67.1199 78.4359 66.5053 78.3922 65.8468C78.3485 65.1883 78.567 64.5392 79 64.0411C85.2303 56.9825 92.8902 51.3294 101.472 47.4569C110.053 43.5843 119.36 41.5807 128.775 41.5791C146.44 41.5791 161.916 50.0771 171.233 64.8931C179.129 77.4501 179.72 93.1201 172.814 106.81C165.896 120.525 152.917 129.379 138.093 130.494C138.03 130.498 137.966 130.5 137.903 130.5V130.5Z" fill="#53FDCA"/>
<path d="M128.775 214.422C119.36 214.42 110.053 212.417 101.472 208.544C92.8901 204.672 85.2302 199.019 79 191.96C78.567 191.462 78.3485 190.813 78.3922 190.154C78.4359 189.496 78.7382 188.881 79.2332 188.445C79.7282 188.008 80.3757 187.785 81.0345 187.824C81.6933 187.863 82.31 188.161 82.75 188.653C88.5108 195.18 95.5937 200.407 103.529 203.988C111.464 207.569 120.069 209.422 128.775 209.423C144.684 209.423 158.617 201.777 167.001 188.447C173.955 177.388 174.46 163.555 168.351 151.443C162.244 139.337 150.831 131.513 137.811 130.501H122.836C122.173 130.501 121.537 130.238 121.068 129.769C120.599 129.3 120.336 128.664 120.336 128.001C120.336 127.338 120.599 126.702 121.068 126.233C121.537 125.764 122.173 125.501 122.836 125.501H137.906C137.969 125.501 138.031 125.503 138.094 125.508C152.917 126.623 165.897 135.476 172.815 149.191C179.721 162.882 179.13 178.552 171.234 191.109C161.916 205.924 146.44 214.422 128.775 214.422V214.422Z" fill="#53FDCA"/>
<path d="M128.776 234.591C116.5 234.589 104.366 231.976 93.177 226.927C81.9881 221.878 72.0006 214.507 63.8769 205.304C61.9004 203.076 60.3853 200.479 59.4194 197.661C58.4536 194.844 58.056 191.863 58.2499 188.891C58.4274 185.918 59.1928 183.01 60.5018 180.335C61.8108 177.66 63.6374 175.271 65.8759 173.307C70.4149 169.301 76.2379 167.299 82.2879 167.68C85.2608 167.858 88.169 168.623 90.8442 169.932C93.5193 171.241 95.9083 173.068 97.8729 175.306C101.741 179.689 106.497 183.198 111.825 185.603C117.152 188.007 122.931 189.251 128.776 189.252C140.862 189.252 147.215 182.019 149.927 177.708C153.083 172.689 153.239 166.266 150.342 160.525C147.56 155.006 142.531 151.33 136.871 150.669H122.835C110.335 150.669 100.166 140.5 100.166 128C100.166 115.5 110.335 105.331 122.835 105.331H136.778C142.48 104.697 147.544 101.02 150.341 95.4752C153.238 89.7342 153.083 83.3102 149.926 78.2912C147.214 73.9792 140.861 66.7472 128.775 66.7472C122.93 66.7483 117.151 67.9923 111.824 70.3967C106.496 72.8011 101.74 76.3109 97.8719 80.6932C89.5999 90.0652 75.2469 90.9602 65.8749 82.6922C63.6364 80.7279 61.8098 78.3391 60.5008 75.6641C59.1918 72.9891 58.4264 70.081 58.2489 67.1082C58.0551 64.1362 58.4526 61.1554 59.4185 58.3381C60.3844 55.5208 61.8994 52.9231 63.8759 50.6952C71.9994 41.4922 81.9869 34.1217 93.1759 29.0727C104.365 24.0236 116.499 21.4113 128.775 21.4092C153.157 21.4092 175.412 33.6512 188.306 54.1552C200.001 72.7532 200.941 95.8332 190.821 115.893C188.648 120.206 186.007 124.266 182.945 127.999C186.008 131.733 188.65 135.793 190.823 140.106C200.941 160.168 200.001 183.247 188.306 201.843C175.415 222.349 153.16 234.591 128.776 234.591ZM80.8509 172.635C76.5459 172.635 72.4409 174.183 69.1849 177.056C67.4402 178.587 66.0165 180.449 64.9962 182.534C63.9759 184.619 63.3793 186.886 63.2409 189.203C63.0901 191.52 63.4001 193.843 64.1531 196.039C64.9062 198.234 66.0872 200.259 67.6279 201.995C75.2821 210.666 84.6925 217.611 95.2349 222.369C105.777 227.126 117.211 229.588 128.777 229.59C151.431 229.59 172.103 218.222 184.076 199.182C194.829 182.083 195.682 160.841 186.36 142.359C184.053 137.777 181.173 133.507 177.789 129.651C177.387 129.195 177.166 128.608 177.166 128C177.166 127.392 177.387 126.805 177.789 126.348C181.173 122.494 184.053 118.223 186.358 113.641C195.682 95.1602 194.829 73.9172 184.076 56.8172C172.102 37.7762 151.43 26.4092 128.777 26.4092C117.211 26.4111 105.777 28.8724 95.2348 33.6298C84.6923 38.3871 75.2819 45.3318 67.6279 54.0032C66.0873 55.7395 64.9063 57.7641 64.1533 59.9598C63.4003 62.1555 63.0902 64.4788 63.2409 66.7952C63.3793 69.1123 63.9759 71.379 64.9962 73.4641C66.0165 75.5491 67.4402 77.4111 69.1849 78.9422C76.4899 85.3862 87.6759 84.6882 94.1239 77.3832C98.4613 72.4693 103.794 68.5339 109.768 65.838C115.742 63.1421 122.222 61.7473 128.776 61.7462C143.265 61.7462 150.899 70.4432 154.16 75.6282C158.259 82.1442 158.501 90.4052 154.807 97.7262C151.217 104.84 144.624 109.546 137.169 110.317C137.084 110.326 136.998 110.33 136.912 110.33H122.835C113.092 110.33 105.166 118.256 105.166 127.999C105.166 137.742 113.092 145.668 122.835 145.668H137.012C137.102 145.668 137.193 145.673 137.282 145.683C144.686 146.487 151.237 151.194 154.807 158.273C158.5 165.593 158.258 173.854 154.16 180.37C150.899 185.555 143.265 194.252 128.776 194.252C122.221 194.251 115.742 192.856 109.768 190.16C103.793 187.464 98.4606 183.528 94.1229 178.614C92.5919 176.87 90.7301 175.446 88.6453 174.425C86.5604 173.405 84.2939 172.808 81.9769 172.669C81.602 172.647 81.2265 172.636 80.8509 172.635Z" fill="#53FDCA"/>
<path d="M129.013 249.525C125.913 248.925 123.413 246.525 122.813 243.425C122.813 243.325 122.513 243.325 122.513 243.425C121.913 246.525 119.413 248.925 116.313 249.525C116.213 249.525 116.213 249.725 116.313 249.825C119.413 250.425 121.913 252.825 122.513 255.925C122.513 256.025 122.813 256.025 122.813 255.925C123.413 252.825 125.913 250.425 129.013 249.825C129.113 249.725 129.113 249.525 129.013 249.525Z" fill="white"/>
<path d="M31.205 104.5H33.505V106.8C33.505 108.6 34.905 110 36.705 110C38.405 110 39.905 108.6 39.905 106.9V104.5H42.205C44.005 104.5 45.405 103.1 45.405 101.3C45.405 99.5996 44.005 98.0996 42.305 98.0996H39.905V95.7996C39.905 93.9996 38.505 92.5996 36.705 92.5996C35.005 92.5996 33.505 93.9996 33.505 95.6996V98.0996H31.205C29.405 98.0996 28.005 99.4996 28.005 101.3C27.905 103 29.305 104.5 31.205 104.5C31.105 104.5 31.105 104.5 31.205 104.5V104.5Z" fill="#53FDCA"/>
<path d="M178.414 6.8C180.291 6.8 181.814 5.27777 181.814 3.4C181.814 1.52223 180.291 0 178.414 0C176.536 0 175.014 1.52223 175.014 3.4C175.014 5.27777 176.536 6.8 178.414 6.8Z" fill="#53FDCA"/>
<path d="M51.4137 148.8C53.2914 148.8 54.8137 147.278 54.8137 145.4C54.8137 143.522 53.2914 142 51.4137 142C49.5359 142 48.0137 143.522 48.0137 145.4C48.0137 147.278 49.5359 148.8 51.4137 148.8Z" fill="#47D1A8"/>
<path d="M207.65 43.85C212.15 43.05 215.65 39.55 216.55 35.15C216.55 34.95 216.95 34.95 216.95 35.15C217.85 39.55 221.35 43.05 225.85 43.85C226.05 43.85 226.05 44.15 225.85 44.25C221.35 45.05 217.85 48.55 216.95 52.95C216.95 53.15 216.55 53.15 216.55 52.95C215.65 48.55 212.15 45.05 207.65 44.25C207.45 44.15 207.45 43.85 207.65 43.85Z" fill="white"/>
</g>
<defs>
<clipPath id="clip0_1643_306554">
<rect width="256" height="256" fill="white"/>
</clipPath>
</defs>
</svg>
