<svg xmlns="http://www.w3.org/2000/svg" viewBox="0 0 256 256"><path fill="#53fdca" d="M139.226 232.091a84.08 84.08 0 0 0 63.025-28.441c7.37-8.352 6.573-21.098-1.779-28.468-8.353-7.37-21.101-6.572-28.467 1.78a43.73 43.73 0 0 1-32.778 14.791h-23.475l50.36-53.18c18.973-20.035 23.983-48.226 13.078-73.572s-34.821-41.092-62.414-41.092A84.08 84.08 0 0 0 53.751 52.35c-7.37 8.352-6.573 21.098 1.779 28.468 8.352 7.369 21.099 6.571 28.467-1.78a43.73 43.73 0 0 1 32.778-14.791c11.381 0 20.861 6.241 25.36 16.696 4.498 10.454 2.511 21.629-5.315 29.893l-82.592 87.217a20.168 20.168 0 0 0 14.645 34.037h70.353z" class="colorfc8c48 svgShape"/><path fill="#53fdca" d="M139.226 214.422H68.874a2.501 2.501 0 0 1-1.816-4.219l82.591-87.217c12.643-13.351 15.982-32.136 8.716-49.026-7.267-16.89-23.203-27.382-41.59-27.382a61.401 61.401 0 0 0-46.026 20.77 2.5 2.5 0 0 1-3.75-3.307 66.406 66.406 0 0 1 49.775-22.462c20.418 0 38.114 11.651 46.184 30.406 8.069 18.755 4.361 39.615-9.678 54.44l-78.596 82.998h64.541a61.4 61.4 0 0 0 46.026-20.771 2.501 2.501 0 0 1 3.75 3.309 66.411 66.411 0 0 1-49.775 22.461z" class="color000000 svgShape"/><path fill="#53fdca" d="M139.226 234.591H68.874a22.65 22.65 0 0 1-20.823-13.709 22.646 22.646 0 0 1 4.362-24.546l82.592-87.217c7.117-7.516 8.924-17.68 4.833-27.187-4.091-9.508-12.712-15.185-23.063-15.185a41.229 41.229 0 0 0-30.903 13.945c-8.271 9.372-22.623 10.271-31.997 2-9.372-8.27-10.269-22.624-2-31.996a86.586 86.586 0 0 1 64.9-29.287c28.609 0 53.404 16.325 64.71 42.604 11.307 26.279 6.11 55.507-13.56 76.279l-46.364 48.961h17.664a41.229 41.229 0 0 0 30.903-13.945 22.507 22.507 0 0 1 15.582-7.627c6.052-.38 11.874 1.62 16.414 5.626 9.373 8.271 10.27 22.624 2 31.997a86.582 86.582 0 0 1-64.898 29.287zM116.775 61.747c12.412 0 22.75 6.807 27.656 18.208 4.904 11.401 2.738 23.588-5.796 32.601l-82.592 87.217a17.653 17.653 0 0 0-3.401 19.132 17.655 17.655 0 0 0 16.231 10.686h70.352a81.577 81.577 0 0 0 61.149-27.595 17.551 17.551 0 0 0 4.386-12.793 17.553 17.553 0 0 0-5.944-12.147c-3.538-3.122-8.075-4.674-12.793-4.385a17.546 17.546 0 0 0-12.145 5.945 46.233 46.233 0 0 1-34.653 15.638H115.75a2.501 2.501 0 0 1-1.816-4.219l50.359-53.18c18.274-19.297 23.102-46.451 12.597-70.865-10.503-24.414-33.538-39.58-60.116-39.58a81.58 81.58 0 0 0-61.15 27.595c-6.445 7.306-5.746 18.493 1.559 24.939 7.306 6.447 18.493 5.746 24.938-1.56a46.235 46.235 0 0 1 34.654-15.637z" class="color000000 svgShape"/><path fill="#fff" d="M207.013 249.525c-3.1-.6-5.6-3-6.2-6.1 0-.1-.3-.1-.3 0-.6 3.1-3.1 5.5-6.2 6.1-.1 0-.1.2 0 .3 3.1.6 5.6 3 6.2 6.1 0 .1.3.1.3 0 .6-3.1 3.1-5.5 6.2-6.1.1-.1.1-.3 0-.3z" class="colorf5c84c svgShape"/><path fill="#53fdca" d="M28.205 117.5h2.3v2.3c0 1.8 1.4 3.2 3.2 3.2 1.7 0 3.2-1.4 3.2-3.1v-2.4h2.3c1.8 0 3.2-1.4 3.2-3.2 0-1.7-1.4-3.2-3.1-3.2h-2.4v-2.3c0-1.8-1.4-3.2-3.2-3.2-1.7 0-3.2 1.4-3.2 3.1v2.4h-2.3c-1.8 0-3.2 1.4-3.2 3.2-.1 1.7 1.3 3.2 3.2 3.2-.1 0-.1 0 0 0z" class="color70d6f9 svgShape"/><circle cx="178.413" cy="3.4" r="3.4" fill="#65fccf" class="colorfc657e svgShape"/><circle cx="48.413" cy="152.4" r="3.4" fill="#47d1a8" class="color87d147 svgShape"/><path fill="#fff" d="M203.65 43.85c4.5-.8 8-4.3 8.9-8.7 0-.2.4-.2.4 0 .9 4.4 4.4 7.9 8.9 8.7.2 0 .2.3 0 .4-4.5.8-8 4.3-8.9 8.7 0 .2-.4.2-.4 0-.9-4.4-4.4-7.9-8.9-8.7-.2-.1-.2-.4 0-.4z" class="colorf5c84c svgShape"/></svg>